<svg width="20" height="38" viewBox="0 0 20 38" fill="none" xmlns="http://www.w3.org/2000/svg">
<path d="M5.01597 9.88918C4.97144 9.9634 4.94505 10.0426 4.93351 10.1283C4.92196 10.2124 4.92856 10.2966 4.95 10.379C4.97309 10.4615 5.00938 10.5374 5.06215 10.605C5.11493 10.6726 5.1776 10.727 5.25182 10.7699C5.32769 10.8128 5.40686 10.8408 5.49262 10.8507C5.57674 10.8623 5.66085 10.8573 5.74496 10.8342C5.82743 10.8128 5.9033 10.7749 5.97092 10.7237C6.04019 10.671 6.09627 10.6083 6.13915 10.5341C6.18203 10.4598 6.20842 10.3807 6.21996 10.2966C6.23151 10.2108 6.22491 10.1283 6.20347 10.0459C6.18038 9.9634 6.1441 9.88753 6.09132 9.81991C6.03854 9.75229 5.97587 9.69621 5.90165 9.65333C5.82743 9.61045 5.74661 9.58406 5.66085 9.57252C5.57674 9.56097 5.49262 9.56757 5.40851 9.58901C5.32604 9.6121 5.25017 9.64838 5.18255 9.70116C5.11328 9.75229 5.05885 9.81496 5.01597 9.88918Z" fill="#16BDB7"/>
<path d="M4.29673 12.5198C4.29508 12.6007 4.32146 12.6716 4.37589 12.7309C4.43197 12.7903 4.50124 12.8217 4.58206 12.8233C4.66287 12.8266 4.73379 12.8002 4.79317 12.7458C4.85254 12.6897 4.88388 12.6221 4.88718 12.5396C4.89047 12.4588 4.86409 12.3895 4.80801 12.3302C4.75193 12.2708 4.68431 12.2395 4.60185 12.2362C4.52103 12.2345 4.45011 12.2609 4.39074 12.3153C4.33136 12.3714 4.30002 12.439 4.29673 12.5198Z" fill="#16BDB7"/>
<path d="M5.83714 11.5617C5.80581 11.6375 5.80581 11.7134 5.83879 11.7893C5.87013 11.8651 5.92456 11.9179 6.00207 11.9476C6.07794 11.979 6.15381 11.9773 6.22968 11.946C6.30555 11.913 6.35832 11.8602 6.38966 11.7827C6.421 11.7068 6.41935 11.6309 6.38801 11.5567C6.35502 11.4809 6.3006 11.4281 6.22473 11.3967C6.14886 11.3671 6.07299 11.3671 5.99712 11.4C5.92126 11.4314 5.86683 11.4858 5.83714 11.5617Z" fill="#16BDB7"/>
<path d="M3.81354 25.5823C3.81024 25.6895 3.84653 25.7836 3.9224 25.8611C3.99661 25.9386 4.08898 25.9782 4.19618 25.9815C4.30504 25.9831 4.3974 25.9468 4.47656 25.8726C4.55408 25.7984 4.59531 25.7077 4.59696 25.6005C4.60026 25.4933 4.56398 25.3993 4.48976 25.3217C4.41389 25.2442 4.32318 25.2046 4.21432 25.2013C4.10547 25.1997 4.01311 25.236 3.93394 25.3102C3.85642 25.3844 3.81519 25.4751 3.81354 25.5823Z" fill="#16BDB7"/>
<path d="M4.64972 13.1185C4.56395 13.13 4.49468 13.1696 4.44356 13.2389C4.39078 13.3081 4.37099 13.384 4.38253 13.4698C4.39573 13.5555 4.43531 13.6231 4.50458 13.6743C4.57385 13.7271 4.65137 13.7468 4.73713 13.7337C4.8229 13.7221 4.89052 13.6825 4.94329 13.6133C4.99442 13.544 5.01421 13.4681 5.00267 13.3823C4.99112 13.2966 4.94989 13.229 4.88062 13.1778C4.81135 13.1251 4.73383 13.1053 4.64972 13.1185Z" fill="#16BDB7"/>
<path d="M5.74975 13.7553C5.7481 13.8493 5.77779 13.9317 5.84211 14.001C5.90808 14.0686 5.98725 14.1049 6.08291 14.1082C6.17692 14.1115 6.25938 14.0818 6.32865 14.0159C6.39793 13.9515 6.43421 13.8724 6.43751 13.7784C6.44081 13.6843 6.40947 13.6019 6.34515 13.5343C6.28082 13.465 6.20001 13.4287 6.106 13.4254C6.01034 13.4221 5.92787 13.4534 5.8586 13.5178C5.78933 13.5821 5.75305 13.6613 5.74975 13.7553Z" fill="#16BDB7"/>
<path d="M4.03267 11.4494C4.01783 11.5236 4.03102 11.5912 4.07225 11.6539C4.11349 11.7149 4.17121 11.7545 4.24378 11.7693C4.318 11.7842 4.38562 11.771 4.44829 11.7297C4.51097 11.6885 4.5489 11.6308 4.5654 11.5582C4.58024 11.484 4.56704 11.4164 4.52581 11.3554C4.48293 11.2927 4.42685 11.2547 4.35264 11.2399C4.28007 11.2251 4.21079 11.2383 4.14977 11.2795C4.0871 11.3207 4.04751 11.3768 4.03267 11.4494Z" fill="#16BDB7"/>
<path d="M4.65796 8.46098C4.60354 8.52531 4.5623 8.59788 4.53756 8.67869C4.51117 8.75951 4.50293 8.84197 4.50952 8.92609C4.51777 9.0102 4.54086 9.09102 4.58044 9.16524C4.62003 9.2411 4.67116 9.30543 4.73713 9.35985C4.8031 9.41428 4.87567 9.45386 4.95649 9.48025C5.03895 9.50499 5.12142 9.51324 5.20553 9.50664C5.29129 9.50005 5.37046 9.47531 5.44633 9.43737C5.5222 9.39779 5.58652 9.34666 5.6426 9.28069C5.69702 9.21637 5.73661 9.1438 5.763 9.06298C5.78774 8.98216 5.79763 8.8997 5.78938 8.81558C5.78279 8.73147 5.7597 8.65065 5.72011 8.57643C5.68053 8.50057 5.62775 8.43624 5.56343 8.38182C5.49746 8.32739 5.42489 8.28781 5.34242 8.26142C5.26161 8.23668 5.17914 8.22678 5.09338 8.23503C5.00926 8.24163 4.92845 8.26472 4.85258 8.3043C4.77836 8.34388 4.71239 8.39501 4.65796 8.46098Z" fill="#16BDB7"/>
<path d="M6.45069 24.4311C6.43255 24.5185 6.44904 24.5994 6.49852 24.6736C6.54965 24.7478 6.61727 24.794 6.70634 24.8105C6.79375 24.8286 6.87457 24.8121 6.95043 24.7626C7.02465 24.7132 7.07083 24.6455 7.08733 24.5581C7.10547 24.4707 7.08897 24.3899 7.0395 24.3157C6.99002 24.2415 6.92075 24.1953 6.83333 24.1788C6.74427 24.1606 6.66345 24.1771 6.58924 24.2266C6.51502 24.2761 6.46884 24.3437 6.45069 24.4311Z" fill="#16BDB7"/>
<path d="M5.91473 14.3044C5.81743 14.3192 5.73826 14.3654 5.67888 14.4429C5.61951 14.5221 5.59642 14.6095 5.61126 14.7068C5.62446 14.8025 5.67064 14.8816 5.7498 14.9394C5.82897 14.9987 5.91638 15.0218 6.01369 15.0086C6.111 14.9938 6.19017 14.9476 6.24954 14.8701C6.30892 14.7909 6.33201 14.7035 6.31716 14.6062C6.30397 14.5105 6.25779 14.4314 6.17862 14.3737C6.09946 14.3143 6.01204 14.2912 5.91473 14.3044Z" fill="#16BDB7"/>
<path d="M6.83335 15.797C6.72284 15.8119 6.63543 15.863 6.56781 15.9521C6.50184 16.0395 6.4771 16.1384 6.49194 16.2473C6.50679 16.3561 6.55956 16.4435 6.64863 16.5095C6.73604 16.5755 6.835 16.6002 6.9455 16.5854C7.05435 16.5705 7.14342 16.5178 7.20939 16.4304C7.27536 16.3429 7.30175 16.244 7.28526 16.1351C7.27041 16.0263 7.21764 15.9389 7.13022 15.8729C7.04116 15.8069 6.9422 15.7805 6.83335 15.797Z" fill="#16BDB7"/>
<path d="M7.17791 14.3242C7.15646 14.4264 7.17296 14.5204 7.23068 14.6078C7.28676 14.6936 7.36593 14.748 7.46818 14.7695C7.57044 14.7909 7.6661 14.7728 7.75351 14.7167C7.84093 14.6606 7.89535 14.5815 7.91679 14.4792C7.93823 14.3786 7.92009 14.2846 7.86402 14.1972C7.80629 14.1098 7.72712 14.0553 7.62487 14.0339C7.52261 14.0124 7.4286 14.0306 7.34119 14.0867C7.25377 14.1444 7.19935 14.2236 7.17791 14.3242Z" fill="#16BDB7"/>
<path d="M3.10752 10.1217C3.08113 10.1943 3.06958 10.2702 3.07288 10.3477C3.07618 10.4252 3.09432 10.4994 3.12731 10.5703C3.1603 10.6396 3.20648 10.7023 3.2642 10.755C3.32193 10.8062 3.38625 10.8458 3.46047 10.8738C3.53469 10.9002 3.61056 10.9117 3.68807 10.9084C3.76559 10.9051 3.84146 10.887 3.91238 10.854C3.9833 10.821 4.04432 10.7748 4.0971 10.7188C4.14988 10.661 4.18946 10.5951 4.2175 10.5225C4.24389 10.4499 4.25543 10.3741 4.25214 10.2965C4.24884 10.219 4.23069 10.1448 4.19771 10.0739C4.16472 10.003 4.11854 9.94194 4.06082 9.88916C4.00309 9.83639 3.93712 9.7968 3.86455 9.77041C3.79033 9.74403 3.71446 9.73248 3.63695 9.73578C3.55778 9.73908 3.48356 9.75722 3.41264 9.79021C3.34172 9.82319 3.2807 9.86772 3.22792 9.92545C3.17514 9.98318 3.13391 10.0475 3.10752 10.1217Z" fill="#16BDB7"/>
<path d="M6.84161 15.3269C6.83831 15.4341 6.87295 15.5282 6.94717 15.6057C7.02138 15.6848 7.1121 15.7261 7.2193 15.7294C7.32815 15.7327 7.42216 15.698 7.50133 15.6255C7.5805 15.5512 7.62173 15.4605 7.62503 15.3533C7.62833 15.2461 7.59369 15.1521 7.51947 15.0746C7.44526 14.9954 7.35454 14.9542 7.24734 14.9509C7.13848 14.9476 7.04447 14.9822 6.96531 15.0548C6.88614 15.129 6.84491 15.2197 6.84161 15.3269Z" fill="#16BDB7"/>
<path d="M2.50061 28.5017C2.46927 28.5544 2.44948 28.6089 2.43959 28.6682C2.43134 28.7276 2.43299 28.787 2.44783 28.8447C2.46268 28.9041 2.48742 28.9569 2.5237 29.0063C2.55834 29.0542 2.60287 29.0938 2.654 29.1251C2.70512 29.1564 2.7612 29.1762 2.82222 29.1861C2.8816 29.196 2.94097 29.1927 2.9987 29.1779C3.05807 29.1647 3.1125 29.1399 3.16033 29.1037C3.20981 29.069 3.24939 29.0245 3.28073 28.9734C3.31207 28.9222 3.33351 28.8662 3.34176 28.8068C3.35165 28.7474 3.34835 28.6897 3.33351 28.6303C3.32031 28.5726 3.29557 28.5181 3.25929 28.4703C3.22301 28.4225 3.18012 28.3813 3.12735 28.3499C3.07622 28.3186 3.02014 28.2988 2.96077 28.2905C2.90139 28.2806 2.84202 28.2839 2.78264 28.2971C2.72327 28.312 2.67049 28.3367 2.62101 28.3714C2.57318 28.4076 2.53195 28.4505 2.50061 28.5017Z" fill="#16BDB7"/>
<path d="M6.32219 27.9704C6.25622 28.0446 6.22653 28.1304 6.23313 28.2294C6.23972 28.3283 6.28096 28.4108 6.35518 28.4751C6.43104 28.5411 6.51681 28.5708 6.61742 28.5642C6.71637 28.5576 6.79884 28.518 6.86481 28.4438C6.92913 28.3696 6.95882 28.2821 6.95222 28.1832C6.94563 28.0859 6.90604 28.0034 6.83018 27.9374C6.75596 27.8731 6.66854 27.8434 6.56959 27.85C6.47063 27.855 6.38816 27.8962 6.32219 27.9704Z" fill="#16BDB7"/>
<path d="M5.84219 12.7128C5.8224 12.8002 5.83889 12.8811 5.88672 12.9553C5.9362 13.0311 6.00382 13.0773 6.09123 13.0955C6.18029 13.1136 6.26111 13.0988 6.33533 13.0493C6.4112 13.0015 6.45738 12.9338 6.47717 12.8464C6.49531 12.759 6.48047 12.6782 6.43099 12.6023C6.38151 12.5281 6.31389 12.4819 6.22648 12.4638C6.13906 12.4456 6.0566 12.4605 5.98238 12.5083C5.90651 12.5578 5.86033 12.6254 5.84219 12.7128Z" fill="#16BDB7"/>
<path d="M1.49952 27.8352C1.47808 27.8946 1.46653 27.9539 1.46818 28.0166C1.46983 28.0793 1.48303 28.1387 1.50777 28.1964C1.53251 28.2525 1.56879 28.3036 1.61332 28.3465C1.6595 28.3894 1.71063 28.4224 1.77001 28.4454C1.82773 28.4685 1.88876 28.4784 1.95143 28.4768C2.0141 28.4768 2.07513 28.4636 2.1312 28.4372C2.18893 28.4125 2.24006 28.3778 2.28294 28.3333C2.32747 28.2871 2.36046 28.236 2.38355 28.1783C2.40499 28.1189 2.41653 28.0595 2.41488 27.9968C2.41323 27.9342 2.40004 27.8748 2.3753 27.8171C2.35056 27.761 2.31428 27.7099 2.26974 27.667C2.22356 27.6241 2.17244 27.5911 2.11306 27.568C2.05534 27.5449 1.99431 27.535 1.93164 27.5367C1.86896 27.5367 1.80794 27.5499 1.75021 27.5763C1.69414 27.601 1.64301 27.6356 1.60013 27.6802C1.5556 27.7263 1.52261 27.7775 1.49952 27.8352Z" fill="#16BDB7"/>
<mask id="mask0_63_432" style="mask-type:luminance" maskUnits="userSpaceOnUse" x="0" y="10" width="2" height="3">
<path d="M1.32642 10.5555H0.500115V12.2444H1.32642V10.5555Z" fill="white"/>
</mask>
<g mask="url(#mask0_63_432)">
<path d="M0.994629 11.3456C0.994629 11.2796 0.981435 11.2186 0.956695 11.1592C0.931955 11.0998 0.89732 11.047 0.851139 11.0008C0.804959 10.9563 0.752181 10.92 0.692806 10.8953C0.633431 10.8706 0.570758 10.859 0.506435 10.859H0.501487V11.8304H0.506435C0.570758 11.8304 0.633431 11.8173 0.692806 11.7925C0.752181 11.7678 0.804959 11.7331 0.851139 11.6886C0.89732 11.6424 0.931955 11.5897 0.956695 11.5303C0.981435 11.4709 0.994629 11.4099 0.994629 11.3456Z" fill="#16BDB7"/>
</g>
<mask id="mask1_63_432" style="mask-type:luminance" maskUnits="userSpaceOnUse" x="0" y="8" width="2" height="2">
<path d="M1.32642 8.02222H0.500115V9.7111H1.32642V8.02222Z" fill="white"/>
</mask>
<g mask="url(#mask1_63_432)">
<path d="M0.724289 8.41467C0.655018 8.37508 0.580799 8.35364 0.501632 8.34705V9.37951C0.615434 9.37126 0.716042 9.33003 0.803455 9.25581C0.889219 9.18159 0.945295 9.08923 0.971684 8.97873C0.996424 8.86823 0.986528 8.76102 0.940347 8.65712C0.894166 8.55321 0.823247 8.47239 0.724289 8.41467Z" fill="#16BDB7"/>
</g>
<mask id="mask2_63_432" style="mask-type:luminance" maskUnits="userSpaceOnUse" x="0" y="25" width="1" height="3">
<path d="M0.904053 25.7555H0.499973V27.0222H0.904053V25.7555Z" fill="white"/>
</mask>
<g mask="url(#mask2_63_432)">
<path d="M0.821761 26.5505C0.825059 26.4466 0.797022 26.3509 0.737647 26.2652C0.678272 26.1794 0.600754 26.1184 0.501796 26.0837V26.9958C0.595806 26.9612 0.673324 26.9034 0.731049 26.8226C0.790424 26.7402 0.820111 26.6495 0.821761 26.5505Z" fill="#16BDB7"/>
</g>
<mask id="mask3_63_432" style="mask-type:luminance" maskUnits="userSpaceOnUse" x="0" y="8" width="3" height="3">
<path d="M2.1709 8.86658H0.500153V10.5555H2.1709V8.86658Z" fill="white"/>
</mask>
<g mask="url(#mask3_63_432)">
<path d="M0.750857 9.6154C0.726117 9.68137 0.716222 9.75065 0.71952 9.81992C0.721169 9.88919 0.737663 9.95681 0.76735 10.0211C0.798687 10.0838 0.83827 10.1399 0.891048 10.1861C0.942176 10.2339 1.00155 10.2702 1.06752 10.2933C1.13514 10.318 1.20277 10.3279 1.27369 10.3246C1.34296 10.3213 1.41058 10.3065 1.4749 10.2768C1.53922 10.2471 1.5953 10.2059 1.64148 10.1547C1.68931 10.1019 1.7256 10.0442 1.75034 9.97825C1.77343 9.91228 1.78497 9.84465 1.78167 9.77374C1.77837 9.70446 1.76188 9.63684 1.73219 9.57417C1.70251 9.50985 1.66127 9.45377 1.61014 9.40759C1.55737 9.35976 1.49799 9.32347 1.43202 9.30038C1.36605 9.27565 1.29678 9.26575 1.22751 9.26905C1.15659 9.27235 1.08896 9.28884 1.02464 9.31853C0.961968 9.34657 0.905891 9.3878 0.858062 9.43893C0.810232 9.4917 0.773947 9.54943 0.750857 9.6154Z" fill="#16BDB7"/>
</g>
<path d="M1.43503 10.6281C1.42349 10.6974 1.42514 10.7667 1.43998 10.8359C1.45483 10.9052 1.48286 10.9695 1.5241 11.0272C1.56533 11.085 1.61481 11.1328 1.67583 11.1707C1.73521 11.2087 1.80118 11.2334 1.87045 11.2466C1.94137 11.2581 2.01064 11.2565 2.07991 11.2417C2.14918 11.2268 2.21351 11.1988 2.27288 11.1575C2.33061 11.118 2.37844 11.0668 2.41637 11.0075C2.45595 10.9481 2.48069 10.8838 2.49389 10.8128C2.50543 10.7436 2.50378 10.6743 2.48894 10.605C2.47245 10.5357 2.44441 10.4731 2.40483 10.4137C2.36359 10.356 2.31247 10.3081 2.25309 10.2702C2.19207 10.2323 2.12774 10.2075 2.05682 10.1943C1.98755 10.1828 1.91828 10.1844 1.84736 10.1993C1.77809 10.2141 1.71377 10.2422 1.65604 10.2834C1.59832 10.3246 1.54884 10.3741 1.5109 10.4335C1.47297 10.4929 1.44823 10.5588 1.43503 10.6281Z" fill="#16BDB7"/>
<path d="M1.49133 25.3416C1.4336 25.3498 1.37918 25.3696 1.32805 25.3993C1.27692 25.4306 1.23569 25.4686 1.1994 25.5164C1.16477 25.5642 1.14003 25.6154 1.12683 25.6731C1.11199 25.7292 1.11034 25.7869 1.11858 25.8446C1.12848 25.9023 1.14827 25.9568 1.17796 26.0079C1.2093 26.0574 1.24723 26.1002 1.29506 26.1349C1.34289 26.1695 1.39567 26.1926 1.45174 26.2075C1.50947 26.2206 1.5672 26.2239 1.62657 26.2157C1.6843 26.2058 1.73872 26.186 1.7882 26.1563C1.83933 26.125 1.88221 26.0871 1.91685 26.0392C1.95148 25.993 1.97622 25.9403 1.99107 25.8825C2.00426 25.8265 2.00756 25.7687 1.99766 25.711C1.98942 25.6533 1.96963 25.5989 1.93829 25.5494C1.9086 25.4983 1.86902 25.457 1.82119 25.4224C1.77501 25.3861 1.72223 25.363 1.6645 25.3482C1.60678 25.335 1.54905 25.3317 1.49133 25.3416Z" fill="#16BDB7"/>
<path d="M1.97125 30.616C1.92177 30.6539 1.88219 30.7018 1.8525 30.7562C1.82281 30.8106 1.80302 30.8683 1.79642 30.931C1.78983 30.9937 1.79477 31.0547 1.81292 31.1141C1.83106 31.1735 1.8591 31.2279 1.89868 31.2774C1.93661 31.3252 1.98444 31.3648 2.03887 31.3961C2.09495 31.4258 2.15267 31.4439 2.21535 31.4505C2.27802 31.4571 2.33905 31.4522 2.40007 31.4357C2.45944 31.4176 2.51552 31.3895 2.56335 31.3499C2.61283 31.312 2.65241 31.2642 2.6821 31.2097C2.71344 31.1553 2.73158 31.0959 2.73818 31.0349C2.74477 30.9722 2.73983 30.9112 2.72168 30.8518C2.70519 30.7908 2.6755 30.738 2.63757 30.6886C2.59799 30.6391 2.55016 30.6012 2.49573 30.5698C2.43965 30.5401 2.38193 30.522 2.31925 30.5154C2.25658 30.5071 2.19556 30.5137 2.13453 30.5302C2.07516 30.5484 2.02073 30.5764 1.97125 30.616Z" fill="#16BDB7"/>
<path d="M7.49971 17.161C7.49806 17.2187 7.50796 17.2748 7.52775 17.3292C7.54754 17.3837 7.57888 17.4331 7.61846 17.4744C7.65804 17.5173 7.70422 17.5502 7.757 17.575C7.81143 17.5981 7.86585 17.6113 7.92523 17.6129C7.98296 17.6162 8.04068 17.6063 8.09511 17.5865C8.14954 17.5651 8.19737 17.5354 8.24025 17.4958C8.28313 17.4562 8.31612 17.4101 8.34085 17.3573C8.36559 17.3045 8.37879 17.2484 8.38044 17.1907C8.38209 17.133 8.37219 17.0769 8.3524 17.0225C8.33096 16.968 8.30127 16.9186 8.26169 16.8773C8.2221 16.8344 8.17592 16.8015 8.1215 16.7767C8.06872 16.7536 8.01264 16.7404 7.95492 16.7388C7.89719 16.7355 7.83947 16.7454 7.78504 16.7652C7.73061 16.7866 7.68278 16.8163 7.6399 16.8559C7.59702 16.8955 7.56403 16.9416 7.53929 16.9944C7.51455 17.0472 7.50136 17.1033 7.49971 17.161Z" fill="#16BDB7"/>
<mask id="mask4_63_432" style="mask-type:luminance" maskUnits="userSpaceOnUse" x="0" y="26" width="2" height="2">
<path d="M1.74854 26.6H0.500012V27.8666H1.74854V26.6Z" fill="white"/>
</mask>
<g mask="url(#mask4_63_432)">
<path d="M0.630209 27.1806C0.617014 27.2416 0.617014 27.3043 0.630209 27.3669C0.641754 27.4296 0.666493 27.4873 0.702778 27.5401C0.737414 27.5945 0.781945 27.6374 0.836372 27.6737C0.88915 27.71 0.946875 27.7331 1.00955 27.7463C1.07387 27.7578 1.13655 27.7578 1.19922 27.7463C1.26189 27.7331 1.31962 27.71 1.37405 27.6737C1.42682 27.6391 1.47135 27.5945 1.50764 27.5418C1.54227 27.489 1.56701 27.4312 1.58021 27.3686C1.59175 27.3059 1.59175 27.2432 1.58021 27.1806C1.56701 27.1179 1.54227 27.0602 1.50764 27.0074C1.47135 26.9546 1.42682 26.9101 1.37405 26.8738C1.32127 26.8391 1.26189 26.8144 1.19922 26.8029C1.13655 26.7897 1.07387 26.7897 1.0112 26.8029C0.948525 26.8144 0.88915 26.8391 0.836372 26.8738C0.783594 26.9084 0.739063 26.953 0.702778 27.0057C0.666493 27.0602 0.643403 27.1179 0.630209 27.1806Z" fill="#16BDB7"/>
</g>
<path d="M3.03499 12.5C3.03499 12.5676 3.05973 12.627 3.10756 12.6748C3.15539 12.7227 3.21312 12.7458 3.28239 12.7458C3.35001 12.7458 3.40774 12.7227 3.45722 12.6748C3.50505 12.627 3.52979 12.5676 3.52979 12.5C3.52979 12.4324 3.50505 12.3747 3.45722 12.3268C3.40774 12.279 3.35001 12.2543 3.28239 12.2543C3.21312 12.2543 3.15539 12.279 3.10756 12.3268C3.05973 12.3747 3.03499 12.4324 3.03499 12.5Z" fill="#16BDB7"/>
<path d="M1.92671 26.3048C1.92506 26.3625 1.93496 26.4186 1.9564 26.473C1.97784 26.5274 2.00918 26.5753 2.04876 26.6165C2.08999 26.6594 2.13617 26.6924 2.18895 26.7155C2.24338 26.7386 2.29945 26.7501 2.35718 26.7517C2.41491 26.7534 2.47263 26.7435 2.52706 26.7221C2.58149 26.7023 2.62932 26.6709 2.6722 26.6314C2.71343 26.5901 2.74642 26.5439 2.76951 26.4912C2.79425 26.4384 2.80579 26.3823 2.80744 26.3246C2.80909 26.2669 2.79919 26.2108 2.77775 26.1564C2.75631 26.1019 2.72662 26.0541 2.68539 26.0129C2.64581 25.97 2.59798 25.937 2.5452 25.9139C2.49077 25.8908 2.4347 25.8776 2.37697 25.8776C2.31925 25.876 2.26152 25.8859 2.20709 25.9073C2.15267 25.9271 2.10484 25.9584 2.0636 25.998C2.02072 26.0376 1.98774 26.0854 1.96465 26.1382C1.93991 26.191 1.92836 26.2471 1.92671 26.3048Z" fill="#16BDB7"/>
<path d="M2.56008 8.89623C2.52214 8.96221 2.4974 9.03478 2.48751 9.11064C2.47761 9.18651 2.48256 9.26238 2.50235 9.3366C2.52214 9.41082 2.55513 9.47844 2.60296 9.53946C2.65079 9.60049 2.70686 9.65162 2.77449 9.68955C2.84211 9.72748 2.91303 9.75222 2.99054 9.76212C3.06806 9.77201 3.14393 9.76707 3.21815 9.74728C3.29237 9.72748 3.36164 9.6945 3.42266 9.64667C3.48369 9.60049 3.53481 9.54441 3.57275 9.47679C3.61233 9.41082 3.63542 9.33825 3.64697 9.26238C3.65686 9.18651 3.65191 9.11064 3.63047 9.03643C3.61068 8.96221 3.5777 8.89459 3.52987 8.83356C3.48369 8.77254 3.42596 8.72141 3.35834 8.68347C3.29237 8.64554 3.2198 8.6208 3.14228 8.6109C3.06641 8.60101 2.99054 8.60596 2.91468 8.62575C2.84046 8.64554 2.77284 8.67853 2.71016 8.72636C2.64914 8.77254 2.59966 8.82861 2.56008 8.89623Z" fill="#16BDB7"/>
<path d="M1.38075 11.8749C1.31973 11.8832 1.27025 11.9112 1.23231 11.9607C1.19438 12.0102 1.18119 12.0662 1.18943 12.1273C1.19768 12.1883 1.22737 12.2378 1.27685 12.2741C1.32632 12.312 1.3824 12.3268 1.44343 12.3169C1.50445 12.3087 1.55393 12.2807 1.59186 12.2312C1.62815 12.1817 1.64299 12.1256 1.63474 12.0646C1.6265 12.0036 1.59681 11.9541 1.54733 11.9178C1.49785 11.8799 1.44178 11.865 1.38075 11.8749Z" fill="#16BDB7"/>
<path d="M3.28404 24.8632C3.17354 24.8796 3.08613 24.9324 3.02181 25.0215C2.95583 25.1089 2.93109 25.2079 2.94759 25.3167C2.96408 25.4256 3.01851 25.513 3.10757 25.5773C3.19663 25.6433 3.29559 25.6664 3.40444 25.6499C3.51495 25.6334 3.60236 25.5806 3.66668 25.4932C3.73266 25.4041 3.75739 25.3052 3.7409 25.1963C3.72276 25.0875 3.66998 25 3.58092 24.9357C3.49186 24.8698 3.3929 24.8467 3.28404 24.8632Z" fill="#16BDB7"/>
<path d="M3.11257 12.289C3.03835 12.2989 2.98063 12.3336 2.93609 12.3929C2.89156 12.4523 2.87342 12.5183 2.88497 12.5909C2.89486 12.6651 2.9295 12.7228 2.98887 12.7673C3.04825 12.8119 3.11422 12.8283 3.18844 12.8185C3.26101 12.8086 3.32038 12.7739 3.36491 12.7145C3.40944 12.6552 3.42759 12.5892 3.41604 12.5166C3.40615 12.4441 3.37151 12.3847 3.31214 12.3402C3.25276 12.2956 3.18679 12.2791 3.11257 12.289Z" fill="#16BDB7"/>
<path d="M2.81072 26.7566C2.79917 26.811 2.79917 26.8671 2.81072 26.9232C2.82226 26.9793 2.8437 27.0304 2.87504 27.0782C2.90638 27.1244 2.94596 27.164 2.99379 27.1953C3.04162 27.2267 3.09275 27.2481 3.14882 27.2597C3.2049 27.2712 3.26098 27.2712 3.31705 27.2597C3.37313 27.2481 3.42426 27.2283 3.47209 27.1953C3.51992 27.164 3.5595 27.1244 3.59084 27.0782C3.62382 27.0304 3.64526 26.9793 3.65516 26.9232C3.6667 26.8688 3.6667 26.8127 3.65516 26.7566C3.64526 26.7005 3.62382 26.6494 3.59084 26.6016C3.5595 26.5554 3.51992 26.5158 3.47209 26.4845C3.42591 26.4531 3.37313 26.4317 3.31705 26.4202C3.26098 26.4086 3.2049 26.4086 3.14882 26.4202C3.09275 26.4301 3.04162 26.4515 2.99379 26.4828C2.94596 26.5158 2.90638 26.5538 2.87504 26.6016C2.8437 26.6494 2.82226 26.7005 2.81072 26.7566Z" fill="#16BDB7"/>
<path d="M6.05311 22.7356C5.96735 22.7488 5.89972 22.7884 5.84859 22.8576C5.79747 22.9269 5.77767 23.0044 5.79087 23.0902C5.80406 23.1743 5.8453 23.2419 5.91457 23.2931C5.98384 23.3442 6.06136 23.3623 6.14712 23.3491C6.23288 23.3376 6.3005 23.2964 6.35163 23.2271C6.40276 23.1578 6.42255 23.0803 6.40936 22.9945C6.39616 22.9104 6.35493 22.8428 6.28566 22.7917C6.21639 22.7405 6.13887 22.7224 6.05311 22.7356Z" fill="#16BDB7"/>
<path d="M11.557 13.9778C11.4713 14.0454 11.4218 14.1328 11.4086 14.2417C11.3954 14.3489 11.4218 14.4462 11.4894 14.532C11.557 14.6161 11.6444 14.6656 11.7533 14.6787C11.8621 14.6919 11.9595 14.6656 12.0452 14.5979C12.1326 14.5303 12.1821 14.4429 12.1953 14.3357C12.2085 14.2268 12.1805 14.1312 12.1145 14.0454C12.0469 13.9597 11.9578 13.9102 11.8506 13.897C11.7417 13.8838 11.6444 13.9118 11.557 13.9778Z" fill="#16BDB7"/>
<path d="M12.3388 16.9565C12.2894 16.9961 12.2498 17.0423 12.2184 17.0967C12.1888 17.1511 12.169 17.2089 12.1607 17.2715C12.1541 17.3326 12.1591 17.3936 12.1756 17.4546C12.1921 17.514 12.2201 17.5684 12.258 17.6179C12.2976 17.6674 12.3438 17.7069 12.3982 17.7383C12.4526 17.768 12.512 17.7878 12.5747 17.7944C12.6357 17.8026 12.6984 17.7977 12.7578 17.7812C12.8188 17.7647 12.8732 17.7366 12.9227 17.6987C12.9722 17.6591 13.0134 17.6129 13.0431 17.5585C13.0744 17.5041 13.0942 17.4464 13.1008 17.3837C13.1091 17.3227 13.1041 17.2616 13.0876 17.2006C13.0711 17.1412 13.0431 17.0868 13.0052 17.0373C12.9656 16.9878 12.9194 16.9483 12.865 16.9169C12.8105 16.8872 12.7512 16.8674 12.6885 16.8609C12.6258 16.8526 12.5648 16.8576 12.5054 16.874C12.4444 16.8905 12.3883 16.9186 12.3388 16.9565Z" fill="#16BDB7"/>
<path d="M11.255 18.0367C11.2105 18.0862 11.1775 18.1423 11.1544 18.205C11.1329 18.2676 11.123 18.3303 11.1263 18.3979C11.1296 18.4639 11.1461 18.5266 11.1742 18.5859C11.2039 18.6453 11.2434 18.6964 11.2929 18.741C11.3424 18.7855 11.3985 18.8185 11.4612 18.8399C11.5238 18.863 11.5882 18.8713 11.6541 18.868C11.7201 18.8647 11.7828 18.8482 11.8438 18.8201C11.9032 18.7921 11.9559 18.7525 12.0005 18.703C12.045 18.6536 12.078 18.5991 12.0994 18.5365C12.1225 18.4738 12.1308 18.4095 12.1275 18.3435C12.1242 18.2775 12.1077 18.2149 12.0796 18.1555C12.0516 18.0961 12.012 18.0433 11.9625 17.9988C11.9131 17.9559 11.857 17.9229 11.7943 17.8998C11.7316 17.8784 11.6673 17.8685 11.6013 17.8734C11.5337 17.8767 11.4711 17.8916 11.4117 17.9213C11.3507 17.9493 11.2995 17.9889 11.255 18.0367Z" fill="#16BDB7"/>
<path d="M7.69102 11.9673C7.64319 12.0431 7.63 12.1256 7.64979 12.213C7.67123 12.3004 7.71906 12.3681 7.79658 12.4159C7.87245 12.4637 7.95491 12.4769 8.04398 12.4571C8.13139 12.4373 8.20066 12.3878 8.24849 12.312C8.29632 12.2345 8.30951 12.1536 8.28972 12.0646C8.26828 11.9772 8.22045 11.9095 8.14293 11.8617C8.06707 11.8155 7.9846 11.8007 7.89554 11.8221C7.80812 11.8419 7.73885 11.8898 7.69102 11.9673Z" fill="#16BDB7"/>
<path d="M7.65483 19.183C7.65318 19.2473 7.66308 19.3083 7.68617 19.3694C7.70926 19.4304 7.74224 19.4832 7.78677 19.531C7.8313 19.5772 7.88243 19.6135 7.94181 19.6415C7.99953 19.6679 8.06221 19.6827 8.12653 19.6844C8.1925 19.686 8.25518 19.6761 8.31455 19.653C8.37558 19.6316 8.43 19.597 8.47783 19.5541C8.52401 19.5096 8.56195 19.4584 8.58834 19.3991C8.61472 19.3413 8.62957 19.2787 8.63122 19.2143C8.63452 19.15 8.62462 19.089 8.60153 19.028C8.57844 18.9669 8.54545 18.9142 8.50092 18.8663C8.45639 18.8201 8.40526 18.7822 8.34589 18.7558C8.28651 18.7294 8.22549 18.7146 8.15952 18.7129C8.09519 18.7113 8.03252 18.7212 7.9715 18.7443C7.91047 18.7657 7.85769 18.8004 7.80986 18.8432C7.76203 18.8878 7.72575 18.9389 7.69936 18.9983C7.67132 19.056 7.65813 19.117 7.65483 19.183Z" fill="#16BDB7"/>
<path d="M7.47648 13.2125C7.43854 13.3032 7.44019 13.3939 7.47813 13.4846C7.51606 13.5737 7.58203 13.638 7.67274 13.6743C7.76511 13.7106 7.85582 13.7106 7.94653 13.671C8.03724 13.633 8.09992 13.5687 8.13785 13.478C8.17413 13.3873 8.17248 13.2966 8.13455 13.2059C8.09662 13.1168 8.03064 13.0525 7.93993 13.0162C7.84922 12.9799 7.75686 12.9799 7.66615 13.0195C7.57544 13.0574 7.51276 13.1217 7.47648 13.2125Z" fill="#16BDB7"/>
<path d="M7.36618 19.5443C7.30515 19.5542 7.25567 19.5838 7.21939 19.6333C7.1831 19.6828 7.16826 19.7389 7.17816 19.7982C7.18805 19.8593 7.21774 19.9088 7.26722 19.945C7.31835 19.9813 7.37277 19.9945 7.43545 19.9863C7.49647 19.9764 7.54595 19.9467 7.58224 19.8972C7.61852 19.8477 7.63337 19.7917 7.62347 19.7306C7.61357 19.6696 7.58389 19.6218 7.53441 19.5855C7.48328 19.5492 7.42885 19.5344 7.36618 19.5443Z" fill="#16BDB7"/>
<path d="M7.5638 21.1358C7.56215 21.2034 7.58524 21.2611 7.63142 21.3106C7.67925 21.3601 7.73698 21.3848 7.8046 21.3865C7.87387 21.3881 7.9316 21.365 7.98108 21.3189C8.03056 21.271 8.05694 21.2133 8.05859 21.1457C8.05859 21.0781 8.03715 21.0203 7.98932 20.9708C7.94149 20.9214 7.88377 20.8966 7.81615 20.895C7.74852 20.8933 7.68915 20.9164 7.63967 20.9626C7.59019 21.0104 7.56545 21.0665 7.5638 21.1358Z" fill="#16BDB7"/>
<path d="M15.1094 17.8487C15.0483 17.8669 14.9939 17.8982 14.9461 17.9394C14.8982 17.979 14.8587 18.0285 14.8306 18.0846C14.8026 18.1406 14.7844 18.2 14.7795 18.2627C14.7745 18.3254 14.7828 18.388 14.8026 18.4474C14.8224 18.5068 14.8521 18.5612 14.8933 18.609C14.9345 18.6569 14.984 18.6948 15.0401 18.7228C15.0962 18.7525 15.1572 18.769 15.2199 18.774C15.2825 18.7789 15.3452 18.7707 15.4046 18.7509C15.4656 18.7327 15.52 18.7014 15.5679 18.6602C15.6157 18.6189 15.6553 18.5711 15.6833 18.515C15.713 18.459 15.7295 18.3996 15.7344 18.3369C15.7394 18.2742 15.7311 18.2116 15.7113 18.1522C15.6932 18.0928 15.6619 18.0384 15.6206 17.9906C15.5794 17.9427 15.5299 17.9048 15.4738 17.8767C15.4178 17.8471 15.3567 17.8306 15.2941 17.8256C15.2314 17.8207 15.1687 17.8289 15.1094 17.8487Z" fill="#16BDB7"/>
<path d="M16.9318 24.253C16.9302 24.3288 16.9417 24.4014 16.9681 24.474C16.9961 24.5449 17.0357 24.6076 17.0869 24.6636C17.1396 24.7197 17.2007 24.7626 17.2699 24.7939C17.3408 24.8253 17.4134 24.8434 17.4909 24.8451C17.5668 24.8484 17.641 24.8352 17.7119 24.8088C17.7845 24.7824 17.8488 24.7428 17.9049 24.6917C17.961 24.6389 18.0039 24.5779 18.0352 24.5086C18.0682 24.4393 18.0847 24.3668 18.088 24.2909C18.0896 24.215 18.0781 24.1408 18.0517 24.0699C18.0237 23.999 17.9841 23.9363 17.9313 23.8802C17.8802 23.8241 17.8191 23.7813 17.7482 23.7499C17.679 23.7186 17.6064 23.7004 17.5289 23.6988C17.453 23.6955 17.3788 23.707 17.3062 23.7351C17.2353 23.7615 17.171 23.801 17.1149 23.8522C17.0588 23.905 17.0159 23.9643 16.9829 24.0336C16.9516 24.1029 16.9351 24.1771 16.9318 24.253Z" fill="#16BDB7"/>
<path d="M15.0269 11.1031C14.9049 11.1245 14.7911 11.169 14.6855 11.235C14.5816 11.301 14.4942 11.3851 14.4216 11.4857C14.3507 11.588 14.3029 11.6985 14.2748 11.8189C14.2484 11.9393 14.2451 12.0613 14.2666 12.1817C14.288 12.3038 14.3325 12.4159 14.4002 12.5215C14.4661 12.6254 14.5503 12.7128 14.6525 12.7837C14.7548 12.8546 14.8653 12.9025 14.9873 12.9288C15.1077 12.9569 15.2298 12.9585 15.3518 12.9371C15.4739 12.9156 15.5877 12.8728 15.6932 12.8051C15.7971 12.7392 15.8845 12.6551 15.9571 12.5545C16.028 12.4538 16.0775 12.3433 16.1039 12.2213C16.1303 12.1009 16.1336 11.9805 16.1121 11.8584C16.0907 11.738 16.0462 11.6242 15.9786 11.5203C15.9126 11.4164 15.8285 11.329 15.7262 11.2581C15.6256 11.1872 15.5134 11.1377 15.3914 11.1113C15.271 11.0849 15.149 11.0816 15.0269 11.1031Z" fill="#16BDB7"/>
<path d="M14.0788 13.0345C13.96 13.0757 13.8545 13.14 13.7621 13.2242C13.6698 13.3083 13.5972 13.4072 13.5444 13.5194C13.4916 13.6332 13.462 13.7519 13.457 13.8756C13.4521 14.001 13.4702 14.1214 13.5131 14.2385C13.556 14.3556 13.6203 14.4611 13.7044 14.5519C13.7885 14.6442 13.8875 14.7168 14.0013 14.7696C14.1151 14.8223 14.2355 14.852 14.3608 14.857C14.4862 14.8619 14.6066 14.8438 14.7253 14.8009C14.8424 14.758 14.948 14.6953 15.0403 14.6112C15.1327 14.5271 15.2053 14.4282 15.258 14.3144C15.3125 14.2022 15.3405 14.0835 15.3471 13.9581C15.3521 13.8344 15.3339 13.7124 15.291 13.5953C15.2481 13.4782 15.1838 13.3742 15.0997 13.2819C15.0139 13.1895 14.915 13.1186 14.8012 13.0658C14.6874 13.0131 14.5686 12.9834 14.4433 12.9784C14.3179 12.9718 14.1959 12.9916 14.0788 13.0345Z" fill="#16BDB7"/>
<path d="M16.5197 20.5289C16.4504 20.5388 16.3861 20.5619 16.325 20.5965C16.2657 20.6312 16.2145 20.6774 16.1733 20.7318C16.1304 20.7879 16.1007 20.8489 16.0842 20.9165C16.0661 20.9825 16.0628 21.0501 16.0727 21.1194C16.0826 21.1886 16.104 21.2513 16.1403 21.3123C16.175 21.3717 16.2211 21.4212 16.2772 21.4641C16.3333 21.5053 16.3943 21.535 16.4619 21.5515C16.5296 21.5696 16.5972 21.5729 16.6665 21.563C16.7357 21.5531 16.8 21.53 16.8611 21.4954C16.9204 21.4608 16.9716 21.4146 17.0128 21.3602C17.0557 21.3041 17.0854 21.2431 17.1019 21.1754C17.12 21.1095 17.1233 21.0419 17.1134 20.9726C17.1035 20.905 17.0821 20.8406 17.0458 20.7796C17.0112 20.7202 16.965 20.6708 16.9089 20.6279C16.8528 20.5866 16.7918 20.557 16.7242 20.5405C16.6566 20.5223 16.5889 20.519 16.5197 20.5289Z" fill="#16BDB7"/>
<path d="M15.4295 24.4673C15.347 24.4789 15.2695 24.5069 15.1986 24.5481C15.126 24.591 15.065 24.6438 15.0155 24.7114C14.966 24.7774 14.9298 24.85 14.91 24.9308C14.8885 25.0099 14.8836 25.0908 14.8951 25.1732C14.9067 25.2557 14.9347 25.3316 14.9759 25.4041C15.0188 25.475 15.0733 25.5344 15.1409 25.5855C15.2068 25.635 15.2811 25.6697 15.3619 25.6911C15.4427 25.7109 15.5235 25.7158 15.606 25.7043C15.6884 25.6927 15.766 25.6664 15.8369 25.6235C15.9094 25.5806 15.9705 25.5278 16.02 25.4618C16.0711 25.3942 16.1057 25.3217 16.1272 25.2408C16.1469 25.1617 16.1519 25.0809 16.1404 24.9984C16.1288 24.9159 16.1024 24.8401 16.0595 24.7691C16.0167 24.6966 15.9622 24.6372 15.8963 24.5861C15.8286 24.5366 15.7561 24.502 15.6752 24.4805C15.5944 24.4607 15.512 24.4558 15.4295 24.4673Z" fill="#16BDB7"/>
<path d="M15.0138 10.0062C15.0138 10.1266 15.0368 10.2437 15.083 10.3542C15.1292 10.4664 15.1952 10.5654 15.2809 10.6511C15.3667 10.7352 15.4657 10.8012 15.5778 10.8474C15.6916 10.8936 15.8071 10.9167 15.9291 10.9167C16.0512 10.9167 16.1683 10.8936 16.2804 10.8474C16.3926 10.8012 16.4915 10.7352 16.5773 10.6511C16.6631 10.5654 16.729 10.4664 16.7752 10.3542C16.8214 10.2437 16.8445 10.1266 16.8445 10.0062C16.8445 9.88584 16.8214 9.76874 16.7752 9.65824C16.729 9.54609 16.6631 9.44713 16.5773 9.36136C16.4915 9.27725 16.3926 9.21128 16.2804 9.1651C16.1683 9.11892 16.0512 9.09583 15.9291 9.09583C15.8071 9.09583 15.6916 9.11892 15.5778 9.1651C15.4657 9.21128 15.3667 9.27725 15.2809 9.36136C15.1952 9.44713 15.1292 9.54609 15.083 9.65824C15.0368 9.76874 15.0138 9.88584 15.0138 10.0062Z" fill="#16BDB7"/>
<path d="M7.3297 17.5337C7.27198 17.542 7.21755 17.5618 7.16642 17.5914C7.11529 17.6211 7.07241 17.6591 7.03778 17.7052C7.00149 17.7531 6.97675 17.8042 6.96191 17.8619C6.94706 17.918 6.94377 17.9757 6.95201 18.0335C6.96026 18.0912 6.98005 18.1456 7.00974 18.1967C7.03942 18.2462 7.07901 18.2891 7.12519 18.3254C7.17302 18.36 7.22415 18.3848 7.28187 18.3996C7.3396 18.4144 7.39732 18.4177 7.45505 18.4095C7.51278 18.4012 7.5672 18.3815 7.61833 18.3518C7.66946 18.3221 7.71234 18.2841 7.74863 18.238C7.78326 18.1901 7.808 18.139 7.82284 18.0813C7.83769 18.0252 7.84099 17.9675 7.83274 17.9098C7.82449 17.852 7.80635 17.7976 7.77501 17.7465C7.74533 17.697 7.70739 17.6541 7.65956 17.6178C7.61338 17.5832 7.56061 17.5585 7.50288 17.5436C7.4468 17.5288 7.38908 17.5255 7.3297 17.5337Z" fill="#16BDB7"/>
<path d="M10.1997 18.9686C10.1634 19.0263 10.1403 19.089 10.1288 19.1566C10.1173 19.2242 10.1189 19.2919 10.1354 19.3595C10.1502 19.4254 10.1783 19.4865 10.2179 19.5425C10.2574 19.5986 10.3069 19.6448 10.3663 19.6811C10.424 19.7174 10.4883 19.7405 10.556 19.752C10.6236 19.7636 10.6912 19.7619 10.7588 19.7454C10.8265 19.7306 10.8875 19.7025 10.9436 19.6629C10.9996 19.6234 11.0458 19.5739 11.0821 19.5162C11.12 19.4568 11.1431 19.3941 11.1547 19.3265C11.1662 19.2589 11.1646 19.1912 11.1481 19.1253C11.1332 19.0577 11.1052 18.9966 11.064 18.9406C11.0244 18.8845 10.9749 18.8399 10.9172 18.8037C10.8578 18.7674 10.7951 18.7426 10.7275 18.7311C10.6582 18.7212 10.5906 18.7228 10.5246 18.7377C10.457 18.7542 10.3943 18.7806 10.3383 18.8218C10.2822 18.8614 10.236 18.9109 10.1997 18.9686Z" fill="#16BDB7"/>
<path d="M8.562 23.9363C8.51582 24.0072 8.48613 24.0864 8.47294 24.1705C8.4581 24.2546 8.46139 24.3387 8.47954 24.4228C8.49933 24.5053 8.53396 24.5812 8.58509 24.6521C8.63457 24.7214 8.6956 24.7791 8.76816 24.8236C8.84238 24.8681 8.92155 24.8978 9.00566 24.9127C9.08978 24.9259 9.17554 24.9242 9.25801 24.9044C9.34212 24.8846 9.41964 24.85 9.48891 24.8005C9.55983 24.751 9.61756 24.69 9.66209 24.6174C9.70827 24.5449 9.73796 24.4674 9.75115 24.3816C9.76599 24.2975 9.7627 24.2134 9.74455 24.1309C9.72476 24.0468 9.69013 23.9709 9.639 23.9017C9.58952 23.8324 9.52849 23.7747 9.45592 23.7301C9.38171 23.6839 9.30254 23.6543 9.21842 23.6411C9.13431 23.6262 9.04855 23.6295 8.96608 23.6493C8.88197 23.6674 8.80445 23.7021 8.73518 23.7516C8.66426 23.801 8.60653 23.8637 8.562 23.9363Z" fill="#16BDB7"/>
<path d="M9.99509 16.4418C9.9621 16.493 9.94231 16.549 9.93241 16.6084C9.92252 16.6678 9.92417 16.7255 9.93736 16.7849C9.95056 16.8443 9.9753 16.897 10.0099 16.9465C10.0462 16.9944 10.0891 17.0356 10.1402 17.0669C10.1914 17.0999 10.2474 17.1197 10.3068 17.1296C10.3662 17.1395 10.4256 17.1378 10.4849 17.1246C10.5443 17.1098 10.5971 17.0867 10.6466 17.0521C10.696 17.0158 10.7373 16.9729 10.7686 16.9218C10.8016 16.8707 10.8214 16.8162 10.8313 16.7569C10.8412 16.6975 10.8395 16.6381 10.8263 16.5804C10.8131 16.521 10.7884 16.4666 10.7538 16.4187C10.7175 16.3693 10.6746 16.3297 10.6235 16.2967C10.5723 16.2654 10.5163 16.2439 10.4569 16.234C10.3975 16.2241 10.3381 16.2274 10.2788 16.2406C10.2194 16.2538 10.1666 16.2786 10.1171 16.3132C10.0677 16.3478 10.0264 16.3907 9.99509 16.4418Z" fill="#16BDB7"/>
<path d="M9.73292 21.5103C9.69168 21.5762 9.66364 21.6455 9.6521 21.723C9.6389 21.7989 9.6422 21.8731 9.6587 21.949C9.67684 22.0232 9.70818 22.0925 9.75271 22.1551C9.79724 22.2178 9.85331 22.2706 9.91929 22.3102C9.98526 22.3514 10.0562 22.3778 10.132 22.391C10.2079 22.4025 10.2854 22.4009 10.3597 22.3827C10.4355 22.3662 10.5048 22.3349 10.5675 22.2904C10.6318 22.2458 10.6829 22.1898 10.7241 22.1254C10.7654 22.0595 10.7918 21.9885 10.805 21.9127C10.8182 21.8368 10.8149 21.7609 10.7967 21.6867C10.7802 21.6109 10.7489 21.5416 10.7044 21.4789C10.6582 21.4162 10.6037 21.3651 10.5378 21.3239C10.4718 21.2843 10.4009 21.2563 10.3234 21.2447C10.2475 21.2315 10.1716 21.2348 10.0958 21.2513C10.0199 21.2695 9.95062 21.3008 9.88795 21.3453C9.82528 21.3899 9.77415 21.4443 9.73292 21.5103Z" fill="#16BDB7"/>
<path d="M9.38332 10.5225C9.30415 10.5885 9.23983 10.6677 9.192 10.76C9.14417 10.8507 9.11613 10.948 9.10623 11.0503C9.09799 11.1542 9.10953 11.2548 9.14087 11.3521C9.17221 11.4511 9.22004 11.5401 9.28766 11.6193C9.35363 11.6985 9.4328 11.7611 9.52516 11.809C9.61752 11.8568 9.71483 11.8848 9.81873 11.8947C9.92264 11.903 10.0232 11.8931 10.1222 11.8617C10.2212 11.8304 10.3102 11.7809 10.391 11.715C10.4702 11.649 10.5345 11.5698 10.5824 11.4775C10.6302 11.3867 10.6582 11.2894 10.6665 11.1872C10.6764 11.0833 10.6648 10.9827 10.6335 10.8854C10.6022 10.7864 10.5543 10.6973 10.4867 10.6182C10.4207 10.539 10.3416 10.4763 10.2492 10.4285C10.1568 10.3807 10.0595 10.3526 9.95563 10.3427C9.85172 10.3345 9.75111 10.3444 9.65215 10.3757C9.5532 10.4071 9.46248 10.4565 9.38332 10.5225Z" fill="#16BDB7"/>
<path d="M9.6584 12.6684C9.59243 12.741 9.56109 12.8267 9.56604 12.9257C9.56934 13.0246 9.60892 13.1071 9.68314 13.1731C9.75571 13.2407 9.84312 13.2704 9.94208 13.2671C10.041 13.2621 10.1252 13.2226 10.1911 13.15C10.2587 13.0758 10.2901 12.99 10.2851 12.891C10.2802 12.7921 10.2423 12.7096 10.168 12.6436C10.0938 12.5777 10.0081 12.5463 9.9091 12.5513C9.80849 12.5546 9.72602 12.5942 9.6584 12.6684Z" fill="#16BDB7"/>
<path d="M9.14899 14.0652C9.09126 14.1559 9.07477 14.2548 9.09951 14.3588C9.12425 14.4643 9.18197 14.5451 9.27433 14.6012C9.36504 14.6589 9.464 14.6754 9.56956 14.6507C9.67511 14.6259 9.75593 14.5682 9.81366 14.4775C9.87138 14.3851 9.88787 14.2878 9.86313 14.1823C9.8384 14.0784 9.78067 13.9976 9.68831 13.9398C9.5976 13.8838 9.49864 13.8673 9.39308 13.8904C9.28753 13.9151 9.20671 13.9728 9.14899 14.0652Z" fill="#16BDB7"/>
<path d="M8.41681 18.3418C8.40361 18.4045 8.40361 18.4672 8.41516 18.5299C8.4267 18.5925 8.44979 18.6502 8.48443 18.703C8.51906 18.7575 8.5636 18.802 8.61637 18.8383C8.66915 18.8746 8.72688 18.8993 8.78955 18.9125C8.85222 18.9257 8.91655 18.9257 8.97922 18.9141C9.04189 18.9026 9.09962 18.8795 9.15405 18.8449C9.20847 18.8102 9.25301 18.7657 9.28929 18.7129C9.32557 18.6601 9.35031 18.6024 9.36351 18.5414C9.3767 18.4787 9.37835 18.416 9.36516 18.3534C9.35361 18.2907 9.33052 18.233 9.29589 18.1785C9.26125 18.1258 9.21672 18.0812 9.16394 18.045C9.11117 18.0087 9.05344 17.9839 8.99077 17.9707C8.92809 17.9575 8.86542 17.9559 8.8011 17.9674C8.73842 17.9806 8.6807 18.0037 8.62627 18.0384C8.57184 18.073 8.52731 18.1159 8.49103 18.1687C8.45474 18.2214 8.43 18.2792 8.41681 18.3418Z" fill="#16BDB7"/>
<path d="M9.19688 17.4431C9.17379 17.5008 9.16225 17.5602 9.16225 17.6229C9.16389 17.6855 9.17544 17.7449 9.20018 17.8026C9.22492 17.8604 9.25955 17.9115 9.30409 17.9544C9.35027 17.9989 9.40139 18.0319 9.45912 18.055C9.5185 18.0781 9.57787 18.0896 9.64054 18.0896C9.70322 18.088 9.76424 18.0764 9.82197 18.0517C9.87969 18.0269 9.93082 17.9923 9.9737 17.9478C10.0182 17.9032 10.0529 17.8521 10.076 17.7944C10.0991 17.7367 10.1106 17.6756 10.1106 17.613C10.1089 17.5519 10.0974 17.4909 10.0727 17.4332C10.0479 17.3771 10.0133 17.326 9.96876 17.2815C9.92258 17.2386 9.87145 17.2056 9.81372 17.1808C9.75435 17.1578 9.69497 17.1462 9.6323 17.1479C9.56962 17.1479 9.5086 17.1611 9.45087 17.1858C9.39315 17.2089 9.34202 17.2435 9.29914 17.2881C9.25461 17.3326 9.21997 17.3837 9.19688 17.4431Z" fill="#16BDB7"/>
<path d="M7.15326 26.1183C7.10543 26.1959 7.09389 26.2783 7.11533 26.3657C7.13677 26.4531 7.18625 26.5208 7.26376 26.567C7.34128 26.6131 7.42375 26.6263 7.51116 26.6049C7.60022 26.5834 7.6662 26.534 7.71402 26.4581C7.76021 26.3806 7.7734 26.2981 7.75196 26.2107C7.73052 26.1233 7.68104 26.0573 7.60352 26.0095C7.526 25.9633 7.44354 25.9501 7.35613 25.9716C7.26706 25.993 7.19944 26.0425 7.15326 26.1183Z" fill="#16BDB7"/>
<path d="M6.91916 21.2348C6.84659 21.2463 6.78721 21.2809 6.74433 21.3403C6.6998 21.3997 6.68331 21.4657 6.69485 21.5399C6.7064 21.6125 6.74103 21.6702 6.80206 21.7147C6.86143 21.7576 6.9274 21.7741 7.00162 21.7625C7.07419 21.751 7.13357 21.7164 7.17645 21.657C7.22098 21.5976 7.23747 21.5316 7.22593 21.4591C7.21438 21.3849 7.17975 21.3271 7.12037 21.2842C7.05935 21.2397 6.99337 21.2232 6.91916 21.2348Z" fill="#16BDB7"/>
<path d="M6.70635 22.9269C6.7047 23.0078 6.73109 23.0787 6.78717 23.1364C6.84489 23.1958 6.91251 23.2255 6.99498 23.2271C7.0758 23.2288 7.14672 23.2024 7.20609 23.1463C7.26382 23.0902 7.29515 23.021 7.2968 22.9401C7.29845 22.8593 7.27206 22.7901 7.21434 22.7307C7.15826 22.673 7.08899 22.6416 7.00817 22.64C6.92571 22.6383 6.85644 22.6647 6.79706 22.7208C6.73769 22.7769 6.708 22.8461 6.70635 22.9269Z" fill="#16BDB7"/>
<path d="M7.60357 24.3288C7.57388 24.4064 7.57553 24.4822 7.60852 24.5565C7.6415 24.6307 7.69758 24.6834 7.77345 24.7131C7.85097 24.7428 7.92683 24.7412 8.0027 24.7082C8.07857 24.6769 8.13135 24.6208 8.16104 24.5449C8.19072 24.469 8.18907 24.3932 8.15609 24.319C8.1231 24.2431 8.06703 24.1903 7.99116 24.1606C7.91364 24.1309 7.83777 24.1326 7.7619 24.1656C7.68604 24.1986 7.63326 24.253 7.60357 24.3288Z" fill="#16BDB7"/>
<path d="M7.72411 22.6549C7.70926 22.7274 7.72246 22.7951 7.76369 22.8577C7.80492 22.9188 7.86265 22.9583 7.93687 22.9732C8.01109 22.9864 8.07871 22.9732 8.14138 22.932C8.2024 22.8907 8.24199 22.8346 8.25683 22.7604C8.27168 22.6879 8.25683 22.6202 8.2156 22.5576C8.17437 22.4965 8.11664 22.4586 8.04242 22.4438C7.96985 22.4289 7.90058 22.4421 7.83956 22.4833C7.77688 22.5246 7.7373 22.5823 7.72411 22.6549Z" fill="#16BDB7"/>
<path d="M9.1819 19.7933C9.15551 19.8593 9.14231 19.9269 9.14396 19.9962C9.14396 20.0671 9.15881 20.1331 9.18684 20.199C9.21323 20.2634 9.25282 20.3194 9.3023 20.3689C9.35342 20.4184 9.41115 20.4547 9.47712 20.4811C9.54144 20.5075 9.61072 20.5206 9.67999 20.5206C9.75091 20.519 9.81853 20.5058 9.8845 20.4778C9.94882 20.4497 10.0065 20.4118 10.0544 20.3607C10.1039 20.3112 10.1418 20.2535 10.1682 20.1891C10.1946 20.1232 10.2078 20.0555 10.2078 19.9863C10.2061 19.9154 10.1929 19.8494 10.1649 19.7834C10.1368 19.7191 10.0989 19.663 10.0478 19.6135C9.99665 19.564 9.93893 19.5278 9.8746 19.5014C9.80863 19.475 9.74101 19.4618 9.67009 19.4618C9.59917 19.4634 9.53155 19.4766 9.46723 19.5047C9.4029 19.5327 9.34518 19.5706 9.2957 19.6218C9.24622 19.6713 9.20829 19.729 9.1819 19.7933Z" fill="#16BDB7"/>
<path d="M8.51896 22.1519C8.48928 22.2228 8.47608 22.2986 8.47608 22.3762C8.47608 22.4537 8.49257 22.5279 8.52391 22.6005C8.5536 22.6714 8.59648 22.7341 8.65256 22.7901C8.70863 22.8446 8.77296 22.8858 8.84552 22.9138C8.91809 22.9435 8.99396 22.9584 9.07148 22.9567C9.15065 22.9567 9.22486 22.9402 9.29743 22.9105C9.37 22.8792 9.43268 22.8363 9.4871 22.7819C9.54318 22.7258 9.58441 22.6615 9.6141 22.5889C9.64214 22.518 9.65698 22.4421 9.65698 22.3646C9.65533 22.2871 9.64049 22.2129 9.60915 22.1403C9.57782 22.0694 9.53493 22.0067 9.47886 21.9523C9.42278 21.8979 9.36011 21.855 9.28754 21.8269C9.21497 21.7973 9.1391 21.7824 9.05993 21.7841C8.98242 21.7841 8.90655 21.8006 8.83563 21.8302C8.76306 21.8616 8.70039 21.9045 8.64431 21.9589C8.58988 22.015 8.54865 22.0793 8.51896 22.1519Z" fill="#16BDB7"/>
<path d="M8.19732 20.5586C8.18248 20.6278 8.18083 20.6971 8.19402 20.7664C8.20722 20.8373 8.23361 20.9016 8.27154 20.961C8.31112 21.0204 8.35895 21.0698 8.41833 21.1094C8.4777 21.149 8.54203 21.1771 8.6113 21.1919C8.68057 21.2067 8.74984 21.2067 8.82076 21.1935C8.89003 21.1803 8.956 21.1556 9.01538 21.116C9.07475 21.0781 9.12423 21.0303 9.16546 20.9709C9.20505 20.9132 9.23309 20.8488 9.24793 20.7796C9.26277 20.7103 9.26277 20.641 9.24958 20.5718C9.23638 20.5025 9.21164 20.4365 9.17206 20.3771C9.13413 20.3178 9.08465 20.2683 9.02527 20.2287C8.96755 20.1891 8.90322 20.1611 8.83395 20.1462C8.76303 20.1314 8.69376 20.1314 8.62449 20.1446C8.55357 20.1578 8.48925 20.1825 8.42987 20.2221C8.36885 20.26 8.31937 20.3095 8.27979 20.3672C8.23856 20.425 8.21217 20.4893 8.19732 20.5586Z" fill="#16BDB7"/>
<mask id="mask5_63_432" style="mask-type:luminance" maskUnits="userSpaceOnUse" x="0" y="35" width="2" height="3">
<path d="M1.32642 35.4666H0.500115V37.6667H1.32642V35.4666Z" fill="white"/>
</mask>
<g mask="url(#mask5_63_432)">
<path d="M1.0394 36.7299C1.046 36.527 1.00147 36.3357 0.905807 36.1576C0.810147 35.9778 0.674904 35.836 0.501727 35.7288V37.6551C0.663359 37.5562 0.792005 37.4242 0.887665 37.2593C0.981675 37.096 1.0328 36.9196 1.0394 36.7299Z" fill="#16BDB7"/>
</g>
<mask id="mask6_63_432" style="mask-type:luminance" maskUnits="userSpaceOnUse" x="0" y="31" width="1" height="2">
<path d="M0.904053 31.6666H0.499973V32.9333H0.904053V31.6666Z" fill="white"/>
</mask>
<g mask="url(#mask6_63_432)">
<path d="M0.557754 32.0575C0.54126 32.0295 0.523118 32.0014 0.501677 31.9767V32.6364C0.569299 32.5556 0.608882 32.4616 0.618778 32.356C0.630323 32.2505 0.608882 32.1515 0.557754 32.0575Z" fill="#16BDB7"/>
</g>
<mask id="mask7_63_432" style="mask-type:luminance" maskUnits="userSpaceOnUse" x="0" y="4" width="2" height="3">
<path d="M1.32642 4.64429H0.500115V6.33317H1.32642V4.64429Z" fill="white"/>
</mask>
<g mask="url(#mask7_63_432)">
<path d="M0.501747 5.07152V6.08749C0.577615 6.10233 0.653483 6.10069 0.729351 6.08089C0.805219 6.06275 0.872841 6.02812 0.933865 5.98029C0.993241 5.93081 1.04107 5.87143 1.07406 5.80051C1.10704 5.73124 1.12354 5.65702 1.12354 5.57951C1.12354 5.50199 1.10704 5.42777 1.07406 5.3585C1.04107 5.28758 0.993241 5.2282 0.933865 5.17872C0.872841 5.13089 0.805219 5.09626 0.729351 5.07812C0.653483 5.05833 0.577615 5.05668 0.501747 5.07152Z" fill="#16BDB7"/>
</g>
<mask id="mask8_63_432" style="mask-type:luminance" maskUnits="userSpaceOnUse" x="0" y="28" width="1" height="2">
<path d="M0.904053 28.2888H0.499973V29.5555H0.904053V28.2888Z" fill="white"/>
</mask>
<g mask="url(#mask8_63_432)">
<path d="M0.763938 29.2916C0.803521 29.2273 0.82826 29.1547 0.836507 29.0789C0.844754 29.0014 0.836507 28.9271 0.811768 28.8546C0.785379 28.782 0.745795 28.7177 0.691368 28.6632C0.636941 28.6072 0.574268 28.5659 0.501698 28.5396V29.5077C0.613851 29.4665 0.701264 29.3939 0.763938 29.2916Z" fill="#16BDB7"/>
</g>
<path d="M1.23727 6.40588C1.1812 6.45371 1.13667 6.50814 1.10368 6.57246C1.06905 6.63679 1.04925 6.70606 1.04266 6.77863C1.03771 6.8512 1.04431 6.92212 1.0674 6.99139C1.08884 7.06066 1.12347 7.12168 1.16965 7.17776C1.21748 7.23384 1.27356 7.27837 1.33788 7.31135C1.4022 7.34599 1.47148 7.36578 1.54404 7.37238C1.61661 7.37732 1.68753 7.37073 1.75845 7.34929C1.82773 7.3262 1.8904 7.29321 1.94648 7.24538C2.00255 7.1992 2.04708 7.14312 2.08007 7.0788C2.1147 7.01448 2.1345 6.94686 2.14109 6.87429C2.14769 6.80172 2.13944 6.7308 2.118 6.66153C2.09491 6.59226 2.06028 6.52958 2.0141 6.47351C1.96627 6.41908 1.91184 6.37455 1.84587 6.33991C1.78154 6.30693 1.71227 6.28714 1.6397 6.28054C1.56713 6.27394 1.49622 6.28219 1.42694 6.30363C1.35602 6.32507 1.29335 6.3597 1.23727 6.40588Z" fill="#16BDB7"/>
<path d="M1.97948 2.3733C1.91185 2.38649 1.84753 2.40958 1.78816 2.44752C1.73043 2.48545 1.68095 2.53163 1.64137 2.58936C1.60014 2.64543 1.57375 2.70811 1.5589 2.77573C1.54241 2.84335 1.54076 2.91097 1.55395 2.97859C1.5655 3.04786 1.59024 3.11054 1.62817 3.16991C1.66611 3.22764 1.71229 3.27712 1.77001 3.3167C1.82609 3.35628 1.88876 3.38432 1.95803 3.39917C2.02566 3.41401 2.09328 3.41566 2.16255 3.40411C2.23017 3.39092 2.29449 3.36618 2.35387 3.3299C2.41159 3.29196 2.46107 3.24578 2.50066 3.18806C2.54189 3.13198 2.56828 3.06931 2.58312 3.00168C2.59961 2.93406 2.59961 2.86644 2.58807 2.79717C2.57652 2.72955 2.55178 2.66688 2.51385 2.6075C2.47592 2.54977 2.42974 2.5003 2.37201 2.46071C2.31428 2.42113 2.25326 2.39309 2.18399 2.37825C2.11637 2.3634 2.04875 2.36175 1.97948 2.3733Z" fill="#16BDB7"/>
<path d="M6.83838 6.73732C6.75921 6.7835 6.69159 6.84288 6.63551 6.9138C6.58108 6.98637 6.5415 7.06719 6.51676 7.1546C6.49367 7.24201 6.48707 7.33107 6.50027 7.42179C6.51181 7.5125 6.53985 7.59661 6.58603 7.67578C6.63221 7.75495 6.69159 7.82092 6.76416 7.87699C6.83673 7.93307 6.91754 7.97265 7.00496 7.99574C7.09402 8.01883 7.18308 8.02543 7.27379 8.01389C7.3645 8.00069 7.45027 7.97265 7.52943 7.92647C7.6086 7.88194 7.67622 7.82257 7.7323 7.75C7.78838 7.67908 7.82796 7.59826 7.85105 7.51085C7.87414 7.42179 7.88074 7.33272 7.86919 7.24366C7.856 7.15295 7.82796 7.06883 7.78178 6.98967C7.7356 6.9105 7.67622 6.84288 7.60365 6.78845C7.53108 6.73238 7.45192 6.69279 7.36285 6.6697C7.27379 6.64661 7.18473 6.64002 7.09402 6.65156C7.00331 6.66311 6.91754 6.69279 6.83838 6.73732Z" fill="#16BDB7"/>
<path d="M2.63758 33.9196C2.50069 33.9377 2.37369 33.9822 2.25494 34.0515C2.13619 34.1224 2.03558 34.2115 1.95312 34.3203C1.869 34.4308 1.81128 34.5512 1.77664 34.6848C1.74201 34.8168 1.73541 34.9504 1.75355 35.0873C1.77334 35.2225 1.81787 35.3495 1.88879 35.4666C1.95806 35.5854 2.04878 35.686 2.15928 35.7684C2.26813 35.8509 2.39018 35.9086 2.52378 35.9433C2.65737 35.9762 2.79261 35.9845 2.9295 35.9647C3.06475 35.9466 3.19339 35.902 3.31214 35.8311C3.43089 35.7618 3.5315 35.6728 3.61397 35.5623C3.69643 35.4534 3.75581 35.333 3.79044 35.1994C3.82343 35.0675 3.83167 34.9322 3.81188 34.797C3.79374 34.6618 3.74756 34.5348 3.67829 34.416C3.60737 34.2989 3.51831 34.1983 3.4078 34.1158C3.2973 34.0334 3.17525 33.9756 3.04166 33.941C2.90971 33.908 2.77447 33.8998 2.63758 33.9196Z" fill="#16BDB7"/>
<mask id="mask9_63_432" style="mask-type:luminance" maskUnits="userSpaceOnUse" x="0" y="32" width="3" height="3">
<path d="M2.1709 32.9332H0.500153V34.1999H2.1709V32.9332Z" fill="white"/>
</mask>
<g mask="url(#mask9_63_432)">
<path d="M1.16471 33.1541C1.10533 33.1756 1.0509 33.2053 1.00307 33.2481C0.955244 33.2894 0.91731 33.3389 0.889272 33.3949C0.861234 33.451 0.844741 33.5104 0.841442 33.5747C0.836494 33.6374 0.844741 33.6984 0.866182 33.7578C0.885973 33.8172 0.91731 33.8716 0.958543 33.9194C0.999775 33.9656 1.04925 34.0035 1.10698 34.0316C1.16306 34.0596 1.22408 34.0761 1.28675 34.0794C1.34943 34.0843 1.4121 34.0761 1.47148 34.0563C1.5325 34.0365 1.58528 34.0052 1.63311 33.9639C1.68094 33.9227 1.71887 33.8732 1.74691 33.8172C1.77495 33.7594 1.79144 33.7001 1.79474 33.6374C1.79969 33.5747 1.79144 33.512 1.77165 33.4527C1.75021 33.3933 1.71887 33.3405 1.67764 33.2927C1.63641 33.2448 1.58693 33.2069 1.5292 33.1789C1.47313 33.1508 1.41375 33.1343 1.34943 33.131C1.28675 33.1261 1.22408 33.1343 1.16471 33.1541Z" fill="#16BDB7"/>
</g>
<path d="M3.70445 5.5152C3.63518 5.55479 3.57581 5.60592 3.52633 5.67024C3.4785 5.73291 3.44221 5.80383 3.42242 5.88135C3.40098 5.95722 3.39603 6.03638 3.40593 6.11555C3.41748 6.19472 3.44222 6.26894 3.48345 6.33656C3.52303 6.40583 3.57416 6.4652 3.63848 6.51468C3.70281 6.56251 3.77208 6.59715 3.84959 6.61859C3.92711 6.63838 4.00628 6.64333 4.08544 6.63343C4.16626 6.62354 4.24048 6.59715 4.30975 6.55756C4.37902 6.51798 4.43839 6.46685 4.48787 6.40253C4.5357 6.33986 4.57034 6.26894 4.59178 6.19307C4.61157 6.11555 4.61817 6.03638 4.60662 5.95887C4.59673 5.8797 4.57199 5.80548 4.53076 5.73621C4.49117 5.66694 4.43839 5.60757 4.37572 5.55974C4.3114 5.51026 4.24048 5.47562 4.16296 5.45583C4.08544 5.43439 4.00793 5.42944 3.92711 5.43934C3.84794 5.45088 3.77373 5.47562 3.70445 5.5152Z" fill="#16BDB7"/>
<path d="M4.70413 1.86534C4.70413 1.94286 4.71897 2.01543 4.74701 2.08635C4.7767 2.15562 4.81958 2.21829 4.87236 2.27272C4.92679 2.3255 4.98946 2.36838 5.06038 2.39642C5.1313 2.4261 5.20387 2.44095 5.28139 2.44095C5.35725 2.44095 5.43147 2.4261 5.50239 2.39642C5.57331 2.36838 5.63434 2.3255 5.68876 2.27272C5.74319 2.21829 5.78442 2.15562 5.81411 2.08635C5.8438 2.01543 5.85864 1.94286 5.85864 1.86534C5.85864 1.78947 5.8438 1.7169 5.81411 1.64598C5.78442 1.57506 5.74319 1.51404 5.68876 1.45961C5.63434 1.40518 5.57331 1.36395 5.50239 1.33591C5.43147 1.30623 5.35725 1.29138 5.28139 1.29138C5.20387 1.29138 5.1313 1.30623 5.06038 1.33591C4.98946 1.36395 4.92679 1.40518 4.87236 1.45961C4.81958 1.51404 4.7767 1.57506 4.74701 1.64598C4.71897 1.7169 4.70413 1.78947 4.70413 1.86534Z" fill="#16BDB7"/>
<path d="M1.95638 7.66101C1.90855 7.71874 1.87227 7.78471 1.84918 7.85563C1.82609 7.9282 1.81784 8.00077 1.82444 8.07664C1.83104 8.15086 1.85248 8.22342 1.88711 8.2894C1.9234 8.35702 1.96958 8.41474 2.0273 8.46257C2.08503 8.5104 2.151 8.54669 2.22357 8.56978C2.29449 8.59122 2.36871 8.59947 2.44458 8.59287C2.52045 8.58627 2.59137 8.56648 2.65899 8.53184C2.72661 8.49721 2.78434 8.45103 2.83217 8.3933C2.88164 8.33558 2.91793 8.26961 2.93937 8.19869C2.96246 8.12612 2.97071 8.05355 2.96411 7.97768C2.95751 7.90181 2.93607 7.83089 2.90144 7.76492C2.8668 7.6973 2.82062 7.63957 2.76289 7.59174C2.70352 7.54391 2.6392 7.50763 2.56663 7.48454C2.49406 7.4631 2.41984 7.45485 2.34397 7.46145C2.26975 7.46804 2.19718 7.48783 2.13121 7.52247C2.06359 7.55711 2.00586 7.60329 1.95638 7.66101Z" fill="#16BDB7"/>
<path d="M6.54473 5.01872C6.46227 5.0484 6.38805 5.09293 6.32372 5.15231C6.25775 5.21168 6.20662 5.28096 6.17034 5.36012C6.13241 5.43929 6.11261 5.5234 6.10767 5.61082C6.10437 5.69823 6.11756 5.78399 6.14725 5.86646C6.17694 5.94892 6.22312 6.02149 6.28249 6.08747C6.34187 6.15179 6.41114 6.20292 6.49195 6.2392C6.57112 6.27714 6.65524 6.29693 6.7443 6.30023C6.83171 6.30517 6.91747 6.29198 6.99994 6.26229C7.0824 6.23095 7.15662 6.18642 7.2226 6.12705C7.28692 6.06932 7.33805 5.9984 7.37598 5.91924C7.41227 5.84007 7.43371 5.75595 7.43701 5.66854C7.4403 5.58113 7.42711 5.49701 7.39742 5.41455C7.36773 5.33208 7.32155 5.25787 7.26218 5.19354C7.2028 5.12922 7.13353 5.07809 7.05272 5.04016C6.97355 5.00387 6.88944 4.98243 6.80202 4.97913C6.71296 4.97583 6.6272 4.98903 6.54473 5.01872Z" fill="#16BDB7"/>
<path d="M6.05976 3.20455C5.97729 3.21939 5.90142 3.24908 5.8305 3.29361C5.76123 3.33814 5.70186 3.39422 5.65403 3.46184C5.6062 3.52946 5.57321 3.60368 5.55507 3.6845C5.53693 3.76531 5.53528 3.84778 5.55012 3.92859C5.56496 4.01106 5.59465 4.08528 5.63918 4.1562C5.68371 4.22547 5.73979 4.28484 5.80906 4.33267C5.87668 4.37885 5.9509 4.41184 6.03337 4.42998C6.11418 4.44812 6.19665 4.44977 6.27746 4.43493C6.35993 4.42173 6.4358 4.39205 6.50672 4.34752C6.57599 4.30298 6.63536 4.24691 6.68319 4.17929C6.73102 4.11166 6.76401 4.0358 6.78215 3.95498C6.80029 3.87416 6.80194 3.79335 6.7871 3.71253C6.77226 3.63007 6.74257 3.5542 6.69804 3.48493C6.65351 3.41401 6.59743 3.35628 6.52816 3.30845C6.46054 3.26062 6.38632 3.22764 6.30385 3.2095C6.22304 3.193 6.14222 3.1897 6.05976 3.20455Z" fill="#16BDB7"/>
<path d="M2.98204 3.96493C2.91112 3.99132 2.84679 4.02926 2.79072 4.08039C2.73464 4.13151 2.69176 4.19089 2.65877 4.26016C2.62743 4.32778 2.60929 4.40035 2.60599 4.47457C2.6027 4.55044 2.61424 4.62301 2.64063 4.69393C2.66537 4.76485 2.70495 4.82917 2.75608 4.8836C2.80721 4.93967 2.86658 4.9842 2.93585 5.01554C3.00513 5.04688 3.07605 5.06502 3.15191 5.06832C3.22778 5.07162 3.302 5.06007 3.37292 5.03533C3.44384 5.00894 3.50816 4.97101 3.56424 4.91988C3.61867 4.86875 3.6632 4.80938 3.69453 4.74011C3.72752 4.67249 3.74566 4.59992 3.74896 4.5257C3.75226 4.44983 3.74072 4.37726 3.71433 4.30634C3.68794 4.23542 3.65 4.1711 3.59888 4.11667C3.54775 4.06059 3.48672 4.01606 3.4191 3.98473C3.34983 3.95339 3.27726 3.93525 3.20139 3.93195C3.12553 3.92865 3.05296 3.94019 2.98204 3.96493Z" fill="#16BDB7"/>
<path d="M4.24069 7.00956C4.17801 7.06234 4.12688 7.12666 4.0873 7.19923C4.04937 7.27345 4.02628 7.35097 4.01968 7.43343C4.01143 7.5159 4.02133 7.59671 4.04607 7.67588C4.07081 7.75505 4.11039 7.82597 4.16482 7.89029C4.21759 7.95296 4.28192 8.00409 4.35449 8.04203C4.42871 8.07996 4.50787 8.10305 4.59034 8.1113C4.67445 8.11789 4.75527 8.10965 4.83443 8.08491C4.9136 8.05852 4.98617 8.02059 5.04884 7.96616C5.11317 7.91338 5.1643 7.85071 5.20223 7.77649C5.24181 7.70392 5.26325 7.62475 5.2715 7.54229C5.2781 7.45982 5.26985 7.37901 5.24511 7.30149C5.21872 7.22232 5.18079 7.14975 5.12636 7.08708C5.07358 7.02276 5.00926 6.97328 4.93504 6.93369C4.86082 6.89576 4.78331 6.87267 4.69919 6.86607C4.61673 6.85948 4.53591 6.86772 4.45674 6.89246C4.37593 6.9172 4.30501 6.95678 4.24069 7.00956Z" fill="#16BDB7"/>
<path d="M3.62377 36.1824C3.61883 36.3176 3.64027 36.4495 3.6881 36.5765C3.73593 36.7035 3.80685 36.8173 3.89921 36.9163C3.99322 37.0153 4.10207 37.0928 4.22577 37.1488C4.34947 37.2049 4.47976 37.2346 4.61666 37.2396C4.75355 37.2445 4.88549 37.2231 5.01249 37.1752C5.14113 37.1274 5.25494 37.0581 5.35389 36.9641C5.4545 36.8718 5.53202 36.7646 5.5881 36.6409C5.64582 36.5172 5.67551 36.3869 5.68046 36.2516C5.6854 36.1164 5.66396 35.9844 5.61613 35.8574C5.56665 35.7304 5.49738 35.6183 5.40337 35.5193C5.31101 35.4204 5.20216 35.3429 5.07681 35.2868C4.95311 35.2307 4.82282 35.1994 4.68593 35.1944C4.55068 35.1911 4.41874 35.2126 4.29009 35.2587C4.1631 35.3066 4.04929 35.3775 3.94869 35.4699C3.84973 35.5622 3.77056 35.6711 3.71449 35.7948C3.65841 35.9185 3.62707 36.0471 3.62377 36.1824Z" fill="#16BDB7"/>
<mask id="mask10_63_432" style="mask-type:luminance" maskUnits="userSpaceOnUse" x="0" y="29" width="2" height="2">
<path d="M1.74854 29.1333H0.500012V30.8222H1.74854V29.1333Z" fill="white"/>
</mask>
<g mask="url(#mask10_63_432)">
<path d="M0.829675 29.6677C0.786793 29.7171 0.753807 29.7732 0.732366 29.8359C0.710925 29.8986 0.702678 29.9629 0.705977 30.0289C0.710925 30.0948 0.727418 30.1575 0.757105 30.2169C0.786793 30.2746 0.826376 30.3274 0.875855 30.3703C0.926984 30.4148 0.98306 30.4461 1.04573 30.4676C1.10841 30.489 1.17273 30.4973 1.24035 30.494C1.30632 30.489 1.369 30.4725 1.42837 30.4428C1.48775 30.4148 1.54052 30.3752 1.58341 30.3257C1.62794 30.2746 1.66092 30.2185 1.68237 30.1575C1.70381 30.0948 1.71205 30.0305 1.7071 29.9645C1.70381 29.8986 1.68566 29.8359 1.65763 29.7765C1.62794 29.7171 1.58835 29.666 1.53723 29.6215C1.48775 29.5786 1.43167 29.5456 1.369 29.5242C1.30467 29.5027 1.24035 29.4945 1.17438 29.4994C1.10841 29.5027 1.04573 29.5192 0.984709 29.5489C0.925334 29.5786 0.874206 29.6182 0.829675 29.6677Z" fill="#16BDB7"/>
</g>
<path d="M14.8803 28.4175C14.877 28.5082 14.8919 28.5956 14.9232 28.6814C14.9562 28.7672 15.004 28.8414 15.0667 28.909C15.1277 28.975 15.2019 29.0277 15.2844 29.0657C15.3685 29.102 15.4559 29.1234 15.5466 29.1267C15.639 29.1283 15.7281 29.1152 15.8138 29.0822C15.8996 29.0508 15.9754 29.003 16.0431 28.942C16.109 28.8793 16.1618 28.8067 16.1998 28.7243C16.2377 28.6418 16.2575 28.5544 16.2608 28.4637C16.2641 28.373 16.2492 28.2839 16.2179 28.1998C16.1849 28.114 16.1371 28.0382 16.0761 27.9722C16.0134 27.9046 15.9392 27.8534 15.8567 27.8155C15.7726 27.7776 15.6852 27.7578 15.5945 27.7545C15.5021 27.7512 15.413 27.766 15.3273 27.7974C15.2415 27.8303 15.1656 27.8765 15.0997 27.9392C15.032 28.0002 14.9793 28.0728 14.9413 28.1569C14.9034 28.2394 14.8836 28.3268 14.8803 28.4175Z" fill="#16BDB7"/>
<path d="M14.7581 21.5498C14.6872 21.5728 14.6212 21.6091 14.5635 21.6586C14.5058 21.7064 14.4596 21.7658 14.4266 21.8318C14.392 21.8994 14.3722 21.9703 14.3656 22.0462C14.359 22.1204 14.3689 22.1946 14.392 22.2656C14.4151 22.3381 14.4514 22.4024 14.5008 22.4585C14.5503 22.5162 14.6097 22.5624 14.6773 22.5954C14.7449 22.6301 14.8159 22.6498 14.8917 22.6564C14.9676 22.6614 15.0402 22.6531 15.1127 22.6301C15.1853 22.607 15.2496 22.5707 15.3074 22.5212C15.3651 22.4717 15.4113 22.414 15.4459 22.3464C15.4805 22.2804 15.5003 22.2078 15.5069 22.1336C15.5119 22.0577 15.5036 21.9852 15.4805 21.9126C15.4558 21.8417 15.4195 21.7774 15.37 21.7196C15.3205 21.6619 15.2628 21.6174 15.1952 21.5827C15.1276 21.5481 15.0567 21.5283 14.9808 21.5234C14.9049 21.5168 14.8307 21.5267 14.7581 21.5498Z" fill="#16BDB7"/>
<path d="M13.6929 19.0396C13.6319 19.071 13.5808 19.1139 13.5362 19.1666C13.4917 19.2211 13.4604 19.2788 13.4406 19.3448C13.4208 19.4107 13.4142 19.4783 13.4208 19.546C13.4274 19.6136 13.4455 19.6779 13.4785 19.7389C13.5115 19.8 13.5544 19.8511 13.6071 19.8956C13.6599 19.9385 13.7209 19.9698 13.7869 19.9896C13.8529 20.0094 13.9189 20.0177 13.9881 20.0094C14.0574 20.0028 14.1217 19.9847 14.1828 19.9517C14.2438 19.9187 14.2966 19.8775 14.3394 19.8231C14.384 19.7703 14.4153 19.7109 14.4351 19.6466C14.4565 19.5806 14.4631 19.513 14.4565 19.4454C14.4499 19.3777 14.4301 19.3134 14.3972 19.2524C14.3658 19.1914 14.3229 19.1402 14.2685 19.0957C14.2157 19.0528 14.1564 19.0215 14.0904 19C14.0244 18.9803 13.9568 18.9737 13.8875 18.9803C13.8199 18.9869 13.7539 19.0066 13.6929 19.0396Z" fill="#16BDB7"/>
<path d="M16.3285 15.1225C16.1916 15.1472 16.0662 15.195 15.9508 15.2692C15.8337 15.3435 15.7364 15.4358 15.6572 15.548C15.578 15.6601 15.5236 15.7838 15.4939 15.9174C15.4642 16.051 15.4609 16.1846 15.4857 16.3198C15.5088 16.4551 15.5582 16.5804 15.6325 16.6959C15.7067 16.8113 15.799 16.9086 15.9128 16.9862C16.025 17.0653 16.1487 17.1198 16.2839 17.1494C16.4175 17.1791 16.5528 17.1824 16.6897 17.1577C16.8249 17.1346 16.9502 17.0851 17.0674 17.0126C17.1828 16.9383 17.2801 16.846 17.3593 16.7338C17.4384 16.6217 17.4929 16.498 17.5226 16.3644C17.5522 16.2308 17.5555 16.0955 17.5325 15.9619C17.5077 15.8267 17.4582 15.7014 17.3857 15.5859C17.3114 15.4705 17.2174 15.3731 17.1053 15.294C16.9915 15.2148 16.8678 15.162 16.7342 15.1323C16.5989 15.1027 16.4637 15.0994 16.3285 15.1225Z" fill="#16BDB7"/>
<path d="M13.4619 24.9935C13.3778 25.0215 13.3036 25.0627 13.236 25.1205C13.1684 25.1782 13.1156 25.2458 13.076 25.3233C13.0348 25.4008 13.0117 25.485 13.0051 25.5724C12.9985 25.6598 13.0084 25.7439 13.0364 25.828C13.0628 25.9105 13.1057 25.9863 13.1634 26.0523C13.2195 26.1199 13.2888 26.1727 13.3663 26.2123C13.4454 26.2519 13.5296 26.275 13.617 26.2816C13.7044 26.2882 13.7901 26.2783 13.8743 26.2519C13.9584 26.2238 14.0342 26.1826 14.1002 26.1249C14.1678 26.0672 14.2223 25.9995 14.2618 25.922C14.3014 25.8445 14.3245 25.7604 14.3311 25.673C14.3394 25.5856 14.3278 25.5014 14.3014 25.4173C14.2734 25.3349 14.2322 25.259 14.1744 25.193C14.1167 25.1254 14.0491 25.0726 13.9699 25.033C13.8908 24.9935 13.8083 24.9704 13.7209 24.9638C13.6318 24.9572 13.546 24.9671 13.4619 24.9935Z" fill="#16BDB7"/>
<mask id="mask11_63_432" style="mask-type:luminance" maskUnits="userSpaceOnUse" x="16" y="17" width="4" height="4">
<path d="M19.5 17.7333H16.9485V20.2666H19.5V17.7333Z" fill="white"/>
</mask>
<g mask="url(#mask11_63_432)">
<path d="M19.5 18.8614C19.4934 18.7641 19.4736 18.6701 19.4423 18.5777C19.4093 18.4854 19.3664 18.3996 19.312 18.3188C19.2592 18.238 19.1949 18.1654 19.1223 18.0994C19.0497 18.0351 18.9689 17.9807 18.8815 17.9362C18.7957 17.8916 18.7034 17.8603 18.6077 17.8389C18.5121 17.8174 18.4164 17.8092 18.3191 17.8125C18.2201 17.8158 18.1245 17.8323 18.0321 17.8603C17.9381 17.8883 17.849 17.9279 17.7666 17.979C17.6825 18.0285 17.6066 18.0896 17.539 18.1588C17.4714 18.2297 17.4136 18.3073 17.3658 18.3914C17.318 18.4771 17.2817 18.5662 17.2569 18.6602C17.2322 18.7542 17.219 18.8499 17.219 18.9472C17.219 19.0445 17.2322 19.1402 17.2569 19.2342C17.2817 19.3282 17.318 19.4172 17.3658 19.503C17.4136 19.5871 17.4714 19.6646 17.539 19.7339C17.6066 19.8048 17.6825 19.8642 17.7666 19.9153C17.849 19.9665 17.9381 20.006 18.0321 20.0341C18.1245 20.0621 18.2201 20.0786 18.3191 20.0819C18.4164 20.0852 18.5121 20.077 18.6077 20.0555C18.7034 20.0341 18.7957 20.0011 18.8815 19.9582C18.9689 19.9137 19.0497 19.8593 19.1223 19.7933C19.1949 19.729 19.2592 19.6564 19.312 19.5756C19.3664 19.4948 19.4093 19.4073 19.4423 19.3166C19.4736 19.2243 19.4934 19.1303 19.5 19.033V18.8614Z" fill="#16BDB7"/>
</g>
<path d="M16.6963 14.2368C16.6963 14.3737 16.7227 14.504 16.7755 14.6293C16.8266 14.7547 16.9008 14.8652 16.9981 14.9608C17.0938 15.0565 17.2059 15.1307 17.3313 15.1835C17.4583 15.2346 17.5886 15.261 17.7255 15.261C17.8624 15.261 17.9927 15.2346 18.1197 15.1835C18.245 15.1307 18.3572 15.0565 18.4528 14.9608C18.5501 14.8652 18.6243 14.7547 18.6755 14.6293C18.7282 14.504 18.7546 14.3737 18.7546 14.2368C18.7546 14.1016 18.7282 13.9713 18.6755 13.8459C18.6243 13.7206 18.5501 13.6101 18.4528 13.5144C18.3572 13.4187 18.245 13.3445 18.1197 13.2918C17.9927 13.2406 17.8624 13.2142 17.7255 13.2142C17.5886 13.2142 17.4583 13.2406 17.3313 13.2918C17.2059 13.3445 17.0938 13.4187 16.9981 13.5144C16.9008 13.6101 16.8266 13.7206 16.7755 13.8459C16.7227 13.9713 16.6963 14.1016 16.6963 14.2368Z" fill="#16BDB7"/>
<mask id="mask12_63_432" style="mask-type:luminance" maskUnits="userSpaceOnUse" x="0" y="0" width="3" height="3">
<path d="M2.1709 0H0.500153V2.53333H2.1709V0Z" fill="white"/>
</mask>
<g mask="url(#mask12_63_432)">
<path d="M0.501704 2.30892C0.58417 2.32376 0.666635 2.33036 0.750749 2.32541C0.833214 2.32211 0.91568 2.31057 0.996496 2.28913C1.07731 2.26769 1.15483 2.238 1.22905 2.20006C1.30327 2.16213 1.37089 2.11595 1.43521 2.06317C1.49953 2.00874 1.55726 1.94937 1.60839 1.8834C1.65952 1.81743 1.7024 1.74815 1.73703 1.67229C1.77332 1.59642 1.79971 1.5189 1.81785 1.43809C1.83599 1.35727 1.84424 1.2748 1.84424 1.19234C1.84424 1.10822 1.83599 1.02741 1.81785 0.946593C1.79971 0.864127 1.77332 0.78661 1.73703 0.710742C1.7024 0.636523 1.65952 0.565603 1.60839 0.499631C1.55726 0.433659 1.49953 0.374284 1.43521 0.321506C1.37089 0.268728 1.30327 0.222548 1.22905 0.184614C1.15483 0.145031 1.07731 0.115343 0.996496 0.0939022C0.91568 0.0741105 0.833214 0.0609159 0.750749 0.0576175C0.666635 0.0543186 0.58417 0.0592669 0.501704 0.0741105V2.30892Z" fill="#16BDB7"/>
</g>
<path d="M10.4585 30.8007C10.348 30.8172 10.2458 30.8519 10.1501 30.908C10.0561 30.964 9.97527 31.0366 9.90765 31.124C9.84167 31.2114 9.79549 31.3087 9.76746 31.4159C9.73942 31.5215 9.73282 31.6287 9.74931 31.7376C9.76416 31.8464 9.80044 31.9487 9.85652 32.0443C9.9126 32.1383 9.98516 32.2191 10.0742 32.2851C10.1616 32.3511 10.2589 32.3973 10.3662 32.4253C10.4734 32.4517 10.5822 32.4583 10.6911 32.4435C10.8016 32.427 10.9038 32.3923 10.9995 32.3362C11.0935 32.2802 11.1743 32.2076 11.2419 32.1202C11.3079 32.0328 11.3541 31.9355 11.3821 31.8283C11.4102 31.7227 11.4168 31.6139 11.4003 31.5066C11.3854 31.3978 11.3491 31.2955 11.2931 31.1999C11.237 31.1059 11.1644 31.0251 11.0754 30.9591C10.9879 30.8931 10.8906 30.8469 10.7834 30.8189C10.6762 30.7925 10.5674 30.7859 10.4585 30.8007Z" fill="#16BDB7"/>
<path d="M13.3663 27.9507C13.269 27.9639 13.1799 27.9952 13.0958 28.043C13.0133 28.0925 12.9424 28.1552 12.883 28.2327C12.8253 28.3102 12.7841 28.3943 12.7593 28.4883C12.7363 28.5807 12.7313 28.6764 12.7445 28.772C12.7577 28.866 12.789 28.9551 12.8385 29.0392C12.888 29.1217 12.9507 29.1926 13.0282 29.2503C13.1057 29.3081 13.1915 29.3493 13.2855 29.3724C13.3795 29.3971 13.4751 29.4021 13.5708 29.3889C13.6665 29.3757 13.7572 29.3443 13.8396 29.2949C13.9238 29.2454 13.9947 29.1827 14.0524 29.1052C14.1118 29.0293 14.153 28.9436 14.1761 28.8512C14.2008 28.7572 14.2058 28.6632 14.1926 28.5675C14.1794 28.4719 14.1481 28.3828 14.0986 28.3003C14.0491 28.2162 13.9848 28.1469 13.9073 28.0892C13.8297 28.0315 13.744 27.9903 13.65 27.9655C13.556 27.9424 13.4619 27.9358 13.3663 27.9507Z" fill="#16BDB7"/>
<path d="M6.83815 32.8492C6.71445 32.8673 6.60065 32.9069 6.49344 32.9696C6.38624 33.0322 6.29553 33.1131 6.22131 33.212C6.14544 33.311 6.09266 33.4198 6.06297 33.5386C6.03164 33.659 6.02504 33.7794 6.04153 33.9014C6.05967 34.0235 6.09926 34.1373 6.16358 34.2445C6.22625 34.35 6.30707 34.4407 6.40603 34.515C6.50499 34.5892 6.61549 34.642 6.73589 34.6733C6.85629 34.703 6.97834 34.7096 7.10039 34.6931C7.22408 34.6749 7.33789 34.6354 7.44509 34.5727C7.5523 34.51 7.64301 34.4292 7.71723 34.3302C7.79309 34.2313 7.84587 34.1224 7.87556 34.0037C7.9069 33.8833 7.91349 33.7629 7.897 33.6408C7.87886 33.5188 7.83927 33.4033 7.77495 33.2978C7.71228 33.1906 7.63146 33.1015 7.5325 33.0273C7.43355 32.9531 7.32304 32.9003 7.20264 32.869C7.08224 32.8393 6.96019 32.8327 6.83815 32.8492Z" fill="#16BDB7"/>
<path d="M8.05057 34.5447C8.04562 34.6668 8.06541 34.7822 8.1083 34.896C8.15118 35.0098 8.21385 35.1105 8.29632 35.1979C8.37878 35.2869 8.47609 35.3545 8.58659 35.4057C8.6971 35.4552 8.8142 35.4815 8.9346 35.4865C9.05665 35.4898 9.17375 35.4717 9.28755 35.4288C9.40135 35.3859 9.50361 35.3232 9.59267 35.2407C9.68008 35.1583 9.751 35.0626 9.80048 34.9538C9.85161 34.8433 9.878 34.7278 9.88295 34.6074C9.88625 34.487 9.86645 34.3699 9.82357 34.2561C9.78234 34.144 9.71802 34.0434 9.63555 33.9543C9.55309 33.8669 9.45578 33.7976 9.34527 33.7465C9.23477 33.697 9.11932 33.6706 8.99727 33.6657C8.87522 33.6624 8.75812 33.6805 8.64432 33.7234C8.53052 33.7663 8.42991 33.8289 8.34085 33.9114C8.25179 33.9939 8.18251 34.0895 8.13139 34.2C8.08191 34.3089 8.05387 34.4243 8.05057 34.5447Z" fill="#16BDB7"/>
<path d="M8.39026 30.4099C8.28305 30.4445 8.1874 30.4989 8.10163 30.5715C8.01587 30.6457 7.9466 30.7315 7.89547 30.8321C7.84434 30.9327 7.81465 31.0383 7.80476 31.1504C7.79651 31.2626 7.8097 31.3714 7.84434 31.4786C7.88063 31.5842 7.9334 31.6815 8.00762 31.7656C8.08184 31.8514 8.1676 31.9206 8.26821 31.9701C8.37047 32.0213 8.47602 32.0509 8.58983 32.0608C8.70198 32.0691 8.81248 32.0559 8.91969 32.0213C9.02689 31.9866 9.1242 31.9322 9.20996 31.8596C9.29573 31.7854 9.36335 31.6996 9.41448 31.599C9.46561 31.4984 9.49694 31.3929 9.50519 31.2807C9.51344 31.1686 9.50024 31.0597 9.46561 30.9525C9.43097 30.8453 9.37654 30.7496 9.30233 30.6639C9.22976 30.5798 9.14234 30.5105 9.04174 30.461C8.94113 30.4099 8.83392 30.3802 8.72177 30.3703C8.60797 30.3621 8.49911 30.3752 8.39026 30.4099Z" fill="#16BDB7"/>
<path d="M4.79657 32.0294C4.67782 32.0674 4.57061 32.1267 4.47495 32.2076C4.37929 32.29 4.30342 32.3857 4.24735 32.4962C4.18962 32.6083 4.15664 32.7254 4.14674 32.8491C4.13684 32.9745 4.15169 33.0949 4.19127 33.2136C4.22921 33.3324 4.29023 33.4396 4.37105 33.5336C4.45351 33.6293 4.54917 33.7051 4.66132 33.7612C4.77347 33.8173 4.89223 33.8503 5.01592 33.8602C5.14127 33.8701 5.26332 33.8552 5.38372 33.8173C5.50247 33.7777 5.60967 33.7183 5.70533 33.6375C5.79934 33.5567 5.87686 33.4594 5.93294 33.3489C5.98901 33.2367 6.02365 33.1196 6.03354 32.9959C6.04179 32.8706 6.0286 32.7502 5.98901 32.6314C5.94943 32.5127 5.89005 32.4055 5.80759 32.3115C5.72677 32.2158 5.62946 32.1416 5.51896 32.0839C5.40681 32.0278 5.28806 31.9948 5.16271 31.9849C5.03736 31.975 4.91532 31.9899 4.79657 32.0294Z" fill="#16BDB7"/>
<path d="M11.8603 31.9024C11.857 32.0079 11.8751 32.1102 11.9114 32.2091C11.9494 32.3081 12.0038 32.3972 12.0764 32.4747C12.1506 32.5522 12.2347 32.6116 12.332 32.6561C12.4293 32.7006 12.5299 32.7237 12.6371 32.727C12.7443 32.7303 12.8466 32.7138 12.9472 32.6775C13.0462 32.6396 13.1352 32.5852 13.2127 32.5126C13.2903 32.44 13.3513 32.3559 13.3958 32.2603C13.4403 32.163 13.4634 32.0624 13.4667 31.9568C13.4717 31.8512 13.4535 31.7473 13.4172 31.6484C13.3793 31.5494 13.3249 31.462 13.2507 31.3845C13.1781 31.307 13.094 31.246 12.9967 31.2031C12.8994 31.1585 12.7971 31.1354 12.6916 31.1321C12.5843 31.1272 12.4821 31.1453 12.3815 31.1816C12.2825 31.2196 12.1935 31.274 12.1159 31.3466C12.0384 31.4175 11.9774 31.5032 11.9329 31.5989C11.8883 31.6946 11.8653 31.7968 11.8603 31.9024Z" fill="#16BDB7"/>
<path d="M11.3094 28.0068C11.2138 28.0382 11.128 28.086 11.0505 28.1503C10.9746 28.2163 10.9136 28.2921 10.8674 28.3812C10.8229 28.4703 10.7965 28.5659 10.7882 28.6649C10.78 28.7655 10.7915 28.8628 10.8229 28.9568C10.8542 29.0525 10.902 29.1382 10.968 29.2141C11.034 29.29 11.1115 29.351 11.2006 29.3955C11.2913 29.4417 11.3853 29.4681 11.4859 29.4747C11.5865 29.4829 11.6838 29.4714 11.7795 29.4401C11.8751 29.4087 11.9609 29.3609 12.0384 29.2966C12.1143 29.2306 12.1753 29.1547 12.2215 29.0657C12.266 28.9766 12.294 28.8809 12.3006 28.782C12.3089 28.6814 12.2973 28.5841 12.266 28.4901C12.2347 28.3944 12.1868 28.3086 12.1209 28.2328C12.0565 28.1569 11.979 28.0959 11.8883 28.0513C11.7993 28.0052 11.7036 27.9788 11.603 27.9722C11.5024 27.9639 11.4051 27.9755 11.3094 28.0068Z" fill="#16BDB7"/>
<path d="M8.26487 25.8741C8.2022 25.945 8.15437 26.0242 8.12303 26.1116C8.0917 26.2007 8.0785 26.2914 8.08345 26.3854C8.0884 26.4794 8.11149 26.5685 8.15272 26.6543C8.19395 26.7384 8.24838 26.8126 8.3193 26.8753C8.39022 26.9379 8.46939 26.9841 8.55845 27.0154C8.64751 27.0468 8.73987 27.06 8.83388 27.055C8.92789 27.0501 9.01696 27.027 9.10272 26.9874C9.18848 26.9462 9.2627 26.8917 9.32538 26.8208C9.38805 26.7516 9.43588 26.6724 9.46722 26.5833C9.49855 26.4959 9.51175 26.4036 9.5068 26.3095C9.50185 26.2155 9.47876 26.1265 9.43918 26.0424C9.39795 25.9582 9.34187 25.884 9.2726 25.8214C9.20168 25.7587 9.12251 25.7108 9.03345 25.6795C8.94439 25.6482 8.85203 25.635 8.75802 25.6399C8.66236 25.6449 8.57329 25.668 8.48753 25.7092C8.40342 25.7488 8.3292 25.8049 8.26487 25.8741Z" fill="#16BDB7"/>
<path d="M5.88663 26.0112C5.85034 26.1019 5.85199 26.1926 5.89157 26.2817C5.93116 26.3724 5.99713 26.4351 6.08949 26.4697C6.18185 26.506 6.27256 26.5043 6.36163 26.4647C6.45234 26.4252 6.51501 26.3592 6.5513 26.2685C6.58758 26.1778 6.58593 26.087 6.5447 25.998C6.50512 25.9073 6.44079 25.8446 6.34843 25.81C6.25607 25.7737 6.16536 25.7753 6.07465 25.8149C5.98558 25.8545 5.92126 25.9205 5.88663 26.0112Z" fill="#16BDB7"/>
<path d="M9.39483 27.9804C9.30412 28.0282 9.2266 28.0926 9.16063 28.1717C9.09631 28.2509 9.04848 28.3383 9.01879 28.4356C8.98745 28.5346 8.97756 28.6335 8.98745 28.7358C8.99735 28.838 9.02704 28.9337 9.07487 29.0244C9.12434 29.1135 9.18702 29.191 9.26783 29.257C9.347 29.3213 9.43606 29.3691 9.53337 29.3988C9.63233 29.4285 9.73294 29.4384 9.83519 29.4285C9.93745 29.4186 10.0348 29.3889 10.1255 29.3411C10.2162 29.2933 10.2937 29.2289 10.3597 29.1514C10.424 29.0722 10.4718 28.9832 10.5015 28.8859C10.5312 28.7869 10.5411 28.688 10.5312 28.5857C10.5213 28.4851 10.4933 28.3878 10.4438 28.2987C10.396 28.208 10.3316 28.1305 10.2525 28.0662C10.1733 28.0002 10.0842 27.954 9.98528 27.9227C9.88797 27.893 9.78736 27.8831 9.68511 27.893C9.58285 27.9029 9.48554 27.9326 9.39483 27.9804Z" fill="#16BDB7"/>
<path d="M3.3551 31.5759C3.30398 31.604 3.26109 31.6386 3.22481 31.6848C3.18852 31.7293 3.16379 31.7788 3.14729 31.8332C3.1308 31.8893 3.12585 31.9454 3.13245 32.0014C3.13905 32.0592 3.15554 32.112 3.18358 32.1631C3.21162 32.2142 3.2479 32.2571 3.29243 32.2934C3.33696 32.328 3.38809 32.3544 3.44252 32.3709C3.49859 32.3874 3.55467 32.3923 3.6124 32.3857C3.67012 32.3791 3.7229 32.3626 3.77403 32.3346C3.82516 32.3082 3.86804 32.2719 3.90432 32.2274C3.94061 32.1829 3.96535 32.1317 3.98184 32.0773C3.99833 32.0229 4.00328 31.9652 3.99668 31.9091C3.99009 31.8514 3.97359 31.7986 3.94556 31.7475C3.91752 31.698 3.88123 31.6534 3.8367 31.6188C3.79217 31.5825 3.74104 31.5561 3.68662 31.5396C3.63054 31.5232 3.57446 31.5182 3.51674 31.5248C3.46066 31.5314 3.40623 31.5479 3.3551 31.5759Z" fill="#16BDB7"/>
<path d="M11.496 22.9533C11.43 23.0045 11.3756 23.0655 11.336 23.1381C11.2948 23.2106 11.2684 23.2881 11.2585 23.369C11.2486 23.4514 11.2552 23.5322 11.2766 23.6131C11.2997 23.6922 11.336 23.7648 11.3871 23.8308C11.4383 23.8951 11.5009 23.9479 11.5735 23.9891C11.6461 24.0303 11.7236 24.0551 11.8061 24.065C11.8885 24.0749 11.971 24.0683 12.0502 24.0468C12.131 24.0237 12.2035 23.9874 12.2695 23.9363C12.3355 23.8852 12.3883 23.8242 12.4295 23.7516C12.4707 23.679 12.4955 23.6032 12.507 23.5207C12.5169 23.4382 12.5103 23.3574 12.4872 23.2766C12.4658 23.1974 12.4295 23.1249 12.3767 23.0605C12.3256 22.9946 12.2646 22.9418 12.192 22.9006C12.1194 22.861 12.0419 22.8346 11.9578 22.8247C11.8753 22.8148 11.7945 22.8214 11.7137 22.8428C11.6345 22.8659 11.5603 22.9022 11.496 22.9533Z" fill="#16BDB7"/>
<path d="M7.57212 27.9161C7.4913 27.9804 7.42533 28.0579 7.3742 28.147C7.32308 28.2377 7.29009 28.3334 7.27854 28.4356C7.26535 28.5379 7.2736 28.6385 7.30164 28.7391C7.32967 28.8381 7.3742 28.9288 7.43853 29.0096C7.50285 29.0904 7.58037 29.1564 7.67108 29.2075C7.76179 29.2586 7.85745 29.29 7.96136 29.3032C8.06361 29.3147 8.16587 29.3081 8.26483 29.2801C8.36544 29.252 8.45615 29.2059 8.53861 29.1432C8.61943 29.0789 8.68705 29.003 8.73818 28.9123C8.78931 28.8232 8.82064 28.7259 8.83219 28.6237C8.84538 28.5214 8.83714 28.4208 8.81075 28.3218C8.78271 28.2212 8.73653 28.1305 8.67221 28.0497C8.60788 27.9689 8.53037 27.9029 8.43966 27.8518C8.35059 27.8007 8.25328 27.7693 8.14938 27.7578C8.04712 27.7446 7.94486 27.7528 7.84591 27.7792C7.7453 27.8073 7.65459 27.8534 7.57212 27.9161Z" fill="#16BDB7"/>
<path d="M10.9912 20.8092C10.9401 20.8653 10.9022 20.9296 10.8774 21.0006C10.8527 21.0715 10.8411 21.144 10.8461 21.2199C10.8494 21.2958 10.8675 21.3667 10.9005 21.4343C10.9335 21.5036 10.978 21.5613 11.0341 21.6124C11.0918 21.6619 11.1545 21.6999 11.2271 21.7263C11.298 21.751 11.3722 21.7609 11.4481 21.7576C11.5223 21.7526 11.5949 21.7345 11.6641 21.7015C11.7318 21.6702 11.7911 21.6256 11.8423 21.5696C11.8934 21.5135 11.9313 21.4492 11.9561 21.3782C11.9808 21.3073 11.9923 21.2348 11.9874 21.1589C11.9841 21.0847 11.966 21.0121 11.933 20.9445C11.9 20.8769 11.8555 20.8175 11.7994 20.7664C11.7433 20.7169 11.679 20.6789 11.6064 20.6542C11.5355 20.6278 11.4613 20.6179 11.3871 20.6212C11.3112 20.6262 11.2386 20.6443 11.171 20.6773C11.1017 20.7086 11.0423 20.7532 10.9912 20.8092Z" fill="#16BDB7"/>
<path d="M9.99834 23.4712C9.94061 23.5355 9.89773 23.6064 9.86969 23.6856C9.84166 23.7664 9.83011 23.8489 9.83341 23.933C9.83836 24.0171 9.8598 24.0979 9.89608 24.1738C9.93237 24.2513 9.9835 24.3173 10.0462 24.3734C10.1088 24.4294 10.1814 24.4723 10.2622 24.5004C10.3414 24.5284 10.4239 24.5399 10.5096 24.5366C10.5954 24.5317 10.6762 24.5119 10.7521 24.474C10.8296 24.4377 10.8956 24.3882 10.9533 24.3255C11.0094 24.2629 11.0522 24.1903 11.0803 24.1111C11.11 24.032 11.1215 23.9495 11.1166 23.8637C11.1116 23.7796 11.0918 23.6988 11.0555 23.6229C11.0176 23.5471 10.9681 23.4811 10.9055 23.4234C10.8411 23.3673 10.7702 23.3244 10.6894 23.2964C10.6086 23.2683 10.5261 23.2568 10.442 23.2617C10.3562 23.265 10.2754 23.2865 10.1979 23.3228C10.122 23.359 10.0544 23.4085 9.99834 23.4712Z" fill="#16BDB7"/>
<path d="M9.90933 25.645C9.83511 25.7027 9.77574 25.772 9.72955 25.8528C9.68337 25.9336 9.65534 26.021 9.64379 26.1134C9.63225 26.2057 9.63884 26.2964 9.66358 26.3855C9.68832 26.4762 9.7312 26.557 9.78728 26.6296C9.84501 26.7038 9.91593 26.7632 9.99674 26.8094C10.0792 26.8539 10.165 26.8836 10.259 26.8935C10.3513 26.905 10.4437 26.8984 10.5328 26.8737C10.6235 26.849 10.7059 26.8077 10.7785 26.75C10.8527 26.6923 10.9121 26.623 10.9583 26.5422C11.0045 26.4614 11.0325 26.374 11.0441 26.2816C11.0556 26.1892 11.049 26.0985 11.0243 26.0095C10.9995 25.9204 10.9566 25.8379 10.8989 25.7654C10.8412 25.6912 10.7719 25.6318 10.6911 25.5872C10.6086 25.5411 10.5229 25.513 10.4289 25.5015C10.3365 25.4899 10.2441 25.4965 10.1551 25.5213C10.0644 25.546 9.9819 25.5872 9.90933 25.645Z" fill="#16BDB7"/>
<path d="M6.4307 29.9959C6.3301 30.0486 6.24433 30.1196 6.17176 30.207C6.09919 30.2944 6.04642 30.3933 6.01178 30.5006C5.97879 30.6094 5.96725 30.7199 5.97879 30.8337C5.99034 30.9459 6.02333 31.0531 6.0761 31.1537C6.13053 31.2526 6.20145 31.3401 6.28886 31.411C6.37628 31.4835 6.47523 31.5363 6.58409 31.5693C6.69459 31.6023 6.8051 31.6138 6.9189 31.6023C7.0327 31.5907 7.1399 31.5594 7.24051 31.505C7.34112 31.4522 7.42853 31.3813 7.49945 31.2939C7.57202 31.2065 7.6248 31.1091 7.65944 31.0003C7.69242 30.8914 7.70397 30.7809 7.69242 30.6671C7.68088 30.555 7.64789 30.4478 7.59511 30.3488C7.54069 30.2482 7.46977 30.1624 7.38235 30.0899C7.29494 30.0173 7.19598 29.9645 7.08713 29.9315C6.97662 29.8986 6.86612 29.8887 6.75232 29.8986C6.63852 29.9101 6.53131 29.9431 6.4307 29.9959Z" fill="#16BDB7"/>
<path d="M5.43156 24.4328C5.42826 24.5268 5.46125 24.6092 5.52722 24.6768C5.59155 24.7445 5.67236 24.7808 5.76637 24.7824C5.86203 24.7841 5.9445 24.7527 6.01212 24.6884C6.08139 24.6224 6.11602 24.5433 6.11932 24.4476C6.12097 24.3536 6.08964 24.2728 6.02366 24.2051C5.95769 24.1359 5.87688 24.1012 5.78286 24.0996C5.6872 24.0963 5.60639 24.1293 5.53712 24.1936C5.4695 24.2596 5.43321 24.3387 5.43156 24.4328Z" fill="#16BDB7"/>
<path d="M3.81362 27.1953C3.77239 27.3025 3.77404 27.408 3.82022 27.5119C3.8664 27.6158 3.94392 27.6884 4.04947 27.7296C4.15668 27.7709 4.26223 27.7692 4.36779 27.7231C4.47334 27.6785 4.54591 27.601 4.58714 27.4954C4.62838 27.3899 4.62673 27.2843 4.58055 27.1804C4.53437 27.0749 4.4585 27.0023 4.35129 26.9611C4.24409 26.9198 4.13853 26.9215 4.03298 26.9677C3.92907 27.0139 3.85485 27.0897 3.81362 27.1953Z" fill="#16BDB7"/>
<path d="M3.6749 29.1729C3.63697 29.2158 3.60893 29.2636 3.59079 29.3164C3.57264 29.3708 3.5644 29.4269 3.5677 29.483C3.57264 29.5391 3.58584 29.5935 3.61223 29.6446C3.63697 29.6958 3.6716 29.7403 3.71448 29.7766C3.75737 29.8145 3.8052 29.8426 3.85962 29.8607C3.91405 29.8788 3.96848 29.8871 4.0262 29.8821C4.08393 29.8788 4.13671 29.864 4.18948 29.8393C4.24061 29.8145 4.28514 29.7815 4.32143 29.7386C4.35936 29.6958 4.3874 29.6479 4.40554 29.5935C4.42533 29.5391 4.43193 29.4847 4.42863 29.4286C4.42369 29.3708 4.41049 29.3181 4.3841 29.2669C4.35936 29.2158 4.32473 29.1713 4.28185 29.1334C4.23896 29.0954 4.19113 29.069 4.13671 29.0492C4.08228 29.0311 4.02785 29.0245 3.97013 29.0278C3.9124 29.0311 3.85962 29.0459 3.80849 29.0707C3.75572 29.0954 3.71119 29.1301 3.6749 29.1729Z" fill="#16BDB7"/>
<path d="M4.81139 23.8985C4.71408 23.9117 4.63656 23.9595 4.57883 24.0387C4.51946 24.1162 4.49802 24.2052 4.51286 24.3009C4.5277 24.3982 4.57389 24.4757 4.65305 24.5335C4.73222 24.5928 4.82128 24.6143 4.91859 24.5994C5.0159 24.5846 5.09342 24.5384 5.15279 24.4592C5.21052 24.3801 5.23361 24.2927 5.21876 24.1953C5.20392 24.098 5.15609 24.0205 5.07692 23.9628C4.99776 23.9051 4.90869 23.8836 4.81139 23.8985Z" fill="#16BDB7"/>
<path d="M5.03565 29.8886C4.95153 29.9579 4.90205 30.0453 4.89051 30.1542C4.88061 30.263 4.90865 30.3587 4.97792 30.4428C5.04719 30.5286 5.13461 30.5764 5.24346 30.5879C5.35231 30.5978 5.44962 30.5698 5.53374 30.5022C5.6195 30.4329 5.66733 30.3455 5.67888 30.2366C5.69042 30.1294 5.66238 30.0321 5.59311 29.948C5.52384 29.8639 5.43478 29.8161 5.32592 29.8045C5.21707 29.793 5.12141 29.821 5.03565 29.8886Z" fill="#16BDB7"/>
<path d="M4.9713 27.6127C4.91522 27.7051 4.90038 27.8024 4.92512 27.9079C4.9515 28.0118 5.01088 28.0927 5.10324 28.1471C5.1956 28.2032 5.29456 28.2196 5.40011 28.1933C5.50402 28.1685 5.58484 28.1091 5.64091 28.0168C5.69864 27.9261 5.71348 27.8271 5.68709 27.7232C5.66235 27.6177 5.60298 27.5385 5.51062 27.4824C5.41826 27.4263 5.3193 27.4115 5.21374 27.4362C5.10819 27.461 5.02737 27.5203 4.9713 27.6127Z" fill="#16BDB7"/>
<path d="M4.78159 25.8198C4.7618 25.9204 4.77994 26.0144 4.83767 26.1018C4.89704 26.1876 4.97621 26.2404 5.07847 26.2602C5.18072 26.2816 5.27638 26.2618 5.36215 26.2057C5.44956 26.148 5.50234 26.0672 5.52378 25.9666C5.54357 25.8643 5.52543 25.7703 5.4677 25.6845C5.40833 25.5988 5.32916 25.5444 5.2269 25.5246C5.12465 25.5048 5.02899 25.5229 4.94322 25.5806C4.85581 25.6384 4.80303 25.7175 4.78159 25.8198Z" fill="#16BDB7"/>
<path d="M11.7301 11.5154C11.6311 11.5714 11.547 11.644 11.4777 11.7347C11.4085 11.8254 11.359 11.9244 11.3293 12.0349C11.2996 12.1437 11.2914 12.2542 11.3062 12.3664C11.3211 12.4802 11.3573 12.5858 11.4151 12.6831C11.4711 12.782 11.5454 12.8645 11.6361 12.9338C11.7268 13.003 11.8274 13.0525 11.9379 13.0822C12.0467 13.1119 12.1589 13.1185 12.2727 13.1036C12.3849 13.0888 12.4921 13.0525 12.5894 12.9964C12.6883 12.9404 12.7724 12.8661 12.8434 12.7771C12.9126 12.6864 12.9621 12.5858 12.9918 12.4769C13.0198 12.368 13.0281 12.2559 13.0132 12.1437C12.9984 12.0316 12.9621 11.926 12.9044 11.8271C12.8483 11.7298 12.7741 11.6457 12.6834 11.5764C12.5927 11.5071 12.4921 11.4593 12.3832 11.4296C12.2727 11.3999 12.1605 11.3933 12.0467 11.4082C11.9346 11.4213 11.829 11.4576 11.7301 11.5154Z" fill="#16BDB7"/>
<path d="M9.71483 5.02034C9.61917 5.03683 9.53011 5.06982 9.44765 5.1226C9.36683 5.17373 9.29756 5.2397 9.24313 5.31887C9.18706 5.39803 9.14912 5.4838 9.12768 5.57781C9.10624 5.67182 9.10459 5.76748 9.12108 5.86149C9.13758 5.95715 9.17221 6.04456 9.22499 6.12538C9.27612 6.20784 9.34209 6.27546 9.42126 6.33154C9.50207 6.38597 9.58784 6.4239 9.6835 6.44534C9.77751 6.46678 9.87317 6.46843 9.96883 6.45194C10.0628 6.43544 10.1519 6.40081 10.2344 6.34968C10.3152 6.2969 10.3845 6.23093 10.4405 6.15341C10.495 6.07425 10.5329 5.98683 10.5543 5.89282C10.5758 5.79881 10.5774 5.7048 10.5609 5.60914C10.5444 5.51513 10.5098 5.42607 10.457 5.34525C10.4059 5.26444 10.3399 5.19517 10.2608 5.14074C10.1816 5.08466 10.0942 5.04673 9.99851 5.02529C9.9045 5.0055 9.80884 5.0022 9.71483 5.02034Z" fill="#16BDB7"/>
<path d="M9.70142 6.93694C9.60741 6.96992 9.5233 7.02105 9.44908 7.08867C9.37486 7.1563 9.31713 7.23546 9.27425 7.32617C9.23137 7.41689 9.20828 7.51255 9.20333 7.61315C9.19838 7.71211 9.21488 7.80942 9.24786 7.90343C9.2825 7.99744 9.33363 8.08156 9.4029 8.15577C9.47052 8.22834 9.54969 8.28607 9.6404 8.32895C9.73276 8.37183 9.82842 8.39492 9.92903 8.39987C10.0296 8.40317 10.1269 8.38833 10.221 8.35369C10.315 8.3207 10.4007 8.26958 10.4749 8.20195C10.5492 8.13433 10.6069 8.05517 10.6498 7.96446C10.691 7.87374 10.7157 7.77808 10.719 7.67913C10.724 7.57852 10.7091 7.48121 10.6745 7.3872C10.6399 7.29319 10.5887 7.20907 10.5211 7.1365C10.4535 7.06229 10.3727 7.00456 10.282 6.96168C10.1913 6.9188 10.0956 6.89571 9.995 6.89241C9.89439 6.88746 9.79708 6.9023 9.70142 6.93694Z" fill="#16BDB7"/>
<path d="M8.84707 3.65144C8.84707 3.74215 8.86521 3.82957 8.89985 3.91368C8.93448 3.9978 8.98396 4.07202 9.04994 4.13799C9.11426 4.20231 9.18848 4.25179 9.27259 4.28642C9.35836 4.32106 9.44577 4.33755 9.53648 4.33755C9.62884 4.33755 9.71625 4.32106 9.80202 4.28642C9.88613 4.25179 9.96035 4.20231 10.0247 4.13799C10.0906 4.07202 10.1401 3.9978 10.1748 3.91368C10.2094 3.82957 10.2275 3.74215 10.2275 3.65144C10.2275 3.56073 10.2094 3.47332 10.1748 3.3892C10.1401 3.30509 10.0906 3.23087 10.0247 3.16655C9.96035 3.10222 9.88613 3.05275 9.80202 3.01646C9.71625 2.98183 9.62884 2.96533 9.53648 2.96533C9.44577 2.96533 9.35836 2.98183 9.27259 3.01646C9.18848 3.05275 9.11426 3.10222 9.04994 3.16655C8.98396 3.23087 8.93448 3.30509 8.89985 3.3892C8.86521 3.47332 8.84707 3.56073 8.84707 3.65144Z" fill="#16BDB7"/>
<path d="M9.57284 8.75277C9.48377 8.8039 9.40791 8.86987 9.34523 8.95234C9.28256 9.03315 9.23803 9.12221 9.21164 9.22117C9.1836 9.32013 9.177 9.42074 9.19185 9.52135C9.20504 9.6236 9.23638 9.71761 9.28916 9.80668C9.34028 9.89574 9.40626 9.96996 9.48872 10.0326C9.56954 10.0953 9.66025 10.1398 9.75921 10.1662C9.85817 10.1926 9.95877 10.1992 10.061 10.186C10.1633 10.1728 10.2589 10.1398 10.348 10.0887C10.4371 10.0376 10.5129 9.97161 10.5756 9.89079C10.6383 9.80997 10.6828 9.71926 10.7092 9.6203C10.7356 9.52135 10.7422 9.42239 10.729 9.32013C10.7158 9.21952 10.6828 9.12386 10.6317 9.0348C10.5806 8.94739 10.5129 8.87152 10.4321 8.80885C10.3497 8.74782 10.2606 8.70329 10.16 8.6769C10.061 8.65051 9.96042 8.64392 9.85817 8.65711C9.75591 8.6703 9.6619 8.70164 9.57284 8.75277Z" fill="#16BDB7"/>
<path d="M7.12366 10.0013C7.06264 10.0739 7.0181 10.1547 6.99007 10.2438C6.96203 10.3328 6.95048 10.4252 6.95873 10.5192C6.96698 10.6116 6.99336 10.7006 7.0379 10.7847C7.08078 10.8672 7.1385 10.9398 7.21107 10.9991C7.28364 11.0602 7.36446 11.1047 7.45517 11.1327C7.54588 11.1608 7.63659 11.1707 7.73225 11.1624C7.82626 11.1542 7.91533 11.1278 7.99779 11.0849C8.08191 11.042 8.15448 10.9843 8.2155 10.9117C8.27652 10.8408 8.32105 10.76 8.34909 10.6693C8.37713 10.5802 8.38703 10.4879 8.37878 10.3955C8.37053 10.3015 8.34579 10.2124 8.30126 10.13C8.25838 10.0458 8.20066 9.97492 8.12809 9.9139C8.05552 9.85287 7.97305 9.80999 7.88399 9.7803C7.79328 9.75226 7.70092 9.74237 7.60691 9.75061C7.5129 9.75886 7.42383 9.78525 7.33972 9.82813C7.2556 9.87101 7.18468 9.92874 7.12366 10.0013Z" fill="#16BDB7"/>
<path d="M10.795 15.3039C10.7571 15.3468 10.729 15.3946 10.7092 15.4474C10.6911 15.5018 10.6828 15.5563 10.6861 15.6123C10.6878 15.6701 10.7026 15.7229 10.7274 15.7756C10.7521 15.8268 10.7851 15.8713 10.828 15.9092C10.8692 15.9472 10.9187 15.9752 10.9715 15.9933C11.0259 16.0131 11.082 16.0214 11.1381 16.0181C11.1958 16.0148 11.2502 15.9999 11.3013 15.9768C11.3525 15.9521 11.397 15.9175 11.4366 15.8762C11.4745 15.8334 11.5025 15.7855 11.5223 15.7327C11.5405 15.6783 11.5487 15.6239 11.5454 15.5662C11.5421 15.5101 11.5289 15.4557 11.5042 15.4045C11.4795 15.3534 11.4465 15.3089 11.4036 15.2709C11.3607 15.233 11.3129 15.205 11.2585 15.1852C11.2057 15.167 11.1496 15.1588 11.0935 15.1621C11.0358 15.1654 10.9814 15.1786 10.9302 15.2033C10.8791 15.2281 10.8329 15.261 10.795 15.3039Z" fill="#16BDB7"/>
<path d="M11.6278 25.3679C11.547 25.4108 11.4777 25.4669 11.42 25.5378C11.3623 25.6087 11.3194 25.6863 11.293 25.7737C11.2666 25.8611 11.2567 25.9501 11.2666 26.0409C11.2749 26.1316 11.3013 26.2173 11.3441 26.2965C11.387 26.3773 11.4431 26.4466 11.514 26.5043C11.5849 26.562 11.6641 26.6033 11.7515 26.6313C11.8389 26.6577 11.9296 26.6659 12.0203 26.6577C12.1111 26.6478 12.1968 26.6231 12.2776 26.5802C12.3585 26.5373 12.4277 26.4796 12.4871 26.4103C12.5448 26.3394 12.5877 26.2602 12.6141 26.1744C12.6405 26.087 12.6487 25.998 12.6405 25.9073C12.6322 25.8165 12.6059 25.7308 12.563 25.6516C12.5201 25.5708 12.4624 25.5015 12.3914 25.4438C12.3205 25.3861 12.2414 25.3432 12.1539 25.3168C12.0665 25.2904 11.9775 25.2822 11.8868 25.2904C11.796 25.3003 11.7086 25.3251 11.6278 25.3679Z" fill="#16BDB7"/>
<path d="M8.6128 15.2116C8.56991 15.3171 8.56991 15.4227 8.61445 15.5266C8.66063 15.6322 8.73649 15.7064 8.84205 15.7476C8.9476 15.7905 9.05481 15.7905 9.16036 15.7443C9.26427 15.6998 9.33849 15.6256 9.38137 15.52C9.42425 15.4144 9.42425 15.3089 9.37972 15.2033C9.33354 15.0994 9.25932 15.0252 9.15212 14.9823C9.04656 14.9394 8.93936 14.9411 8.83545 14.9856C8.7299 15.0302 8.65568 15.106 8.6128 15.2116Z" fill="#16BDB7"/>
<path d="M8.05537 16.2324C8.04383 16.2885 8.04383 16.3429 8.05372 16.399C8.06527 16.4551 8.08506 16.5062 8.11639 16.554C8.14773 16.6019 8.18731 16.6415 8.2335 16.6744C8.28133 16.7058 8.33245 16.7289 8.38853 16.7404C8.44461 16.752 8.50068 16.752 8.55676 16.7421C8.61284 16.7322 8.66396 16.7107 8.71179 16.6794C8.76127 16.6497 8.80086 16.6101 8.83219 16.5639C8.86518 16.5161 8.88662 16.465 8.89981 16.4089C8.91136 16.3545 8.91136 16.2984 8.90146 16.2423C8.88992 16.1862 8.87013 16.1351 8.83879 16.0873C8.80745 16.0395 8.76787 15.9999 8.72169 15.9669C8.67386 15.9356 8.62273 15.9141 8.56665 15.9026C8.51058 15.8894 8.4545 15.8894 8.39843 15.8993C8.34235 15.9108 8.29122 15.9306 8.24339 15.9619C8.19556 15.9933 8.15433 16.0312 8.12299 16.079C8.09001 16.1252 8.06857 16.1763 8.05537 16.2324Z" fill="#16BDB7"/>
<path d="M13.0793 22.3299C13.0084 22.3678 12.9473 22.4173 12.8962 22.4783C12.8451 22.541 12.8071 22.6103 12.7841 22.6861C12.761 22.762 12.7527 22.8395 12.761 22.9187C12.7692 22.9995 12.7923 23.0737 12.8286 23.1447C12.8665 23.2139 12.9177 23.2749 12.9787 23.3261C13.0413 23.3772 13.1106 23.4135 13.1865 23.4366C13.264 23.4597 13.3415 23.4679 13.4223 23.4597C13.5015 23.4514 13.5774 23.43 13.6483 23.392C13.7192 23.3541 13.7802 23.3046 13.8314 23.2436C13.8825 23.1809 13.9188 23.1133 13.9435 23.0358C13.9666 22.9599 13.9749 22.8824 13.9666 22.8032C13.9584 22.7224 13.9353 22.6482 13.8973 22.5773C13.8611 22.508 13.8099 22.447 13.7489 22.3959C13.6862 22.3464 13.617 22.3085 13.5394 22.2854C13.4636 22.2623 13.3844 22.254 13.3052 22.2623C13.2244 22.2705 13.1502 22.292 13.0793 22.3299Z" fill="#16BDB7"/>
<path d="M13.419 15.6667C13.3679 15.6947 13.3233 15.731 13.2871 15.7739C13.2508 15.8184 13.2244 15.8679 13.2062 15.924C13.1897 15.9784 13.1848 16.0345 13.1897 16.0906C13.1963 16.1483 13.2112 16.2027 13.2392 16.2522C13.2656 16.3033 13.3019 16.3462 13.3464 16.3825C13.391 16.4204 13.4404 16.4468 13.4965 16.4633C13.5509 16.4798 13.6087 16.4847 13.6647 16.4798C13.7225 16.4732 13.7769 16.4584 13.828 16.4303C13.8792 16.4039 13.922 16.3676 13.96 16.3231C13.9963 16.2786 14.0226 16.2291 14.0391 16.1747C14.0573 16.1202 14.0622 16.0642 14.0573 16.0064C14.0507 15.9504 14.0342 15.8959 14.0078 15.8448C13.9814 15.7953 13.9451 15.7508 13.9006 15.7145C13.8561 15.6782 13.8066 15.6518 13.7505 15.6354C13.6961 15.6189 13.6384 15.6123 13.5823 15.6189C13.5245 15.6238 13.4701 15.6403 13.419 15.6667Z" fill="#16BDB7"/>
<path d="M12.3124 20.0028C12.2547 20.0473 12.2085 20.1018 12.1722 20.1644C12.1359 20.2288 12.1128 20.2964 12.1046 20.369C12.0964 20.4399 12.1013 20.5108 12.1211 20.5817C12.1409 20.651 12.1722 20.7153 12.2184 20.7714C12.2629 20.8291 12.3174 20.8753 12.38 20.9116C12.4444 20.9462 12.512 20.9693 12.5845 20.9775C12.6571 20.9874 12.7297 20.9808 12.799 20.9611C12.8699 20.9429 12.9342 20.9099 12.9919 20.8654C13.048 20.8209 13.0958 20.7664 13.1321 20.7038C13.1668 20.6394 13.1898 20.5718 13.1981 20.5009C13.208 20.4283 13.2014 20.3574 13.1816 20.2865C13.1635 20.2172 13.1305 20.1545 13.0859 20.0968C13.0398 20.0391 12.987 19.9929 12.9227 19.9566C12.8583 19.922 12.7907 19.8989 12.7181 19.8907C12.6456 19.8824 12.5747 19.8874 12.5037 19.9072C12.4328 19.9269 12.3701 19.9583 12.3124 20.0028Z" fill="#16BDB7"/>
<path d="M12.3404 6.4207C12.3404 6.5279 12.3601 6.62851 12.4014 6.72747C12.4426 6.82478 12.5003 6.91054 12.5762 6.98641C12.6504 7.06063 12.7378 7.11836 12.8351 7.15959C12.9341 7.20082 13.0364 7.22061 13.1436 7.22061C13.2491 7.22061 13.3514 7.20082 13.4503 7.15959C13.5493 7.11836 13.6351 7.06063 13.7109 6.98641C13.7868 6.91054 13.8445 6.82478 13.8858 6.72747C13.9253 6.62851 13.9468 6.5279 13.9468 6.4207C13.9468 6.31514 13.9253 6.21289 13.8858 6.11558C13.8445 6.01827 13.7868 5.93086 13.7109 5.85664C13.6351 5.78077 13.5493 5.72304 13.4503 5.68346C13.3514 5.64223 13.2491 5.62244 13.1436 5.62244C13.0364 5.62244 12.9341 5.64223 12.8351 5.68346C12.7378 5.72304 12.6504 5.78077 12.5762 5.85664C12.5003 5.93086 12.4426 6.01827 12.4014 6.11558C12.3601 6.21289 12.3404 6.31514 12.3404 6.4207Z" fill="#16BDB7"/>
<path d="M12.2727 9.63517C12.1671 9.67476 12.0715 9.73083 11.989 9.8067C11.9049 9.88257 11.8406 9.97163 11.7927 10.0739C11.7449 10.1761 11.7185 10.2834 11.7136 10.3955C11.7086 10.5077 11.7251 10.6165 11.763 10.7221C11.8026 10.8276 11.8604 10.9216 11.9362 11.0041C12.0121 11.0882 12.1028 11.1525 12.2051 11.2004C12.3073 11.2482 12.4145 11.2746 12.5267 11.2779C12.6405 11.2828 12.7493 11.2663 12.8565 11.2284C12.9621 11.1905 13.0577 11.1327 13.1402 11.0569C13.2243 10.981 13.2887 10.8919 13.3365 10.7897C13.3843 10.6891 13.4107 10.5819 13.4156 10.4697C13.4206 10.3576 13.4041 10.2487 13.3662 10.1432C13.3266 10.0376 13.2689 9.94195 13.193 9.85948C13.1171 9.77701 13.0264 9.71104 12.9242 9.66486C12.8219 9.61703 12.7147 9.59064 12.6009 9.5857C12.4887 9.58075 12.3799 9.59724 12.2727 9.63517Z" fill="#16BDB7"/>
<path d="M7.01144 8.38673C6.93887 8.44611 6.88114 8.51703 6.83826 8.59949C6.79538 8.68196 6.76899 8.77102 6.76239 8.86338C6.75415 8.95574 6.76404 9.04645 6.79208 9.13552C6.82012 9.22458 6.86465 9.30375 6.92402 9.37467C6.98505 9.44724 7.05597 9.50331 7.13843 9.54619C7.22255 9.58908 7.30996 9.61547 7.40397 9.62371C7.49633 9.63196 7.58704 9.62206 7.67776 9.59402C7.76682 9.56599 7.84598 9.52145 7.91855 9.46208C7.98947 9.4027 8.0472 9.33014 8.09008 9.24767C8.13461 9.1652 8.15935 9.07779 8.1676 8.98543C8.17585 8.89307 8.16595 8.80236 8.13791 8.7133C8.10987 8.62423 8.06534 8.54507 8.00597 8.4725C7.94494 8.40158 7.87402 8.3455 7.78991 8.30262C7.70744 8.25809 7.62003 8.23335 7.52602 8.2251C7.43366 8.21685 7.3413 8.22675 7.25223 8.25479C7.16317 8.28283 7.08236 8.32736 7.01144 8.38673Z" fill="#16BDB7"/>
<path d="M12.7625 7.69396C12.6537 7.71375 12.5531 7.75168 12.4591 7.81106C12.3667 7.87043 12.2875 7.94465 12.2249 8.03536C12.1606 8.12443 12.1177 8.22339 12.0929 8.33059C12.0698 8.4378 12.0665 8.54665 12.0863 8.65385C12.1061 8.76271 12.1441 8.86332 12.2034 8.95568C12.2628 9.04969 12.3387 9.1272 12.4294 9.18988C12.5201 9.25255 12.6191 9.29708 12.7263 9.32017C12.8351 9.34326 12.944 9.34656 13.0528 9.32677C13.1617 9.30863 13.2623 9.26904 13.3546 9.20967C13.4487 9.15029 13.5262 9.07608 13.5905 8.98701C13.6532 8.8963 13.6977 8.79734 13.7208 8.69014C13.7455 8.58293 13.7472 8.47573 13.729 8.36688C13.7092 8.25802 13.6697 8.15741 13.6103 8.06505C13.5509 7.97269 13.4767 7.89517 13.386 7.83085C13.2953 7.76818 13.1963 7.7253 13.0875 7.70056C12.9803 7.67747 12.8714 7.67582 12.7625 7.69396Z" fill="#16BDB7"/>
</svg>
