<svg width="20" height="38" viewBox="0 0 20 38" fill="none" xmlns="http://www.w3.org/2000/svg">
<path d="M14.984 9.88918C15.0286 9.9634 15.0549 10.0426 15.0665 10.1283C15.078 10.2124 15.0714 10.2966 15.05 10.379C15.0269 10.4615 14.9906 10.5374 14.9378 10.605C14.8851 10.6726 14.8224 10.727 14.7482 10.7699C14.6723 10.8128 14.5931 10.8408 14.5074 10.8507C14.4233 10.8623 14.3391 10.8573 14.255 10.8342C14.1726 10.8128 14.0967 10.7749 14.0291 10.7237C13.9598 10.671 13.9037 10.6083 13.8609 10.5341C13.818 10.4598 13.7916 10.3807 13.78 10.2966C13.7685 10.2108 13.7751 10.1283 13.7965 10.0459C13.8196 9.9634 13.8559 9.88753 13.9087 9.81991C13.9615 9.75229 14.0241 9.69621 14.0984 9.65333C14.1726 9.61045 14.2534 9.58406 14.3391 9.57252C14.4233 9.56097 14.5074 9.56757 14.5915 9.58901C14.674 9.6121 14.7498 9.64838 14.8174 9.70116C14.8867 9.75229 14.9411 9.81496 14.984 9.88918Z" fill="#16BDB7"/>
<path d="M15.7033 12.5198C15.7049 12.6007 15.6785 12.6716 15.6241 12.7309C15.568 12.7903 15.4988 12.8217 15.4179 12.8233C15.3371 12.8266 15.2662 12.8002 15.2068 12.7458C15.1475 12.6897 15.1161 12.6221 15.1128 12.5396C15.1095 12.4588 15.1359 12.3895 15.192 12.3302C15.2481 12.2708 15.3157 12.2395 15.3982 12.2362C15.479 12.2345 15.5499 12.2609 15.6093 12.3153C15.6686 12.3714 15.7 12.439 15.7033 12.5198Z" fill="#16BDB7"/>
<path d="M14.1629 11.5617C14.1942 11.6375 14.1942 11.7134 14.1612 11.7893C14.1299 11.8651 14.0754 11.9179 13.9979 11.9476C13.9221 11.979 13.8462 11.9773 13.7703 11.946C13.6945 11.913 13.6417 11.8602 13.6103 11.7827C13.579 11.7068 13.5807 11.6309 13.612 11.5567C13.645 11.4809 13.6994 11.4281 13.7753 11.3967C13.8511 11.3671 13.927 11.3671 14.0029 11.4C14.0787 11.4314 14.1332 11.4858 14.1629 11.5617Z" fill="#16BDB7"/>
<path d="M16.1865 25.5823C16.1898 25.6895 16.1535 25.7836 16.0776 25.8611C16.0034 25.9386 15.911 25.9782 15.8038 25.9815C15.695 25.9831 15.6026 25.9468 15.5234 25.8726C15.4459 25.7984 15.4047 25.7077 15.403 25.6005C15.3997 25.4933 15.436 25.3993 15.5102 25.3217C15.5861 25.2442 15.6768 25.2046 15.7857 25.2013C15.8945 25.1997 15.9869 25.236 16.0661 25.3102C16.1436 25.3844 16.1848 25.4751 16.1865 25.5823Z" fill="#16BDB7"/>
<path d="M15.3503 13.1185C15.436 13.13 15.5053 13.1696 15.5564 13.2389C15.6092 13.3081 15.629 13.384 15.6175 13.4698C15.6043 13.5555 15.5647 13.6231 15.4954 13.6743C15.4262 13.7271 15.3486 13.7468 15.2629 13.7337C15.1771 13.7221 15.1095 13.6825 15.0567 13.6133C15.0056 13.544 14.9858 13.4681 14.9973 13.3823C15.0089 13.2966 15.0501 13.229 15.1194 13.1778C15.1887 13.1251 15.2662 13.1053 15.3503 13.1185Z" fill="#16BDB7"/>
<path d="M14.2503 13.7553C14.2519 13.8493 14.2222 13.9317 14.1579 14.001C14.0919 14.0686 14.0128 14.1049 13.9171 14.1082C13.8231 14.1115 13.7406 14.0818 13.6713 14.0159C13.6021 13.9515 13.5658 13.8724 13.5625 13.7784C13.5592 13.6843 13.5905 13.6019 13.6549 13.5343C13.7192 13.465 13.8 13.4287 13.894 13.4254C13.9897 13.4221 14.0721 13.4534 14.1414 13.5178C14.2107 13.5821 14.247 13.6613 14.2503 13.7553Z" fill="#16BDB7"/>
<path d="M15.9673 11.4494C15.9822 11.5236 15.969 11.5912 15.9277 11.6539C15.8865 11.7149 15.8288 11.7545 15.7562 11.7693C15.682 11.7842 15.6144 11.771 15.5517 11.7297C15.489 11.6885 15.4511 11.6308 15.4346 11.5582C15.4198 11.484 15.433 11.4164 15.4742 11.3554C15.5171 11.2927 15.5731 11.2547 15.6474 11.2399C15.7199 11.2251 15.7892 11.2383 15.8502 11.2795C15.9129 11.3207 15.9525 11.3768 15.9673 11.4494Z" fill="#16BDB7"/>
<path d="M15.342 8.46098C15.3965 8.52531 15.4377 8.59788 15.4624 8.67869C15.4888 8.75951 15.4971 8.84197 15.4905 8.92609C15.4822 9.0102 15.4591 9.09102 15.4196 9.16524C15.38 9.2411 15.3288 9.30543 15.2629 9.35985C15.1969 9.41428 15.1243 9.45386 15.0435 9.48025C14.961 9.50499 14.8786 9.51324 14.7945 9.50664C14.7087 9.50005 14.6295 9.47531 14.5537 9.43737C14.4778 9.39779 14.4135 9.34666 14.3574 9.28069C14.303 9.21636 14.2634 9.1438 14.237 9.06298C14.2123 8.98216 14.2024 8.8997 14.2106 8.81558C14.2172 8.73147 14.2403 8.65065 14.2799 8.57643C14.3195 8.50057 14.3722 8.43624 14.4366 8.38182C14.5025 8.32739 14.5751 8.28781 14.6576 8.26142C14.7384 8.23668 14.8209 8.22678 14.9066 8.23503C14.9907 8.24163 15.0716 8.26472 15.1474 8.3043C15.2216 8.34388 15.2876 8.39501 15.342 8.46098Z" fill="#16BDB7"/>
<path d="M13.5493 24.4311C13.5674 24.5185 13.551 24.5994 13.5015 24.6736C13.4503 24.7478 13.3827 24.794 13.2937 24.8105C13.2063 24.8286 13.1254 24.8121 13.0496 24.7626C12.9753 24.7132 12.9292 24.6455 12.9127 24.5581C12.8945 24.4707 12.911 24.3899 12.9605 24.3157C13.01 24.2415 13.0793 24.1953 13.1667 24.1788C13.2557 24.1606 13.3365 24.1771 13.4108 24.2266C13.485 24.2761 13.5312 24.3437 13.5493 24.4311Z" fill="#16BDB7"/>
<path d="M14.0853 14.3044C14.1826 14.3192 14.2617 14.3654 14.3211 14.4429C14.3805 14.5221 14.4036 14.6095 14.3887 14.7068C14.3755 14.8025 14.3294 14.8816 14.2502 14.9394C14.171 14.9987 14.0836 15.0218 13.9863 15.0086C13.889 14.9938 13.8098 14.9476 13.7505 14.8701C13.6911 14.7909 13.668 14.7035 13.6828 14.6062C13.696 14.5105 13.7422 14.4314 13.8214 14.3737C13.9005 14.3143 13.988 14.2912 14.0853 14.3044Z" fill="#16BDB7"/>
<path d="M13.1667 15.797C13.2772 15.8119 13.3646 15.863 13.4322 15.9521C13.4982 16.0395 13.5229 16.1384 13.5081 16.2473C13.4932 16.3561 13.4404 16.4435 13.3514 16.5095C13.264 16.5755 13.165 16.6002 13.0545 16.5854C12.9456 16.5705 12.8566 16.5178 12.7906 16.4304C12.7246 16.3429 12.6982 16.244 12.7147 16.1351C12.7296 16.0263 12.7824 15.9389 12.8698 15.8729C12.9588 15.8069 13.0578 15.7805 13.1667 15.797Z" fill="#16BDB7"/>
<path d="M12.8221 14.3242C12.8435 14.4264 12.827 14.5204 12.7693 14.6078C12.7132 14.6936 12.6341 14.748 12.5318 14.7695C12.4296 14.7909 12.3339 14.7728 12.2465 14.7167C12.1591 14.6606 12.1046 14.5815 12.0832 14.4792C12.0618 14.3786 12.0799 14.2846 12.136 14.1972C12.1937 14.1098 12.2729 14.0553 12.3751 14.0339C12.4774 14.0124 12.5714 14.0306 12.6588 14.0867C12.7462 14.1444 12.8007 14.2236 12.8221 14.3242Z" fill="#16BDB7"/>
<path d="M16.8925 10.1217C16.9189 10.1943 16.9304 10.2702 16.9271 10.3477C16.9238 10.4252 16.9057 10.4994 16.8727 10.5703C16.8397 10.6396 16.7935 10.7023 16.7358 10.755C16.6781 10.8062 16.6137 10.8458 16.5395 10.8738C16.4653 10.9002 16.3894 10.9117 16.3119 10.9084C16.2344 10.9051 16.1585 10.887 16.0876 10.854C16.0167 10.821 15.9557 10.7748 15.9029 10.7188C15.8501 10.661 15.8105 10.5951 15.7825 10.5225C15.7561 10.4499 15.7446 10.3741 15.7479 10.2965C15.7512 10.219 15.7693 10.1448 15.8023 10.0739C15.8353 10.003 15.8815 9.94194 15.9392 9.88916C15.9969 9.83639 16.0629 9.7968 16.1355 9.77041C16.2097 9.74403 16.2855 9.73248 16.3631 9.73578C16.4422 9.73908 16.5164 9.75722 16.5874 9.79021C16.6583 9.82319 16.7193 9.86772 16.7721 9.92545C16.8249 9.98318 16.8661 10.0475 16.8925 10.1217Z" fill="#16BDB7"/>
<path d="M13.1584 15.3269C13.1617 15.4341 13.1271 15.5282 13.0528 15.6057C12.9786 15.6848 12.8879 15.7261 12.7807 15.7294C12.6718 15.7327 12.5778 15.698 12.4987 15.6255C12.4195 15.5512 12.3783 15.4605 12.375 15.3533C12.3717 15.2461 12.4063 15.1521 12.4805 15.0746C12.5547 14.9954 12.6455 14.9542 12.7527 14.9509C12.8615 14.9476 12.9555 14.9822 13.0347 15.0548C13.1139 15.129 13.1551 15.2197 13.1584 15.3269Z" fill="#16BDB7"/>
<path d="M17.4994 28.5017C17.5307 28.5544 17.5505 28.6089 17.5604 28.6682C17.5687 28.7276 17.567 28.787 17.5522 28.8447C17.5373 28.9041 17.5126 28.9569 17.4763 29.0063C17.4417 29.0542 17.3971 29.0938 17.346 29.1251C17.2949 29.1564 17.2388 29.1762 17.1778 29.1861C17.1184 29.196 17.059 29.1927 17.0013 29.1779C16.9419 29.1647 16.8875 29.1399 16.8397 29.1037C16.7902 29.069 16.7506 29.0245 16.7193 28.9734C16.6879 28.9222 16.6665 28.8662 16.6582 28.8068C16.6483 28.7474 16.6516 28.6897 16.6665 28.6303C16.6797 28.5726 16.7044 28.5181 16.7407 28.4703C16.777 28.4225 16.8199 28.3813 16.8727 28.3499C16.9238 28.3186 16.9799 28.2988 17.0392 28.2905C17.0986 28.2806 17.158 28.2839 17.2174 28.2971C17.2767 28.312 17.3295 28.3367 17.379 28.3714C17.4268 28.4076 17.4681 28.4505 17.4994 28.5017Z" fill="#16BDB7"/>
<path d="M13.6778 27.9704C13.7438 28.0446 13.7735 28.1304 13.7669 28.2294C13.7603 28.3283 13.719 28.4108 13.6448 28.4751C13.569 28.5411 13.4832 28.5708 13.3826 28.5642C13.2836 28.5576 13.2012 28.518 13.1352 28.4438C13.0709 28.3696 13.0412 28.2821 13.0478 28.1832C13.0544 28.0859 13.094 28.0034 13.1698 27.9374C13.244 27.8731 13.3315 27.8434 13.4304 27.85C13.5294 27.855 13.6118 27.8962 13.6778 27.9704Z" fill="#16BDB7"/>
<path d="M14.1578 12.7128C14.1776 12.8002 14.1611 12.8811 14.1133 12.9553C14.0638 13.0311 13.9962 13.0773 13.9088 13.0955C13.8197 13.1136 13.7389 13.0988 13.6647 13.0493C13.5888 13.0015 13.5426 12.9338 13.5228 12.8464C13.5047 12.759 13.5195 12.6782 13.569 12.6023C13.6185 12.5281 13.6861 12.4819 13.7735 12.4638C13.8609 12.4456 13.9434 12.4605 14.0176 12.5083C14.0935 12.5578 14.1397 12.6254 14.1578 12.7128Z" fill="#16BDB7"/>
<path d="M18.5005 27.8352C18.5219 27.8946 18.5335 27.9539 18.5318 28.0166C18.5302 28.0793 18.517 28.1387 18.4922 28.1964C18.4675 28.2525 18.4312 28.3036 18.3867 28.3465C18.3405 28.3894 18.2894 28.4224 18.23 28.4454C18.1723 28.4685 18.1112 28.4784 18.0486 28.4768C17.9859 28.4768 17.9249 28.4636 17.8688 28.4372C17.8111 28.4125 17.7599 28.3778 17.7171 28.3333C17.6725 28.2871 17.6395 28.236 17.6165 28.1783C17.595 28.1189 17.5835 28.0595 17.5851 27.9968C17.5868 27.9342 17.6 27.8748 17.6247 27.8171C17.6494 27.761 17.6857 27.7099 17.7303 27.667C17.7764 27.6241 17.8276 27.5911 17.8869 27.568C17.9447 27.5449 18.0057 27.535 18.0684 27.5367C18.131 27.5367 18.1921 27.5499 18.2498 27.5763C18.3059 27.601 18.357 27.6356 18.3999 27.6802C18.4444 27.7263 18.4774 27.7775 18.5005 27.8352Z" fill="#16BDB7"/>
<mask id="mask0_63_242" style="mask-type:luminance" maskUnits="userSpaceOnUse" x="18" y="10" width="2" height="3">
<path d="M18.6736 10.5555H19.4999V12.2444H18.6736V10.5555Z" fill="white"/>
</mask>
<g mask="url(#mask0_63_242)">
<path d="M19.0054 11.3456C19.0054 11.2796 19.0186 11.2186 19.0433 11.1592C19.068 11.0998 19.1027 11.047 19.1489 11.0008C19.195 10.9563 19.2478 10.92 19.3072 10.8953C19.3666 10.8706 19.4292 10.859 19.4936 10.859H19.4985V11.8304H19.4936C19.4292 11.8304 19.3666 11.8173 19.3072 11.7925C19.2478 11.7678 19.195 11.7331 19.1489 11.6886C19.1027 11.6424 19.068 11.5897 19.0433 11.5303C19.0186 11.4709 19.0054 11.4099 19.0054 11.3456Z" fill="#16BDB7"/>
</g>
<mask id="mask1_63_242" style="mask-type:luminance" maskUnits="userSpaceOnUse" x="18" y="8" width="2" height="2">
<path d="M18.6736 8.02222H19.4999V9.7111H18.6736V8.02222Z" fill="white"/>
</mask>
<g mask="url(#mask1_63_242)">
<path d="M19.2757 8.41467C19.345 8.37508 19.4192 8.35364 19.4984 8.34705V9.37951C19.3846 9.37126 19.284 9.33003 19.1965 9.25581C19.1108 9.18159 19.0547 9.08923 19.0283 8.97873C19.0036 8.86823 19.0135 8.76102 19.0597 8.65712C19.1058 8.55321 19.1768 8.47239 19.2757 8.41467Z" fill="#16BDB7"/>
</g>
<mask id="mask2_63_242" style="mask-type:luminance" maskUnits="userSpaceOnUse" x="19" y="25" width="1" height="3">
<path d="M19.0959 25.7555H19.5V27.0222H19.0959V25.7555Z" fill="white"/>
</mask>
<g mask="url(#mask2_63_242)">
<path d="M19.1782 26.5505C19.1749 26.4466 19.203 26.3509 19.2624 26.2652C19.3217 26.1794 19.3992 26.1184 19.4982 26.0837V26.9958C19.4042 26.9612 19.3267 26.9034 19.269 26.8226C19.2096 26.7402 19.1799 26.6495 19.1782 26.5505Z" fill="#16BDB7"/>
</g>
<mask id="mask3_63_242" style="mask-type:luminance" maskUnits="userSpaceOnUse" x="17" y="8" width="3" height="3">
<path d="M17.8291 8.86658H19.4998V10.5555H17.8291V8.86658Z" fill="white"/>
</mask>
<g mask="url(#mask3_63_242)">
<path d="M19.2491 9.6154C19.2739 9.68137 19.2838 9.75065 19.2805 9.81992C19.2788 9.88919 19.2623 9.95681 19.2327 10.0211C19.2013 10.0838 19.1617 10.1399 19.109 10.1861C19.0578 10.2339 18.9984 10.2702 18.9325 10.2933C18.8649 10.318 18.7972 10.3279 18.7263 10.3246C18.657 10.3213 18.5894 10.3065 18.5251 10.2768C18.4608 10.2471 18.4047 10.2059 18.3585 10.1547C18.3107 10.1019 18.2744 10.0442 18.2497 9.97825C18.2266 9.91228 18.215 9.84465 18.2183 9.77374C18.2216 9.70446 18.2381 9.63684 18.2678 9.57417C18.2975 9.50985 18.3387 9.45377 18.3899 9.40759C18.4426 9.35976 18.502 9.32347 18.568 9.30038C18.634 9.27565 18.7032 9.26575 18.7725 9.26905C18.8434 9.27235 18.911 9.28884 18.9754 9.31853C19.038 9.34657 19.0941 9.3878 19.1419 9.43893C19.1898 9.4917 19.2261 9.54943 19.2491 9.6154Z" fill="#16BDB7"/>
</g>
<path d="M18.565 10.6281C18.5765 10.6974 18.5749 10.7667 18.56 10.8359C18.5452 10.9052 18.5171 10.9695 18.4759 11.0272C18.4347 11.085 18.3852 11.1328 18.3242 11.1707C18.2648 11.2087 18.1988 11.2334 18.1295 11.2466C18.0586 11.2581 17.9894 11.2565 17.9201 11.2417C17.8508 11.2268 17.7865 11.1988 17.7271 11.1575C17.6694 11.118 17.6216 11.0668 17.5836 11.0075C17.544 10.9481 17.5193 10.8838 17.5061 10.8128C17.4946 10.7436 17.4962 10.6743 17.5111 10.605C17.5276 10.5357 17.5556 10.4731 17.5952 10.4137C17.6364 10.356 17.6875 10.3081 17.7469 10.2702C17.8079 10.2323 17.8723 10.2075 17.9432 10.1943C18.0124 10.1828 18.0817 10.1844 18.1526 10.1993C18.2219 10.2141 18.2862 10.2422 18.344 10.2834C18.4017 10.3246 18.4512 10.3741 18.4891 10.4335C18.527 10.4929 18.5518 10.5588 18.565 10.6281Z" fill="#16BDB7"/>
<path d="M18.5087 25.3416C18.5664 25.3498 18.6208 25.3696 18.672 25.3993C18.7231 25.4306 18.7643 25.4686 18.8006 25.5164C18.8352 25.5642 18.86 25.6154 18.8732 25.6731C18.888 25.7292 18.8897 25.7869 18.8814 25.8446C18.8715 25.9023 18.8517 25.9568 18.822 26.0079C18.7907 26.0574 18.7528 26.1002 18.7049 26.1349C18.6571 26.1695 18.6043 26.1926 18.5483 26.2075C18.4905 26.2206 18.4328 26.2239 18.3734 26.2157C18.3157 26.2058 18.2613 26.186 18.2118 26.1563C18.1607 26.125 18.1178 26.0871 18.0832 26.0392C18.0485 25.993 18.0238 25.9403 18.0089 25.8825C17.9957 25.8265 17.9924 25.7687 18.0023 25.711C18.0106 25.6533 18.0304 25.5989 18.0617 25.5494C18.0914 25.4983 18.131 25.457 18.1788 25.4224C18.225 25.3861 18.2778 25.363 18.3355 25.3482C18.3932 25.335 18.4509 25.3317 18.5087 25.3416Z" fill="#16BDB7"/>
<path d="M18.0287 30.616C18.0782 30.6539 18.1178 30.7018 18.1475 30.7562C18.1772 30.8106 18.197 30.8683 18.2036 30.931C18.2102 30.9937 18.2052 31.0547 18.1871 31.1141C18.1689 31.1735 18.1409 31.2279 18.1013 31.2774C18.0634 31.3252 18.0156 31.3648 17.9611 31.3961C17.9051 31.4258 17.8473 31.4439 17.7847 31.4505C17.722 31.4571 17.661 31.4522 17.5999 31.4357C17.5406 31.4176 17.4845 31.3895 17.4366 31.3499C17.3872 31.312 17.3476 31.2642 17.3179 31.2097C17.2866 31.1553 17.2684 31.0959 17.2618 31.0349C17.2552 30.9722 17.2602 30.9112 17.2783 30.8518C17.2948 30.7908 17.3245 30.738 17.3624 30.6886C17.402 30.6391 17.4498 30.6012 17.5043 30.5698C17.5603 30.5401 17.6181 30.522 17.6807 30.5154C17.7434 30.5071 17.8044 30.5137 17.8655 30.5302C17.9248 30.5484 17.9793 30.5764 18.0287 30.616Z" fill="#16BDB7"/>
<path d="M12.5003 17.161C12.5019 17.2187 12.492 17.2748 12.4723 17.3292C12.4525 17.3837 12.4211 17.4331 12.3815 17.4744C12.342 17.5173 12.2958 17.5502 12.243 17.575C12.1886 17.5981 12.1341 17.6113 12.0748 17.6129C12.017 17.6162 11.9593 17.6063 11.9049 17.5865C11.8505 17.5651 11.8026 17.5354 11.7598 17.4958C11.7169 17.4562 11.6839 17.4101 11.6591 17.3573C11.6344 17.3045 11.6212 17.2484 11.6196 17.1907C11.6179 17.133 11.6278 17.0769 11.6476 17.0225C11.669 16.968 11.6987 16.9186 11.7383 16.8773C11.7779 16.8344 11.8241 16.8015 11.8785 16.7767C11.9313 16.7536 11.9874 16.7404 12.0451 16.7388C12.1028 16.7355 12.1605 16.7454 12.215 16.7652C12.2694 16.7866 12.3172 16.8163 12.3601 16.8559C12.403 16.8955 12.436 16.9416 12.4607 16.9944C12.4854 17.0472 12.4986 17.1033 12.5003 17.161Z" fill="#16BDB7"/>
<mask id="mask4_63_242" style="mask-type:luminance" maskUnits="userSpaceOnUse" x="18" y="26" width="2" height="2">
<path d="M18.2515 26.6H19.5V27.8666H18.2515V26.6Z" fill="white"/>
</mask>
<g mask="url(#mask4_63_242)">
<path d="M19.3698 27.1806C19.383 27.2416 19.383 27.3043 19.3698 27.3669C19.3582 27.4296 19.3335 27.4873 19.2972 27.5401C19.2626 27.5945 19.2181 27.6374 19.1636 27.6737C19.1109 27.71 19.0531 27.7331 18.9905 27.7463C18.9261 27.7578 18.8635 27.7578 18.8008 27.7463C18.7381 27.7331 18.6804 27.71 18.626 27.6737C18.5732 27.6391 18.5286 27.5945 18.4924 27.5418C18.4577 27.489 18.433 27.4312 18.4198 27.3686C18.4082 27.3059 18.4082 27.2432 18.4198 27.1806C18.433 27.1179 18.4577 27.0602 18.4924 27.0074C18.5286 26.9546 18.5732 26.9101 18.626 26.8738C18.6787 26.8391 18.7381 26.8144 18.8008 26.8029C18.8635 26.7897 18.9261 26.7897 18.9888 26.8029C19.0515 26.8144 19.1109 26.8391 19.1636 26.8738C19.2164 26.9084 19.2609 26.953 19.2972 27.0057C19.3335 27.0602 19.3566 27.1179 19.3698 27.1806Z" fill="#16BDB7"/>
</g>
<path d="M16.965 12.5C16.965 12.5676 16.9403 12.627 16.8924 12.6748C16.8446 12.7227 16.7869 12.7458 16.7176 12.7458C16.65 12.7458 16.5923 12.7227 16.5428 12.6748C16.495 12.627 16.4702 12.5676 16.4702 12.5C16.4702 12.4324 16.495 12.3747 16.5428 12.3268C16.5923 12.279 16.65 12.2543 16.7176 12.2543C16.7869 12.2543 16.8446 12.279 16.8924 12.3268C16.9403 12.3747 16.965 12.4324 16.965 12.5Z" fill="#16BDB7"/>
<path d="M18.0733 26.3048C18.0749 26.3625 18.065 26.4186 18.0436 26.473C18.0222 26.5274 17.9908 26.5753 17.9512 26.6165C17.91 26.6594 17.8638 26.6924 17.811 26.7155C17.7566 26.7386 17.7005 26.7501 17.6428 26.7517C17.5851 26.7534 17.5274 26.7435 17.4729 26.7221C17.4185 26.7023 17.3707 26.6709 17.3278 26.6314C17.2866 26.5901 17.2536 26.5439 17.2305 26.4912C17.2058 26.4384 17.1942 26.3823 17.1926 26.3246C17.1909 26.2669 17.2008 26.2108 17.2222 26.1564C17.2437 26.1019 17.2734 26.0541 17.3146 26.0129C17.3542 25.97 17.402 25.937 17.4548 25.9139C17.5092 25.8908 17.5653 25.8776 17.623 25.8776C17.6808 25.876 17.7385 25.8859 17.7929 25.9073C17.8473 25.9271 17.8952 25.9584 17.9364 25.998C17.9793 26.0376 18.0123 26.0854 18.0354 26.1382C18.0601 26.191 18.0716 26.2471 18.0733 26.3048Z" fill="#16BDB7"/>
<path d="M17.4399 8.89623C17.4779 8.96221 17.5026 9.03478 17.5125 9.11064C17.5224 9.18651 17.5174 9.26238 17.4977 9.3366C17.4779 9.41082 17.4449 9.47844 17.397 9.53946C17.3492 9.60049 17.2931 9.65162 17.2255 9.68955C17.1579 9.72748 17.087 9.75222 17.0095 9.76212C16.9319 9.77201 16.8561 9.76707 16.7819 9.74728C16.7076 9.72748 16.6384 9.6945 16.5773 9.64667C16.5163 9.60049 16.4652 9.54441 16.4273 9.47679C16.3877 9.41082 16.3646 9.33825 16.353 9.26238C16.3431 9.18651 16.3481 9.11064 16.3695 9.03643C16.3893 8.96221 16.4223 8.89459 16.4701 8.83356C16.5163 8.77254 16.574 8.72141 16.6417 8.68347C16.7076 8.64554 16.7802 8.6208 16.8577 8.6109C16.9336 8.60101 17.0095 8.60596 17.0853 8.62575C17.1595 8.64554 17.2272 8.67853 17.2898 8.72636C17.3509 8.77254 17.4003 8.82861 17.4399 8.89623Z" fill="#16BDB7"/>
<path d="M18.6192 11.8749C18.6803 11.8832 18.7298 11.9112 18.7677 11.9607C18.8056 12.0102 18.8188 12.0662 18.8106 12.1273C18.8023 12.1883 18.7726 12.2378 18.7232 12.2741C18.6737 12.312 18.6176 12.3268 18.5566 12.3169C18.4956 12.3087 18.4461 12.2807 18.4081 12.2312C18.3719 12.1817 18.357 12.1256 18.3653 12.0646C18.3735 12.0036 18.4032 11.9541 18.4527 11.9178C18.5021 11.8799 18.5582 11.865 18.6192 11.8749Z" fill="#16BDB7"/>
<path d="M16.716 24.8632C16.8265 24.8796 16.9139 24.9324 16.9782 25.0215C17.0442 25.1089 17.0689 25.2079 17.0524 25.3167C17.0359 25.4256 16.9815 25.513 16.8924 25.5773C16.8034 25.6433 16.7044 25.6664 16.5956 25.6499C16.4851 25.6334 16.3976 25.5806 16.3333 25.4932C16.2673 25.4041 16.2426 25.3052 16.2591 25.1963C16.2772 25.0875 16.33 25 16.4191 24.9357C16.5081 24.8698 16.6071 24.8467 16.716 24.8632Z" fill="#16BDB7"/>
<path d="M16.8874 12.289C16.9616 12.2989 17.0194 12.3336 17.0639 12.3929C17.1084 12.4523 17.1266 12.5183 17.115 12.5909C17.1051 12.6651 17.0705 12.7228 17.0111 12.7673C16.9518 12.8119 16.8858 12.8283 16.8116 12.8185C16.739 12.8086 16.6796 12.7739 16.6351 12.7145C16.5906 12.6552 16.5724 12.5892 16.584 12.5166C16.5939 12.4441 16.6285 12.3847 16.6879 12.3402C16.7472 12.2956 16.8132 12.2791 16.8874 12.289Z" fill="#16BDB7"/>
<path d="M17.1893 26.7566C17.2008 26.811 17.2008 26.8671 17.1893 26.9232C17.1777 26.9793 17.1563 27.0304 17.125 27.0782C17.0936 27.1244 17.054 27.164 17.0062 27.1953C16.9584 27.2267 16.9073 27.2481 16.8512 27.2597C16.7951 27.2712 16.739 27.2712 16.6829 27.2597C16.6269 27.2481 16.5757 27.2283 16.5279 27.1953C16.4801 27.164 16.4405 27.1244 16.4092 27.0782C16.3762 27.0304 16.3547 26.9793 16.3448 26.9232C16.3333 26.8688 16.3333 26.8127 16.3448 26.7566C16.3547 26.7005 16.3762 26.6494 16.4092 26.6016C16.4405 26.5554 16.4801 26.5158 16.5279 26.4845C16.5741 26.4531 16.6269 26.4317 16.6829 26.4202C16.739 26.4086 16.7951 26.4086 16.8512 26.4202C16.9073 26.4301 16.9584 26.4515 17.0062 26.4828C17.054 26.5158 17.0936 26.5538 17.125 26.6016C17.1563 26.6494 17.1777 26.7005 17.1893 26.7566Z" fill="#16BDB7"/>
<path d="M13.9469 22.7356C14.0327 22.7488 14.1003 22.7884 14.1514 22.8576C14.2025 22.9269 14.2223 23.0044 14.2091 23.0902C14.1959 23.1743 14.1547 23.2419 14.0854 23.2931C14.0162 23.3442 13.9386 23.3623 13.8529 23.3491C13.7671 23.3376 13.6995 23.2964 13.6484 23.2271C13.5972 23.1578 13.5774 23.0803 13.5906 22.9945C13.6038 22.9104 13.6451 22.8428 13.7143 22.7917C13.7836 22.7405 13.8611 22.7224 13.9469 22.7356Z" fill="#16BDB7"/>
<path d="M8.44297 13.9778C8.52874 14.0454 8.57822 14.1328 8.59141 14.2417C8.60461 14.3489 8.57822 14.4462 8.5106 14.532C8.44297 14.6161 8.35556 14.6656 8.24671 14.6787C8.13785 14.6919 8.04054 14.6656 7.95478 14.5979C7.86737 14.5303 7.81789 14.4429 7.80469 14.3357C7.7915 14.2268 7.81954 14.1312 7.88551 14.0454C7.95313 13.9597 8.04219 13.9102 8.1494 13.897C8.25825 13.8838 8.35556 13.9118 8.44297 13.9778Z" fill="#16BDB7"/>
<path d="M7.66116 16.9565C7.71064 16.9961 7.75022 17.0423 7.78156 17.0967C7.81125 17.1511 7.83104 17.2089 7.83928 17.2715C7.84588 17.3326 7.84093 17.3936 7.82444 17.4546C7.80795 17.514 7.77991 17.5684 7.74198 17.6179C7.70239 17.6674 7.65621 17.7069 7.60178 17.7383C7.54736 17.768 7.48798 17.7878 7.42531 17.7944C7.36428 17.8026 7.30161 17.7977 7.24224 17.7812C7.18121 17.7647 7.12679 17.7366 7.07731 17.6987C7.02783 17.6591 6.98659 17.6129 6.95691 17.5585C6.92557 17.5041 6.90578 17.4464 6.89918 17.3837C6.89093 17.3227 6.89588 17.2616 6.91238 17.2006C6.92887 17.1412 6.95691 17.0868 6.99484 17.0373C7.03442 16.9878 7.0806 16.9483 7.13503 16.9169C7.18946 16.8872 7.24883 16.8674 7.31151 16.8609C7.37418 16.8526 7.4352 16.8576 7.49458 16.874C7.5556 16.8905 7.61168 16.9186 7.66116 16.9565Z" fill="#16BDB7"/>
<path d="M8.74501 18.0367C8.78954 18.0862 8.82252 18.1423 8.84561 18.205C8.86705 18.2676 8.87695 18.3303 8.87365 18.3979C8.87035 18.4639 8.85386 18.5266 8.82582 18.5859C8.79613 18.6453 8.75655 18.6964 8.70707 18.741C8.65759 18.7855 8.60152 18.8185 8.53884 18.8399C8.47617 18.863 8.41185 18.8713 8.34587 18.868C8.2799 18.8647 8.21723 18.8482 8.1562 18.8201C8.09683 18.7921 8.04405 18.7525 7.99952 18.703C7.95499 18.6536 7.922 18.5991 7.90056 18.5365C7.87747 18.4738 7.86922 18.4095 7.87252 18.3435C7.87582 18.2775 7.89232 18.2149 7.92035 18.1555C7.94839 18.0961 7.98797 18.0433 8.03745 17.9988C8.08693 17.9559 8.14301 17.9229 8.20568 17.8998C8.26836 17.8784 8.33268 17.8685 8.39865 17.8734C8.46627 17.8767 8.52895 17.8916 8.58832 17.9213C8.64935 17.9493 8.70047 17.9889 8.74501 18.0367Z" fill="#16BDB7"/>
<path d="M12.309 11.9673C12.3568 12.0431 12.37 12.1256 12.3502 12.213C12.3288 12.3004 12.2809 12.3681 12.2034 12.4159C12.1276 12.4637 12.0451 12.4769 11.956 12.4571C11.8686 12.4373 11.7993 12.3878 11.7515 12.312C11.7037 12.2345 11.6905 12.1536 11.7103 12.0646C11.7317 11.9772 11.7795 11.9095 11.8571 11.8617C11.9329 11.8155 12.0154 11.8007 12.1045 11.8221C12.1919 11.8419 12.2611 11.8898 12.309 11.9673Z" fill="#16BDB7"/>
<path d="M12.3452 19.183C12.3468 19.2473 12.3369 19.3083 12.3138 19.3694C12.2907 19.4304 12.2578 19.4832 12.2132 19.531C12.1687 19.5772 12.1176 19.6135 12.0582 19.6415C12.0005 19.6679 11.9378 19.6827 11.8735 19.6844C11.8075 19.686 11.7448 19.6761 11.6854 19.653C11.6244 19.6316 11.57 19.597 11.5222 19.5541C11.476 19.5096 11.4381 19.4584 11.4117 19.3991C11.3853 19.3413 11.3704 19.2787 11.3688 19.2143C11.3655 19.15 11.3754 19.089 11.3985 19.028C11.4216 18.9669 11.4545 18.9142 11.4991 18.8663C11.5436 18.8201 11.5947 18.7822 11.6541 18.7558C11.7135 18.7294 11.7745 18.7146 11.8405 18.7129C11.9048 18.7113 11.9675 18.7212 12.0285 18.7443C12.0895 18.7657 12.1423 18.8004 12.1901 18.8432C12.238 18.8878 12.2743 18.9389 12.3006 18.9983C12.3287 19.056 12.3419 19.117 12.3452 19.183Z" fill="#16BDB7"/>
<path d="M12.5235 13.2125C12.5615 13.3032 12.5598 13.3939 12.5219 13.4846C12.4839 13.5737 12.418 13.638 12.3273 13.6743C12.2349 13.7106 12.1442 13.7106 12.0535 13.671C11.9628 13.633 11.9001 13.5687 11.8622 13.478C11.8259 13.3873 11.8275 13.2966 11.8654 13.2059C11.9034 13.1168 11.9694 13.0525 12.0601 13.0162C12.1508 12.9799 12.2431 12.9799 12.3339 13.0195C12.4246 13.0574 12.4872 13.1217 12.5235 13.2125Z" fill="#16BDB7"/>
<path d="M12.6338 19.5443C12.6948 19.5542 12.7443 19.5838 12.7806 19.6333C12.8169 19.6828 12.8317 19.7389 12.8218 19.7982C12.8119 19.8593 12.7823 19.9088 12.7328 19.945C12.6817 19.9813 12.6272 19.9945 12.5646 19.9863C12.5035 19.9764 12.454 19.9467 12.4178 19.8972C12.3815 19.8477 12.3666 19.7917 12.3765 19.7306C12.3864 19.6696 12.4161 19.6218 12.4656 19.5855C12.5167 19.5492 12.5711 19.5344 12.6338 19.5443Z" fill="#16BDB7"/>
<path d="M12.4362 21.1358C12.4378 21.2034 12.4148 21.2611 12.3686 21.3106C12.3207 21.3601 12.263 21.3848 12.1954 21.3865C12.1261 21.3881 12.0684 21.365 12.0189 21.3189C11.9694 21.271 11.9431 21.2133 11.9414 21.1457C11.9414 21.0781 11.9628 21.0203 12.0107 20.9708C12.0585 20.9214 12.1162 20.8966 12.1839 20.895C12.2515 20.8933 12.3109 20.9164 12.3603 20.9626C12.4098 21.0104 12.4345 21.0665 12.4362 21.1358Z" fill="#16BDB7"/>
<path d="M4.89065 17.8487C4.95167 17.8669 5.0061 17.8982 5.05393 17.9394C5.10176 17.979 5.14134 18.0285 5.16938 18.0846C5.19742 18.1406 5.21556 18.2 5.22051 18.2627C5.22546 18.3254 5.21721 18.388 5.19742 18.4474C5.17763 18.5068 5.14794 18.5612 5.10671 18.609C5.06548 18.6569 5.016 18.6948 4.95992 18.7228C4.90384 18.7525 4.84282 18.769 4.78015 18.774C4.71747 18.7789 4.6548 18.7707 4.59542 18.7509C4.5344 18.7327 4.47997 18.7014 4.43214 18.6602C4.38431 18.6189 4.34473 18.5711 4.31669 18.515C4.287 18.459 4.27051 18.3996 4.26556 18.3369C4.26061 18.2742 4.26886 18.2116 4.28865 18.1522C4.3068 18.0928 4.33813 18.0384 4.37936 17.9906C4.4206 17.9427 4.47008 17.9048 4.52615 17.8767C4.58223 17.8471 4.64325 17.8306 4.70593 17.8256C4.7686 17.8207 4.83127 17.8289 4.89065 17.8487Z" fill="#16BDB7"/>
<path d="M3.06818 24.253C3.06983 24.3288 3.05829 24.4014 3.0319 24.474C3.00386 24.5449 2.96428 24.6076 2.91315 24.6636C2.86037 24.7197 2.79935 24.7626 2.73007 24.7939C2.65915 24.8253 2.58659 24.8434 2.50907 24.8451C2.4332 24.8484 2.35898 24.8352 2.28806 24.8088C2.21549 24.7824 2.15117 24.7428 2.09509 24.6917C2.03902 24.6389 1.99613 24.5779 1.9648 24.5086C1.93181 24.4393 1.91532 24.3668 1.91202 24.2909C1.91037 24.215 1.92192 24.1408 1.9483 24.0699C1.97634 23.999 2.01593 23.9363 2.0687 23.8802C2.11983 23.8241 2.18086 23.7813 2.25178 23.7499C2.32105 23.7186 2.39362 23.7004 2.47113 23.6988C2.547 23.6955 2.62122 23.707 2.69379 23.7351C2.76471 23.7615 2.82903 23.801 2.88511 23.8522C2.94119 23.905 2.98407 23.9643 3.01705 24.0336C3.04839 24.1029 3.06488 24.1771 3.06818 24.253Z" fill="#16BDB7"/>
<path d="M4.9731 11.1031C5.09514 11.1245 5.20895 11.169 5.3145 11.235C5.41841 11.301 5.50582 11.3851 5.57839 11.4857C5.64931 11.588 5.69714 11.6985 5.72518 11.8189C5.75157 11.9393 5.75487 12.0613 5.73342 12.1817C5.71198 12.3038 5.66745 12.4159 5.59983 12.5215C5.53386 12.6254 5.44974 12.7128 5.34749 12.7837C5.24523 12.8546 5.13473 12.9025 5.01268 12.9288C4.89228 12.9569 4.77023 12.9585 4.64818 12.9371C4.52613 12.9156 4.41233 12.8728 4.30678 12.8051C4.20287 12.7392 4.11546 12.6551 4.04289 12.5545C3.97197 12.4538 3.92249 12.3433 3.8961 12.2213C3.86971 12.1009 3.86641 11.9805 3.88785 11.8584C3.90929 11.738 3.95383 11.6242 4.02145 11.5203C4.08742 11.4164 4.17153 11.329 4.27379 11.2581C4.3744 11.1872 4.48655 11.1377 4.6086 11.1113C4.729 11.0849 4.85105 11.0816 4.9731 11.1031Z" fill="#16BDB7"/>
<path d="M5.92121 13.0345C6.03996 13.0757 6.14551 13.14 6.23787 13.2242C6.33024 13.3083 6.4028 13.4072 6.45558 13.5194C6.50836 13.6332 6.53805 13.7519 6.543 13.8756C6.54794 14.001 6.5298 14.1214 6.48692 14.2385C6.44404 14.3556 6.37971 14.4611 6.2956 14.5519C6.21149 14.6442 6.11253 14.7168 5.99873 14.7696C5.88492 14.8223 5.76452 14.852 5.63918 14.857C5.51383 14.8619 5.39343 14.8438 5.27468 14.8009C5.15758 14.758 5.05202 14.6953 4.95966 14.6112C4.8673 14.5271 4.79473 14.4282 4.74196 14.3144C4.68753 14.2022 4.65949 14.0835 4.65289 13.9581C4.64794 13.8344 4.66609 13.7124 4.70897 13.5953C4.75185 13.4782 4.81617 13.3742 4.90029 13.2819C4.98605 13.1895 5.08501 13.1186 5.19881 13.0658C5.31261 13.0131 5.43136 12.9834 5.55671 12.9784C5.68206 12.9718 5.80411 12.9916 5.92121 13.0345Z" fill="#16BDB7"/>
<path d="M3.48034 20.5289C3.54961 20.5388 3.61393 20.5619 3.67495 20.5965C3.73433 20.6312 3.78546 20.6774 3.82669 20.7318C3.86957 20.7879 3.89926 20.8489 3.91575 20.9165C3.93389 20.9825 3.93719 21.0501 3.9273 21.1194C3.9174 21.1886 3.89596 21.2513 3.85968 21.3123C3.82504 21.3717 3.77886 21.4212 3.72278 21.4641C3.66671 21.5053 3.60568 21.535 3.53806 21.5515C3.47044 21.5696 3.40282 21.5729 3.33355 21.563C3.26428 21.5531 3.19995 21.53 3.13893 21.4954C3.07955 21.4608 3.02843 21.4146 2.98719 21.3602C2.94431 21.3041 2.91462 21.2431 2.89813 21.1754C2.87999 21.1095 2.87669 21.0419 2.88659 20.9726C2.89648 20.905 2.91792 20.8406 2.95421 20.7796C2.98884 20.7202 3.03502 20.6708 3.0911 20.6279C3.14718 20.5866 3.2082 20.557 3.27582 20.5405C3.34344 20.5223 3.41106 20.519 3.48034 20.5289Z" fill="#16BDB7"/>
<path d="M4.5705 24.4673C4.65296 24.4789 4.73048 24.5069 4.8014 24.5481C4.87397 24.591 4.935 24.6438 4.98447 24.7114C5.03395 24.7774 5.07024 24.85 5.09003 24.9308C5.11147 25.0099 5.11642 25.0908 5.10487 25.1732C5.09333 25.2557 5.06529 25.3316 5.02406 25.4041C4.98118 25.475 4.92675 25.5344 4.85913 25.5855C4.79316 25.635 4.71894 25.6697 4.63812 25.6911C4.55731 25.7109 4.47649 25.7158 4.39402 25.7043C4.31156 25.6927 4.23404 25.6664 4.16312 25.6235C4.09055 25.5806 4.02953 25.5278 3.98005 25.4618C3.92892 25.3942 3.89428 25.3217 3.87284 25.2408C3.85305 25.1617 3.8481 25.0809 3.85965 24.9984C3.87119 24.9159 3.89758 24.8401 3.94047 24.7691C3.98335 24.6966 4.03777 24.6372 4.10375 24.5861C4.17137 24.5366 4.24394 24.502 4.32475 24.4805C4.40557 24.4607 4.48803 24.4558 4.5705 24.4673Z" fill="#16BDB7"/>
<path d="M4.98625 10.0062C4.98625 10.1266 4.96316 10.2437 4.91697 10.3542C4.87079 10.4664 4.80482 10.5654 4.71906 10.6511C4.63329 10.7352 4.53434 10.8012 4.42218 10.8474C4.30838 10.8936 4.19293 10.9167 4.07088 10.9167C3.94883 10.9167 3.83173 10.8936 3.71958 10.8474C3.60743 10.8012 3.50847 10.7352 3.4227 10.6511C3.33694 10.5654 3.27097 10.4664 3.22479 10.3542C3.17861 10.2437 3.15552 10.1266 3.15552 10.0062C3.15552 9.88584 3.17861 9.76874 3.22479 9.65824C3.27097 9.54609 3.33694 9.44713 3.4227 9.36136C3.50847 9.27725 3.60743 9.21128 3.71958 9.1651C3.83173 9.11892 3.94883 9.09583 4.07088 9.09583C4.19293 9.09583 4.30838 9.11892 4.42218 9.1651C4.53434 9.21128 4.63329 9.27725 4.71906 9.36136C4.80482 9.44713 4.87079 9.54609 4.91697 9.65824C4.96316 9.76874 4.98625 9.88584 4.98625 10.0062Z" fill="#16BDB7"/>
<path d="M12.6703 17.5337C12.728 17.542 12.7825 17.5618 12.8336 17.5914C12.8847 17.6211 12.9276 17.6591 12.9622 17.7052C12.9985 17.7531 13.0232 17.8042 13.0381 17.8619C13.0529 17.918 13.0562 17.9757 13.048 18.0335C13.0397 18.0912 13.02 18.1456 12.9903 18.1967C12.9606 18.2462 12.921 18.2891 12.8748 18.3254C12.827 18.36 12.7759 18.3848 12.7181 18.3996C12.6604 18.4144 12.6027 18.4177 12.545 18.4095C12.4872 18.4012 12.4328 18.3815 12.3817 18.3518C12.3305 18.3221 12.2877 18.2841 12.2514 18.238C12.2167 18.1901 12.192 18.139 12.1772 18.0813C12.1623 18.0252 12.159 17.9675 12.1673 17.9098C12.1755 17.852 12.1936 17.7976 12.225 17.7465C12.2547 17.697 12.2926 17.6541 12.3404 17.6178C12.3866 17.5832 12.4394 17.5585 12.4971 17.5436C12.5532 17.5288 12.6109 17.5255 12.6703 17.5337Z" fill="#16BDB7"/>
<path d="M9.80028 18.9686C9.83657 19.0263 9.85966 19.089 9.8712 19.1566C9.88275 19.2242 9.8811 19.2919 9.8646 19.3595C9.84976 19.4254 9.82172 19.4865 9.78214 19.5425C9.74256 19.5986 9.69308 19.6448 9.6337 19.6811C9.57598 19.7174 9.51165 19.7405 9.44403 19.752C9.37641 19.7636 9.30879 19.7619 9.24117 19.7454C9.17355 19.7306 9.11252 19.7025 9.05645 19.6629C9.00037 19.6234 8.95419 19.5739 8.9179 19.5162C8.87997 19.4568 8.85688 19.3941 8.84533 19.3265C8.83379 19.2589 8.83544 19.1912 8.85193 19.1253C8.86678 19.0577 8.89481 18.9966 8.93605 18.9406C8.97563 18.8845 9.02511 18.8399 9.08283 18.8037C9.14221 18.7674 9.20488 18.7426 9.2725 18.7311C9.34178 18.7212 9.4094 18.7228 9.47537 18.7377C9.54299 18.7542 9.60566 18.7806 9.66174 18.8218C9.71782 18.8614 9.764 18.9109 9.80028 18.9686Z" fill="#16BDB7"/>
<path d="M11.438 23.9363C11.4842 24.0072 11.5139 24.0864 11.5271 24.1705C11.5419 24.2546 11.5386 24.3387 11.5205 24.4228C11.5007 24.5053 11.466 24.5812 11.4149 24.6521C11.3654 24.7214 11.3044 24.7791 11.2318 24.8236C11.1576 24.8681 11.0785 24.8978 10.9943 24.9127C10.9102 24.9259 10.8245 24.9242 10.742 24.9044C10.6579 24.8846 10.5804 24.85 10.5111 24.8005C10.4402 24.751 10.3824 24.69 10.3379 24.6174C10.2917 24.5449 10.262 24.4674 10.2489 24.3816C10.234 24.2975 10.2373 24.2134 10.2554 24.1309C10.2752 24.0468 10.3099 23.9709 10.361 23.9017C10.4105 23.8324 10.4715 23.7747 10.5441 23.7301C10.6183 23.6839 10.6975 23.6543 10.7816 23.6411C10.8657 23.6262 10.9515 23.6295 11.0339 23.6493C11.118 23.6674 11.1956 23.7021 11.2648 23.7516C11.3357 23.801 11.3935 23.8637 11.438 23.9363Z" fill="#16BDB7"/>
<path d="M10.0049 16.4418C10.0379 16.493 10.0577 16.549 10.0676 16.6084C10.0775 16.6678 10.0758 16.7255 10.0626 16.7849C10.0494 16.8443 10.0247 16.897 9.99007 16.9465C9.95378 16.9944 9.9109 17.0356 9.85977 17.0669C9.80865 17.0999 9.75257 17.1197 9.69319 17.1296C9.63382 17.1395 9.57444 17.1378 9.51507 17.1246C9.45569 17.1098 9.40292 17.0867 9.35344 17.0521C9.30396 17.0158 9.26273 16.9729 9.23139 16.9218C9.1984 16.8707 9.17861 16.8162 9.16872 16.7569C9.15882 16.6975 9.16047 16.6381 9.17366 16.5804C9.18686 16.521 9.2116 16.4666 9.24623 16.4187C9.28252 16.3693 9.3254 16.3297 9.37653 16.2967C9.42766 16.2654 9.48373 16.2439 9.54311 16.234C9.60248 16.2241 9.66186 16.2274 9.72123 16.2406C9.78061 16.2538 9.83338 16.2786 9.88286 16.3132C9.93234 16.3478 9.97358 16.3907 10.0049 16.4418Z" fill="#16BDB7"/>
<path d="M10.2671 21.5103C10.3083 21.5762 10.3364 21.6455 10.3479 21.723C10.3611 21.7989 10.3578 21.8731 10.3413 21.949C10.3232 22.0232 10.2918 22.0925 10.2473 22.1551C10.2028 22.2178 10.1467 22.2706 10.0807 22.3102C10.0147 22.3514 9.94382 22.3778 9.86795 22.391C9.79209 22.4025 9.71457 22.4009 9.64035 22.3827C9.56448 22.3662 9.49521 22.3349 9.43254 22.2904C9.36821 22.2458 9.31709 22.1898 9.27585 22.1254C9.23462 22.0595 9.20823 21.9885 9.19504 21.9127C9.18184 21.8368 9.18514 21.7609 9.20328 21.6867C9.21978 21.6109 9.25111 21.5416 9.29564 21.4789C9.34183 21.4162 9.39625 21.3651 9.46222 21.3239C9.5282 21.2843 9.59912 21.2563 9.67663 21.2447C9.7525 21.2315 9.82837 21.2348 9.90424 21.2513C9.98011 21.2695 10.0494 21.3008 10.1121 21.3453C10.1747 21.3899 10.2259 21.4443 10.2671 21.5103Z" fill="#16BDB7"/>
<path d="M10.6167 10.5225C10.6958 10.5885 10.7602 10.6677 10.808 10.76C10.8558 10.8507 10.8839 10.948 10.8938 11.0503C10.902 11.1542 10.8905 11.2548 10.8591 11.3521C10.8278 11.4511 10.78 11.5401 10.7123 11.6193C10.6464 11.6985 10.5672 11.7611 10.4748 11.809C10.3825 11.8568 10.2852 11.8848 10.1813 11.8947C10.0774 11.903 9.97675 11.8931 9.87779 11.8617C9.77884 11.8304 9.68977 11.7809 9.60896 11.715C9.52979 11.649 9.46547 11.5698 9.41764 11.4775C9.36981 11.3867 9.34177 11.2894 9.33352 11.1872C9.32363 11.0833 9.33517 10.9827 9.36651 10.8854C9.39785 10.7864 9.44568 10.6973 9.5133 10.6182C9.57927 10.539 9.65844 10.4763 9.7508 10.4285C9.84316 10.3807 9.94047 10.3526 10.0444 10.3427C10.1483 10.3345 10.2489 10.3444 10.3478 10.3757C10.4468 10.4071 10.5375 10.4565 10.6167 10.5225Z" fill="#16BDB7"/>
<path d="M10.3416 12.6684C10.4076 12.741 10.4389 12.8267 10.434 12.9257C10.4307 13.0246 10.3911 13.1071 10.3169 13.1731C10.2443 13.2407 10.1569 13.2704 10.0579 13.2671C9.95896 13.2621 9.87484 13.2226 9.80887 13.15C9.74125 13.0758 9.70991 12.99 9.71486 12.891C9.71981 12.7921 9.75774 12.7096 9.83196 12.6436C9.90618 12.5777 9.99194 12.5463 10.0909 12.5513C10.1915 12.5546 10.274 12.5942 10.3416 12.6684Z" fill="#16BDB7"/>
<path d="M10.851 14.0652C10.9087 14.1559 10.9252 14.2548 10.9005 14.3588C10.8758 14.4643 10.818 14.5451 10.7257 14.6012C10.635 14.6589 10.536 14.6754 10.4304 14.6507C10.3249 14.6259 10.2441 14.5682 10.1863 14.4775C10.1286 14.3851 10.1121 14.2878 10.1369 14.1823C10.1616 14.0784 10.2193 13.9976 10.3117 13.9398C10.4024 13.8838 10.5014 13.8673 10.6069 13.8904C10.7125 13.9151 10.7933 13.9728 10.851 14.0652Z" fill="#16BDB7"/>
<path d="M11.5832 18.3418C11.5964 18.4045 11.5964 18.4672 11.5848 18.5299C11.5733 18.5925 11.5502 18.6502 11.5156 18.703C11.4809 18.7575 11.4364 18.802 11.3836 18.8383C11.3308 18.8746 11.2731 18.8993 11.2104 18.9125C11.1478 18.9257 11.0835 18.9257 11.0208 18.9141C10.9581 18.9026 10.9004 18.8795 10.846 18.8449C10.7915 18.8102 10.747 18.7657 10.7107 18.7129C10.6744 18.6601 10.6497 18.6024 10.6365 18.5414C10.6233 18.4787 10.6216 18.416 10.6348 18.3534C10.6464 18.2907 10.6695 18.233 10.7041 18.1785C10.7387 18.1258 10.7833 18.0812 10.8361 18.045C10.8888 18.0087 10.9466 17.9839 11.0092 17.9707C11.0719 17.9575 11.1346 17.9559 11.1989 17.9674C11.2616 17.9806 11.3193 18.0037 11.3737 18.0384C11.4282 18.073 11.4727 18.1159 11.509 18.1687C11.5453 18.2214 11.57 18.2792 11.5832 18.3418Z" fill="#16BDB7"/>
<path d="M10.8031 17.4431C10.8262 17.5008 10.8378 17.5602 10.8378 17.6229C10.8361 17.6855 10.8246 17.7449 10.7998 17.8026C10.7751 17.8604 10.7404 17.9115 10.6959 17.9544C10.6497 17.9989 10.5986 18.0319 10.5409 18.055C10.4815 18.0781 10.4221 18.0896 10.3595 18.0896C10.2968 18.088 10.2358 18.0764 10.178 18.0517C10.1203 18.0269 10.0692 17.9923 10.0263 17.9478C9.98177 17.9032 9.94713 17.8521 9.92404 17.7944C9.90095 17.7367 9.8894 17.6756 9.8894 17.613C9.89105 17.5519 9.9026 17.4909 9.92734 17.4332C9.95208 17.3771 9.98671 17.326 10.0312 17.2815C10.0774 17.2386 10.1286 17.2056 10.1863 17.1808C10.2457 17.1578 10.305 17.1462 10.3677 17.1479C10.4304 17.1479 10.4914 17.1611 10.5491 17.1858C10.6069 17.2089 10.658 17.2435 10.7009 17.2881C10.7454 17.3326 10.78 17.3837 10.8031 17.4431Z" fill="#16BDB7"/>
<path d="M12.8467 26.1183C12.8946 26.1959 12.9061 26.2783 12.8847 26.3657C12.8632 26.4531 12.8138 26.5208 12.7362 26.567C12.6587 26.6131 12.5763 26.6263 12.4888 26.6049C12.3998 26.5834 12.3338 26.534 12.286 26.4581C12.2398 26.3806 12.2266 26.2981 12.248 26.2107C12.2695 26.1233 12.319 26.0573 12.3965 26.0095C12.474 25.9633 12.5565 25.9501 12.6439 25.9716C12.7329 25.993 12.8006 26.0425 12.8467 26.1183Z" fill="#16BDB7"/>
<path d="M13.0808 21.2348C13.1534 21.2463 13.2128 21.2809 13.2557 21.3403C13.3002 21.3997 13.3167 21.4657 13.3051 21.5399C13.2936 21.6125 13.259 21.6702 13.1979 21.7147C13.1386 21.7576 13.0726 21.7741 12.9984 21.7625C12.9258 21.751 12.8664 21.7164 12.8236 21.657C12.779 21.5976 12.7625 21.5316 12.7741 21.4591C12.7856 21.3849 12.8203 21.3271 12.8796 21.2842C12.9407 21.2397 13.0066 21.2232 13.0808 21.2348Z" fill="#16BDB7"/>
<path d="M13.2936 22.9269C13.2953 23.0078 13.2689 23.0787 13.2128 23.1364C13.1551 23.1958 13.0875 23.2255 13.005 23.2271C12.9242 23.2288 12.8533 23.2024 12.7939 23.1463C12.7362 23.0902 12.7048 23.021 12.7032 22.9401C12.7015 22.8593 12.7279 22.7901 12.7857 22.7307C12.8417 22.673 12.911 22.6416 12.9918 22.64C13.0743 22.6383 13.1436 22.6647 13.2029 22.7208C13.2623 22.7769 13.292 22.8461 13.2936 22.9269Z" fill="#16BDB7"/>
<path d="M12.3964 24.3288C12.4261 24.4064 12.4245 24.4822 12.3915 24.5565C12.3585 24.6307 12.3024 24.6834 12.2266 24.7131C12.149 24.7428 12.0732 24.7412 11.9973 24.7082C11.9214 24.6769 11.8687 24.6208 11.839 24.5449C11.8093 24.469 11.8109 24.3932 11.8439 24.319C11.8769 24.2431 11.933 24.1903 12.0088 24.1606C12.0864 24.1309 12.1622 24.1326 12.2381 24.1656C12.314 24.1986 12.3667 24.253 12.3964 24.3288Z" fill="#16BDB7"/>
<path d="M12.2759 22.6549C12.2907 22.7274 12.2775 22.7951 12.2363 22.8577C12.1951 22.9188 12.1374 22.9583 12.0631 22.9732C11.9889 22.9864 11.9213 22.9732 11.8586 22.932C11.7976 22.8907 11.758 22.8346 11.7432 22.7604C11.7283 22.6879 11.7432 22.6202 11.7844 22.5576C11.8256 22.4965 11.8834 22.4586 11.9576 22.4438C12.0301 22.4289 12.0994 22.4421 12.1604 22.4833C12.2231 22.5246 12.2627 22.5823 12.2759 22.6549Z" fill="#16BDB7"/>
<path d="M10.8181 19.7933C10.8445 19.8593 10.8577 19.9269 10.856 19.9962C10.856 20.0671 10.8412 20.1331 10.8132 20.199C10.7868 20.2634 10.7472 20.3194 10.6977 20.3689C10.6466 20.4184 10.5889 20.4547 10.5229 20.4811C10.4586 20.5075 10.3893 20.5206 10.32 20.5206C10.2491 20.519 10.1815 20.5058 10.1155 20.4778C10.0512 20.4497 9.99345 20.4118 9.94562 20.3607C9.89614 20.3112 9.85821 20.2535 9.83182 20.1891C9.80543 20.1232 9.79224 20.0555 9.79224 19.9863C9.79389 19.9154 9.80708 19.8494 9.83512 19.7834C9.86316 19.7191 9.90109 19.663 9.95222 19.6135C10.0033 19.564 10.0611 19.5278 10.1254 19.5014C10.1914 19.475 10.259 19.4618 10.3299 19.4618C10.4008 19.4634 10.4685 19.4766 10.5328 19.5047C10.5971 19.5327 10.6548 19.5706 10.7043 19.6218C10.7538 19.6713 10.7917 19.729 10.8181 19.7933Z" fill="#16BDB7"/>
<path d="M11.481 22.1519C11.5107 22.2228 11.5239 22.2986 11.5239 22.3762C11.5239 22.4537 11.5074 22.5279 11.4761 22.6005C11.4464 22.6714 11.4035 22.7341 11.3474 22.7901C11.2914 22.8446 11.227 22.8858 11.1545 22.9138C11.0819 22.9435 11.006 22.9584 10.9285 22.9567C10.8494 22.9567 10.7751 22.9402 10.7026 22.9105C10.63 22.8792 10.5673 22.8363 10.5129 22.7819C10.4568 22.7258 10.4156 22.6615 10.3859 22.5889C10.3579 22.518 10.343 22.4421 10.343 22.3646C10.3447 22.2871 10.3595 22.2129 10.3908 22.1403C10.4222 22.0694 10.4651 22.0067 10.5211 21.9523C10.5772 21.8979 10.6399 21.855 10.7125 21.8269C10.785 21.7973 10.8609 21.7824 10.9401 21.7841C11.0176 21.7841 11.0935 21.8006 11.1644 21.8302C11.2369 21.8616 11.2996 21.9045 11.3557 21.9589C11.4101 22.015 11.4513 22.0793 11.481 22.1519Z" fill="#16BDB7"/>
<path d="M11.8027 20.5586C11.8175 20.6278 11.8192 20.6971 11.806 20.7664C11.7928 20.8373 11.7664 20.9016 11.7285 20.961C11.6889 21.0204 11.641 21.0698 11.5817 21.1094C11.5223 21.149 11.458 21.1771 11.3887 21.1919C11.3194 21.2067 11.2502 21.2067 11.1792 21.1935C11.11 21.1803 11.044 21.1556 10.9846 21.116C10.9252 21.0781 10.8758 21.0303 10.8345 20.9709C10.795 20.9132 10.7669 20.8488 10.7521 20.7796C10.7372 20.7103 10.7372 20.641 10.7504 20.5718C10.7636 20.5025 10.7884 20.4365 10.8279 20.3771C10.8659 20.3178 10.9154 20.2683 10.9747 20.2287C11.0325 20.1891 11.0968 20.1611 11.166 20.1462C11.237 20.1314 11.3062 20.1314 11.3755 20.1446C11.4464 20.1578 11.5108 20.1825 11.5701 20.2221C11.6311 20.26 11.6806 20.3095 11.7202 20.3672C11.7614 20.425 11.7878 20.4893 11.8027 20.5586Z" fill="#16BDB7"/>
<mask id="mask5_63_242" style="mask-type:luminance" maskUnits="userSpaceOnUse" x="18" y="35" width="2" height="3">
<path d="M18.6736 35.4666H19.4999V37.6667H18.6736V35.4666Z" fill="white"/>
</mask>
<g mask="url(#mask5_63_242)">
<path d="M18.9606 36.7299C18.954 36.527 18.9985 36.3357 19.0942 36.1576C19.1899 35.9778 19.3251 35.836 19.4983 35.7288V37.6551C19.3366 37.5562 19.208 37.4242 19.1123 37.2593C19.0183 37.096 18.9672 36.9196 18.9606 36.7299Z" fill="#16BDB7"/>
</g>
<mask id="mask6_63_242" style="mask-type:luminance" maskUnits="userSpaceOnUse" x="19" y="31" width="1" height="2">
<path d="M19.0959 31.6666H19.5V32.9333H19.0959V31.6666Z" fill="white"/>
</mask>
<g mask="url(#mask6_63_242)">
<path d="M19.4422 32.0575C19.4587 32.0295 19.4769 32.0014 19.4983 31.9767V32.6364C19.4307 32.5556 19.3911 32.4616 19.3812 32.356C19.3697 32.2505 19.3911 32.1515 19.4422 32.0575Z" fill="#16BDB7"/>
</g>
<mask id="mask7_63_242" style="mask-type:luminance" maskUnits="userSpaceOnUse" x="18" y="4" width="2" height="3">
<path d="M18.6736 4.64429H19.4999V6.33317H18.6736V4.64429Z" fill="white"/>
</mask>
<g mask="url(#mask7_63_242)">
<path d="M19.4983 5.07152V6.08749C19.4224 6.10233 19.3465 6.10069 19.2706 6.08089C19.1948 6.06275 19.1272 6.02812 19.0661 5.98029C19.0068 5.93081 18.9589 5.87143 18.9259 5.80051C18.893 5.73124 18.8765 5.65702 18.8765 5.57951C18.8765 5.50199 18.893 5.42777 18.9259 5.3585C18.9589 5.28758 19.0068 5.2282 19.0661 5.17872C19.1272 5.13089 19.1948 5.09626 19.2706 5.07812C19.3465 5.05833 19.4224 5.05668 19.4983 5.07152Z" fill="#16BDB7"/>
</g>
<mask id="mask8_63_242" style="mask-type:luminance" maskUnits="userSpaceOnUse" x="19" y="28" width="1" height="2">
<path d="M19.0959 28.2888H19.5V29.5555H19.0959V28.2888Z" fill="white"/>
</mask>
<g mask="url(#mask8_63_242)">
<path d="M19.2361 29.2916C19.1965 29.2273 19.1717 29.1547 19.1635 29.0789C19.1552 29.0014 19.1635 28.9271 19.1882 28.8546C19.2146 28.782 19.2542 28.7177 19.3086 28.6632C19.3631 28.6072 19.4257 28.5659 19.4983 28.5396V29.5077C19.3861 29.4665 19.2987 29.3939 19.2361 29.2916Z" fill="#16BDB7"/>
</g>
<path d="M18.7627 6.40588C18.8188 6.45371 18.8633 6.50814 18.8963 6.57246C18.931 6.63679 18.9507 6.70606 18.9573 6.77863C18.9623 6.8512 18.9557 6.92212 18.9326 6.99139C18.9112 7.06066 18.8765 7.12168 18.8303 7.17776C18.7825 7.23384 18.7264 7.27837 18.6621 7.31135C18.5978 7.34599 18.5285 7.36578 18.456 7.37238C18.3834 7.37732 18.3125 7.37073 18.2415 7.34929C18.1723 7.3262 18.1096 7.29321 18.0535 7.24538C17.9974 7.1992 17.9529 7.14312 17.9199 7.0788C17.8853 7.01448 17.8655 6.94686 17.8589 6.87429C17.8523 6.80172 17.8606 6.7308 17.882 6.66153C17.9051 6.59226 17.9397 6.52958 17.9859 6.47351C18.0337 6.41908 18.0882 6.37455 18.1541 6.33991C18.2185 6.30693 18.2877 6.28714 18.3603 6.28054C18.4329 6.27394 18.5038 6.28219 18.5731 6.30363C18.644 6.32507 18.7066 6.3597 18.7627 6.40588Z" fill="#16BDB7"/>
<path d="M18.0205 2.3733C18.0881 2.38649 18.1525 2.40958 18.2118 2.44752C18.2696 2.48545 18.319 2.53163 18.3586 2.58936C18.3999 2.64543 18.4263 2.70811 18.4411 2.77573C18.4576 2.84335 18.4592 2.91097 18.446 2.97859C18.4345 3.04786 18.4098 3.11054 18.3718 3.16991C18.3339 3.22764 18.2877 3.27712 18.23 3.3167C18.1739 3.35628 18.1112 3.38432 18.042 3.39917C17.9743 3.41401 17.9067 3.41566 17.8375 3.40411C17.7698 3.39092 17.7055 3.36618 17.6461 3.3299C17.5884 3.29196 17.5389 3.24578 17.4993 3.18806C17.4581 3.13198 17.4317 3.06931 17.4169 3.00168C17.4004 2.93406 17.4004 2.86644 17.4119 2.79717C17.4235 2.72955 17.4482 2.66688 17.4862 2.6075C17.5241 2.54977 17.5703 2.5003 17.628 2.46071C17.6857 2.42113 17.7467 2.39309 17.816 2.37825C17.8836 2.3634 17.9513 2.36175 18.0205 2.3733Z" fill="#16BDB7"/>
<path d="M13.1616 6.73732C13.2408 6.7835 13.3084 6.84288 13.3645 6.9138C13.4189 6.98637 13.4585 7.06719 13.4832 7.1546C13.5063 7.24201 13.5129 7.33107 13.4997 7.42179C13.4882 7.5125 13.4601 7.59661 13.414 7.67578C13.3678 7.75495 13.3084 7.82092 13.2358 7.87699C13.1633 7.93307 13.0825 7.97265 12.995 7.99574C12.906 8.01883 12.8169 8.02543 12.7262 8.01389C12.6355 8.00069 12.5497 7.97265 12.4706 7.92647C12.3914 7.88194 12.3238 7.82257 12.2677 7.75C12.2116 7.67908 12.172 7.59826 12.149 7.51085C12.1259 7.42179 12.1193 7.33272 12.1308 7.24366C12.144 7.15295 12.172 7.06883 12.2182 6.98967C12.2644 6.9105 12.3238 6.84288 12.3963 6.78845C12.4689 6.73238 12.5481 6.69279 12.6371 6.6697C12.7262 6.64661 12.8153 6.64002 12.906 6.65156C12.9967 6.66311 13.0825 6.69279 13.1616 6.73732Z" fill="#16BDB7"/>
<path d="M17.3624 33.9196C17.4993 33.9377 17.6263 33.9822 17.7451 34.0515C17.8638 34.1224 17.9644 34.2115 18.0469 34.3203C18.131 34.4308 18.1887 34.5512 18.2234 34.6848C18.258 34.8168 18.2646 34.9504 18.2464 35.0873C18.2267 35.2225 18.1821 35.3495 18.1112 35.4666C18.0419 35.5854 17.9512 35.686 17.8407 35.7684C17.7319 35.8509 17.6098 35.9086 17.4762 35.9433C17.3426 35.9762 17.2074 35.9845 17.0705 35.9647C16.9353 35.9466 16.8066 35.902 16.6879 35.8311C16.5691 35.7618 16.4685 35.6728 16.386 35.5623C16.3036 35.4534 16.2442 35.333 16.2096 35.1994C16.1766 35.0675 16.1683 34.9322 16.1881 34.797C16.2063 34.6618 16.2524 34.5348 16.3217 34.416C16.3926 34.2989 16.4817 34.1983 16.5922 34.1158C16.7027 34.0334 16.8247 33.9756 16.9583 33.941C17.0903 33.908 17.2255 33.8998 17.3624 33.9196Z" fill="#16BDB7"/>
<mask id="mask9_63_242" style="mask-type:luminance" maskUnits="userSpaceOnUse" x="17" y="32" width="3" height="3">
<path d="M17.8291 32.9332H19.4998V34.1999H17.8291V32.9332Z" fill="white"/>
</mask>
<g mask="url(#mask9_63_242)">
<path d="M18.8353 33.1541C18.8947 33.1756 18.9491 33.2053 18.9969 33.2481C19.0448 33.2894 19.0827 33.3389 19.1107 33.3949C19.1388 33.451 19.1553 33.5104 19.1586 33.5747C19.1635 33.6374 19.1553 33.6984 19.1338 33.7578C19.114 33.8172 19.0827 33.8716 19.0415 33.9194C19.0002 33.9656 18.9507 34.0035 18.893 34.0316C18.8369 34.0596 18.7759 34.0761 18.7132 34.0794C18.6506 34.0843 18.5879 34.0761 18.5285 34.0563C18.4675 34.0365 18.4147 34.0052 18.3669 33.9639C18.3191 33.9227 18.2811 33.8732 18.2531 33.8172C18.2251 33.7594 18.2086 33.7001 18.2053 33.6374C18.2003 33.5747 18.2086 33.512 18.2284 33.4527C18.2498 33.3933 18.2811 33.3405 18.3224 33.2927C18.3636 33.2448 18.4131 33.2069 18.4708 33.1789C18.5269 33.1508 18.5862 33.1343 18.6506 33.131C18.7132 33.1261 18.7759 33.1343 18.8353 33.1541Z" fill="#16BDB7"/>
</g>
<path d="M16.2955 5.5152C16.3648 5.55479 16.4242 5.60592 16.4737 5.67024C16.5215 5.73291 16.5578 5.80383 16.5776 5.88135C16.599 5.95722 16.604 6.03638 16.5941 6.11555C16.5825 6.19472 16.5578 6.26894 16.5166 6.33656C16.477 6.40583 16.4258 6.4652 16.3615 6.51468C16.2972 6.56251 16.2279 6.59715 16.1504 6.61859C16.0729 6.63838 15.9937 6.64333 15.9146 6.63343C15.8337 6.62354 15.7595 6.59715 15.6903 6.55756C15.621 6.51798 15.5616 6.46685 15.5121 6.40253C15.4643 6.33986 15.4297 6.26894 15.4082 6.19307C15.3884 6.11555 15.3818 6.03638 15.3934 5.95887C15.4033 5.8797 15.428 5.80548 15.4692 5.73621C15.5088 5.66694 15.5616 5.60757 15.6243 5.55974C15.6886 5.51026 15.7595 5.47562 15.837 5.45583C15.9146 5.43439 15.9921 5.42944 16.0729 5.43934C16.1521 5.45088 16.2263 5.47562 16.2955 5.5152Z" fill="#16BDB7"/>
<path d="M15.2959 1.86534C15.2959 1.94286 15.281 2.01543 15.253 2.08635C15.2233 2.15562 15.1804 2.21829 15.1276 2.27272C15.0732 2.3255 15.0105 2.36838 14.9396 2.39642C14.8687 2.4261 14.7961 2.44095 14.7186 2.44095C14.6427 2.44095 14.5685 2.4261 14.4976 2.39642C14.4267 2.36838 14.3657 2.3255 14.3112 2.27272C14.2568 2.21829 14.2156 2.15562 14.1859 2.08635C14.1562 2.01543 14.1414 1.94286 14.1414 1.86534C14.1414 1.78947 14.1562 1.7169 14.1859 1.64598C14.2156 1.57506 14.2568 1.51404 14.3112 1.45961C14.3657 1.40518 14.4267 1.36395 14.4976 1.33591C14.5685 1.30623 14.6427 1.29138 14.7186 1.29138C14.7961 1.29138 14.8687 1.30623 14.9396 1.33591C15.0105 1.36395 15.0732 1.40518 15.1276 1.45961C15.1804 1.51404 15.2233 1.57506 15.253 1.64598C15.281 1.7169 15.2959 1.78947 15.2959 1.86534Z" fill="#16BDB7"/>
<path d="M18.0436 7.66101C18.0914 7.71874 18.1277 7.78471 18.1508 7.85563C18.1739 7.9282 18.1822 8.00077 18.1756 8.07664C18.169 8.15086 18.1475 8.22342 18.1129 8.2894C18.0766 8.35702 18.0304 8.41474 17.9727 8.46257C17.915 8.5104 17.849 8.54669 17.7764 8.56978C17.7055 8.59122 17.6313 8.59947 17.5554 8.59287C17.4796 8.58627 17.4086 8.56648 17.341 8.53184C17.2734 8.49721 17.2157 8.45103 17.1678 8.3933C17.1184 8.33558 17.0821 8.26961 17.0606 8.19869C17.0375 8.12612 17.0293 8.05355 17.0359 7.97768C17.0425 7.90181 17.0639 7.83089 17.0986 7.76492C17.1332 7.6973 17.1794 7.63957 17.2371 7.59174C17.2965 7.54391 17.3608 7.50763 17.4334 7.48454C17.5059 7.4631 17.5802 7.45485 17.656 7.46145C17.7302 7.46804 17.8028 7.48783 17.8688 7.52247C17.9364 7.55711 17.9941 7.60329 18.0436 7.66101Z" fill="#16BDB7"/>
<path d="M13.4553 5.01872C13.5377 5.0484 13.612 5.09293 13.6763 5.15231C13.7422 5.21168 13.7934 5.28096 13.8297 5.36012C13.8676 5.43929 13.8874 5.5234 13.8923 5.61082C13.8956 5.69823 13.8824 5.78399 13.8528 5.86646C13.8231 5.94892 13.7769 6.02149 13.7175 6.08747C13.6581 6.15179 13.5889 6.20292 13.508 6.2392C13.4289 6.27714 13.3448 6.29693 13.2557 6.30023C13.1683 6.30517 13.0825 6.29198 13.0001 6.26229C12.9176 6.23095 12.8434 6.18642 12.7774 6.12705C12.7131 6.06932 12.662 5.9984 12.624 5.91924C12.5877 5.84007 12.5663 5.75595 12.563 5.66854C12.5597 5.58113 12.5729 5.49701 12.6026 5.41455C12.6323 5.33208 12.6784 5.25787 12.7378 5.19354C12.7972 5.12922 12.8665 5.07809 12.9473 5.04016C13.0264 5.00387 13.1106 4.98243 13.198 4.97913C13.287 4.97583 13.3728 4.98903 13.4553 5.01872Z" fill="#16BDB7"/>
<path d="M13.9402 3.20455C14.0227 3.21939 14.0986 3.24908 14.1695 3.29361C14.2388 3.33814 14.2981 3.39422 14.346 3.46184C14.3938 3.52946 14.4268 3.60368 14.4449 3.6845C14.4631 3.76531 14.4647 3.84778 14.4499 3.92859C14.435 4.01106 14.4053 4.08528 14.3608 4.1562C14.3163 4.22547 14.2602 4.28484 14.1909 4.33267C14.1233 4.37885 14.0491 4.41184 13.9666 4.42998C13.8858 4.44812 13.8034 4.44977 13.7225 4.43493C13.6401 4.42173 13.5642 4.39205 13.4933 4.34752C13.424 4.30298 13.3646 4.24691 13.3168 4.17929C13.269 4.11166 13.236 4.0358 13.2178 3.95498C13.1997 3.87416 13.1981 3.79335 13.2129 3.71253C13.2277 3.63007 13.2574 3.5542 13.302 3.48493C13.3465 3.41401 13.4026 3.35628 13.4718 3.30845C13.5395 3.26062 13.6137 3.22764 13.6961 3.2095C13.777 3.193 13.8578 3.1897 13.9402 3.20455Z" fill="#16BDB7"/>
<path d="M17.018 3.96493C17.0889 3.99132 17.1532 4.02926 17.2093 4.08039C17.2654 4.13151 17.3082 4.19089 17.3412 4.26016C17.3726 4.32778 17.3907 4.40035 17.394 4.47457C17.3973 4.55044 17.3858 4.62301 17.3594 4.69393C17.3346 4.76485 17.295 4.82917 17.2439 4.8836C17.1928 4.93967 17.1334 4.9842 17.0641 5.01554C16.9949 5.04688 16.924 5.06502 16.8481 5.06832C16.7722 5.07162 16.698 5.06007 16.6271 5.03533C16.5562 5.00894 16.4918 4.97101 16.4358 4.91988C16.3813 4.86875 16.3368 4.80938 16.3055 4.74011C16.2725 4.67249 16.2543 4.59992 16.251 4.5257C16.2477 4.44983 16.2593 4.37726 16.2857 4.30634C16.3121 4.23542 16.35 4.1711 16.4011 4.11667C16.4523 4.06059 16.5133 4.01606 16.5809 3.98473C16.6502 3.95339 16.7227 3.93525 16.7986 3.93195C16.8745 3.92865 16.947 3.94019 17.018 3.96493Z" fill="#16BDB7"/>
<path d="M15.7593 7.00956C15.822 7.06234 15.8731 7.12666 15.9127 7.19923C15.9506 7.27345 15.9737 7.35097 15.9803 7.43343C15.9886 7.5159 15.9787 7.59671 15.9539 7.67588C15.9292 7.75505 15.8896 7.82597 15.8352 7.89029C15.7824 7.95296 15.7181 8.00409 15.6455 8.04203C15.5713 8.07996 15.4921 8.10305 15.4097 8.1113C15.3255 8.11789 15.2447 8.10965 15.1656 8.08491C15.0864 8.05852 15.0138 8.02059 14.9512 7.96616C14.8868 7.91338 14.8357 7.85071 14.7978 7.77649C14.7582 7.70392 14.7367 7.62475 14.7285 7.54229C14.7219 7.45982 14.7301 7.37901 14.7549 7.30149C14.7813 7.22232 14.8192 7.14975 14.8736 7.08708C14.9264 7.02276 14.9907 6.97328 15.065 6.93369C15.1392 6.89576 15.2167 6.87267 15.3008 6.86607C15.3833 6.85948 15.4641 6.86772 15.5433 6.89246C15.6241 6.9172 15.695 6.95678 15.7593 7.00956Z" fill="#16BDB7"/>
<path d="M16.3762 36.1824C16.3812 36.3176 16.3597 36.4495 16.3119 36.5765C16.2641 36.7035 16.1932 36.8173 16.1008 36.9163C16.0068 37.0153 15.8979 37.0928 15.7742 37.1488C15.6505 37.2049 15.5202 37.2346 15.3833 37.2396C15.2465 37.2445 15.1145 37.2231 14.9875 37.1752C14.8589 37.1274 14.7451 37.0581 14.6461 36.9641C14.5455 36.8718 14.468 36.7646 14.4119 36.6409C14.3542 36.5172 14.3245 36.3869 14.3195 36.2516C14.3146 36.1164 14.336 35.9844 14.3839 35.8574C14.4333 35.7304 14.5026 35.6183 14.5966 35.5193C14.689 35.4204 14.7978 35.3429 14.9232 35.2868C15.0469 35.2307 15.1772 35.1994 15.3141 35.1944C15.4493 35.1911 15.5813 35.2126 15.7099 35.2587C15.8369 35.3066 15.9507 35.3775 16.0513 35.4699C16.1503 35.5622 16.2294 35.6711 16.2855 35.7948C16.3416 35.9185 16.3729 36.0471 16.3762 36.1824Z" fill="#16BDB7"/>
<mask id="mask10_63_242" style="mask-type:luminance" maskUnits="userSpaceOnUse" x="18" y="29" width="2" height="2">
<path d="M18.2515 29.1333H19.5V30.8222H18.2515V29.1333Z" fill="white"/>
</mask>
<g mask="url(#mask10_63_242)">
<path d="M19.1703 29.6677C19.2132 29.7171 19.2462 29.7732 19.2676 29.8359C19.2891 29.8986 19.2973 29.9629 19.294 30.0289C19.2891 30.0948 19.2726 30.1575 19.2429 30.2169C19.2132 30.2746 19.1736 30.3274 19.1241 30.3703C19.073 30.4148 19.0169 30.4461 18.9543 30.4676C18.8916 30.489 18.8273 30.4973 18.7596 30.494C18.6937 30.489 18.631 30.4725 18.5716 30.4428C18.5123 30.4148 18.4595 30.3752 18.4166 30.3257C18.3721 30.2746 18.3391 30.2185 18.3176 30.1575C18.2962 30.0948 18.2879 30.0305 18.2929 29.9645C18.2962 29.8986 18.3143 29.8359 18.3424 29.7765C18.3721 29.7171 18.4116 29.666 18.4628 29.6215C18.5123 29.5786 18.5683 29.5456 18.631 29.5242C18.6953 29.5027 18.7596 29.4945 18.8256 29.4994C18.8916 29.5027 18.9543 29.5192 19.0153 29.5489C19.0747 29.5786 19.1258 29.6182 19.1703 29.6677Z" fill="#16BDB7"/>
</g>
<path d="M5.11969 28.4175C5.12299 28.5082 5.10814 28.5956 5.07681 28.6814C5.04382 28.7672 4.99599 28.8414 4.93332 28.909C4.87229 28.975 4.79807 29.0277 4.71561 29.0657C4.63149 29.102 4.54408 29.1234 4.45337 29.1267C4.36101 29.1283 4.27195 29.1152 4.18618 29.0822C4.10042 29.0508 4.02455 29.003 3.95693 28.942C3.89096 28.8793 3.83818 28.8067 3.80024 28.7243C3.76231 28.6418 3.74252 28.5544 3.73922 28.4637C3.73592 28.373 3.75077 28.2839 3.7821 28.1998C3.81509 28.114 3.86292 28.0382 3.92394 27.9722C3.98662 27.9046 4.06083 27.8534 4.1433 27.8155C4.22741 27.7776 4.31483 27.7578 4.40554 27.7545C4.4979 27.7512 4.58696 27.766 4.67273 27.7974C4.75849 27.8303 4.83436 27.8765 4.90033 27.9392C4.96795 28.0002 5.02073 28.0728 5.05866 28.1569C5.0966 28.2394 5.11639 28.3268 5.11969 28.4175Z" fill="#16BDB7"/>
<path d="M5.24186 21.5498C5.31278 21.5728 5.37876 21.6091 5.43648 21.6586C5.49421 21.7064 5.54039 21.7658 5.57337 21.8318C5.60801 21.8994 5.6278 21.9703 5.6344 22.0462C5.641 22.1204 5.6311 22.1946 5.60801 22.2656C5.58492 22.3381 5.54863 22.4024 5.49916 22.4585C5.44968 22.5162 5.3903 22.5624 5.32268 22.5954C5.25506 22.6301 5.18414 22.6498 5.10827 22.6564C5.0324 22.6614 4.95983 22.6531 4.88726 22.6301C4.81469 22.607 4.75037 22.5707 4.69265 22.5212C4.63492 22.4717 4.58874 22.414 4.5541 22.3464C4.51947 22.2804 4.49968 22.2078 4.49308 22.1336C4.48813 22.0577 4.49638 21.9852 4.51947 21.9126C4.54421 21.8417 4.58049 21.7774 4.62997 21.7196C4.67945 21.6619 4.73718 21.6174 4.8048 21.5827C4.87242 21.5481 4.94334 21.5283 5.01921 21.5234C5.09508 21.5168 5.16929 21.5267 5.24186 21.5498Z" fill="#16BDB7"/>
<path d="M6.30709 19.0396C6.36812 19.071 6.41924 19.1139 6.46378 19.1666C6.50831 19.2211 6.53964 19.2788 6.55944 19.3448C6.57923 19.4107 6.58582 19.4783 6.57923 19.546C6.57263 19.6136 6.55449 19.6779 6.5215 19.7389C6.48852 19.8 6.44563 19.8511 6.39286 19.8956C6.34008 19.9385 6.27905 19.9698 6.21308 19.9896C6.14711 20.0094 6.08114 20.0177 6.01187 20.0094C5.9426 20.0028 5.87827 19.9847 5.81725 19.9517C5.75622 19.9187 5.70345 19.8775 5.66056 19.8231C5.61603 19.7703 5.5847 19.7109 5.56491 19.6466C5.54346 19.5806 5.53687 19.513 5.54346 19.4454C5.55006 19.3777 5.56985 19.3134 5.60284 19.2524C5.63418 19.1914 5.67706 19.1402 5.73149 19.0957C5.78426 19.0528 5.84364 19.0215 5.90961 19C5.97558 18.9803 6.0432 18.9737 6.11247 18.9803C6.1801 18.9869 6.24607 19.0066 6.30709 19.0396Z" fill="#16BDB7"/>
<path d="M3.67154 15.1225C3.80843 15.1472 3.93378 15.195 4.04923 15.2692C4.16633 15.3435 4.26364 15.4358 4.3428 15.548C4.42197 15.6601 4.4764 15.7838 4.50609 15.9174C4.53577 16.051 4.53907 16.1846 4.51433 16.3198C4.49124 16.4551 4.44176 16.5804 4.36754 16.6959C4.29333 16.8113 4.20096 16.9086 4.08716 16.9862C3.97501 17.0653 3.85131 17.1198 3.71607 17.1494C3.58248 17.1791 3.44723 17.1824 3.31034 17.1577C3.1751 17.1346 3.04975 17.0851 2.93265 17.0126C2.8172 16.9383 2.71989 16.846 2.64072 16.7338C2.56156 16.6217 2.50713 16.498 2.47744 16.3644C2.44775 16.2308 2.44446 16.0955 2.46755 15.9619C2.49228 15.8267 2.54176 15.7014 2.61433 15.5859C2.68855 15.4705 2.78256 15.3731 2.89472 15.294C3.00852 15.2148 3.13222 15.162 3.26581 15.1323C3.40105 15.1027 3.5363 15.0994 3.67154 15.1225Z" fill="#16BDB7"/>
<path d="M6.53807 24.9935C6.62218 25.0215 6.6964 25.0627 6.76402 25.1205C6.83164 25.1782 6.88442 25.2458 6.924 25.3233C6.96524 25.4008 6.98833 25.485 6.99492 25.5724C7.00152 25.6598 6.99163 25.7439 6.96359 25.828C6.9372 25.9105 6.89432 25.9863 6.83659 26.0523C6.78051 26.1199 6.71124 26.1727 6.63373 26.2123C6.55456 26.2519 6.47045 26.275 6.38303 26.2816C6.29562 26.2882 6.20986 26.2783 6.12574 26.2519C6.04163 26.2238 5.96576 26.1826 5.89979 26.1249C5.83216 26.0672 5.77774 25.9995 5.73815 25.922C5.69857 25.8445 5.67548 25.7604 5.66888 25.673C5.66064 25.5856 5.67218 25.5014 5.69857 25.4173C5.72661 25.3349 5.76784 25.259 5.82557 25.193C5.88329 25.1254 5.95091 25.0726 6.03008 25.033C6.10925 24.9935 6.19171 24.9704 6.27913 24.9638C6.36819 24.9572 6.45395 24.9671 6.53807 24.9935Z" fill="#16BDB7"/>
<mask id="mask11_63_242" style="mask-type:luminance" maskUnits="userSpaceOnUse" x="0" y="17" width="4" height="4">
<path d="M0.5 17.7333H3.05147V20.2666H0.5V17.7333Z" fill="white"/>
</mask>
<g mask="url(#mask11_63_242)">
<path d="M0.5 18.8614C0.506597 18.7641 0.526389 18.6701 0.557726 18.5777C0.590712 18.4854 0.633594 18.3996 0.688021 18.3188C0.740798 18.238 0.805122 18.1654 0.877691 18.0994C0.95026 18.0351 1.03108 17.9807 1.11849 17.9362C1.20425 17.8916 1.29661 17.8603 1.39227 17.8389C1.48793 17.8174 1.58359 17.8092 1.6809 17.8125C1.77986 17.8158 1.87552 17.8323 1.96788 17.8603C2.06189 17.8883 2.15095 17.9279 2.23342 17.979C2.31753 18.0285 2.3934 18.0896 2.46102 18.1588C2.52864 18.2297 2.58637 18.3073 2.6342 18.3914C2.68203 18.4771 2.71831 18.5662 2.74305 18.6602C2.76779 18.7542 2.78099 18.8499 2.78099 18.9472C2.78099 19.0445 2.76779 19.1402 2.74305 19.2342C2.71831 19.3282 2.68203 19.4172 2.6342 19.503C2.58637 19.5871 2.52864 19.6646 2.46102 19.7339C2.3934 19.8048 2.31753 19.8642 2.23342 19.9153C2.15095 19.9665 2.06189 20.006 1.96788 20.0341C1.87552 20.0621 1.77986 20.0786 1.6809 20.0819C1.58359 20.0852 1.48793 20.077 1.39227 20.0555C1.29661 20.0341 1.20425 20.0011 1.11849 19.9582C1.03108 19.9137 0.95026 19.8593 0.877691 19.7933C0.805122 19.729 0.740798 19.6564 0.688021 19.5756C0.633594 19.4948 0.590712 19.4073 0.557726 19.3166C0.526389 19.2243 0.506597 19.1303 0.5 19.033V18.8614Z" fill="#16BDB7"/>
</g>
<path d="M3.30369 14.2368C3.30369 14.3737 3.2773 14.504 3.22453 14.6293C3.1734 14.7547 3.09918 14.8652 3.00187 14.9608C2.90621 15.0565 2.79406 15.1307 2.66871 15.1835C2.54171 15.2346 2.41142 15.261 2.27453 15.261C2.13764 15.261 2.00734 15.2346 1.88034 15.1835C1.755 15.1307 1.64284 15.0565 1.54718 14.9608C1.44987 14.8652 1.37566 14.7547 1.32453 14.6293C1.27175 14.504 1.24536 14.3737 1.24536 14.2368C1.24536 14.1016 1.27175 13.9713 1.32453 13.8459C1.37566 13.7206 1.44987 13.6101 1.54718 13.5144C1.64284 13.4187 1.755 13.3445 1.88034 13.2918C2.00734 13.2406 2.13764 13.2142 2.27453 13.2142C2.41142 13.2142 2.54171 13.2406 2.66871 13.2918C2.79406 13.3445 2.90621 13.4187 3.00187 13.5144C3.09918 13.6101 3.1734 13.7206 3.22453 13.8459C3.2773 13.9713 3.30369 14.1016 3.30369 14.2368Z" fill="#16BDB7"/>
<mask id="mask12_63_242" style="mask-type:luminance" maskUnits="userSpaceOnUse" x="17" y="0" width="3" height="3">
<path d="M17.8291 0H19.4998V2.53333H17.8291V0Z" fill="white"/>
</mask>
<g mask="url(#mask12_63_242)">
<path d="M19.4983 2.30892C19.4158 2.32376 19.3334 2.33036 19.2493 2.32541C19.1668 2.32211 19.0843 2.31057 19.0035 2.28913C18.9227 2.26769 18.8452 2.238 18.771 2.20006C18.6967 2.16213 18.6291 2.11595 18.5648 2.06317C18.5005 2.00874 18.4427 1.94937 18.3916 1.8834C18.3405 1.81743 18.2976 1.74815 18.263 1.67229C18.2267 1.59642 18.2003 1.5189 18.1822 1.43809C18.164 1.35727 18.1558 1.2748 18.1558 1.19234C18.1558 1.10822 18.164 1.02741 18.1822 0.946593C18.2003 0.864127 18.2267 0.78661 18.263 0.710742C18.2976 0.636523 18.3405 0.565603 18.3916 0.499631C18.4427 0.433659 18.5005 0.374284 18.5648 0.321506C18.6291 0.268728 18.6967 0.222548 18.771 0.184614C18.8452 0.145031 18.9227 0.115343 19.0035 0.0939022C19.0843 0.0741105 19.1668 0.0609159 19.2493 0.0576175C19.3334 0.0543186 19.4158 0.0592669 19.4983 0.0741105V2.30892Z" fill="#16BDB7"/>
</g>
<path d="M9.54149 30.8007C9.65199 30.8172 9.75425 30.8519 9.84991 30.908C9.94392 30.964 10.0247 31.0366 10.0924 31.124C10.1583 31.2114 10.2045 31.3087 10.2325 31.4159C10.2606 31.5215 10.2672 31.6287 10.2507 31.7376C10.2358 31.8464 10.1996 31.9487 10.1435 32.0443C10.0874 32.1383 10.0148 32.2191 9.92577 32.2851C9.83836 32.3511 9.74105 32.3973 9.63385 32.4253C9.52664 32.4517 9.41779 32.4583 9.30893 32.4435C9.19843 32.427 9.09617 32.3923 9.00051 32.3362C8.9065 32.2802 8.82569 32.2076 8.75807 32.1202C8.69209 32.0328 8.64591 31.9355 8.61787 31.8283C8.58984 31.7227 8.58324 31.6139 8.59973 31.5066C8.61458 31.3978 8.65086 31.2955 8.70694 31.1999C8.76301 31.1059 8.83558 31.0251 8.92465 30.9591C9.01206 30.8931 9.10937 30.8469 9.21657 30.8189C9.32378 30.7925 9.43263 30.7859 9.54149 30.8007Z" fill="#16BDB7"/>
<path d="M6.63371 27.9507C6.73102 27.9639 6.82009 27.9952 6.9042 28.043C6.98667 28.0925 7.05759 28.1552 7.11696 28.2327C7.17469 28.3102 7.21592 28.3943 7.24066 28.4883C7.26375 28.5807 7.2687 28.6764 7.2555 28.772C7.24231 28.866 7.21097 28.9551 7.16149 29.0392C7.11201 29.1217 7.04934 29.1926 6.97182 29.2503C6.8943 29.3081 6.80854 29.3493 6.71453 29.3724C6.62052 29.3971 6.52486 29.4021 6.4292 29.3889C6.33354 29.3757 6.24283 29.3443 6.16036 29.2949C6.07625 29.2454 6.00533 29.1827 5.9476 29.1052C5.88823 29.0293 5.847 28.9436 5.82391 28.8512C5.79917 28.7572 5.79422 28.6632 5.80741 28.5675C5.82061 28.4719 5.85194 28.3828 5.90142 28.3003C5.9509 28.2162 6.01522 28.1469 6.09274 28.0892C6.17026 28.0315 6.25602 27.9903 6.35003 27.9655C6.44404 27.9424 6.53805 27.9358 6.63371 27.9507Z" fill="#16BDB7"/>
<path d="M13.1619 32.8492C13.2856 32.8673 13.3994 32.9069 13.5066 32.9696C13.6138 33.0322 13.7045 33.1131 13.7787 33.212C13.8546 33.311 13.9073 33.4198 13.937 33.5386C13.9684 33.659 13.975 33.7794 13.9585 33.9014C13.9403 34.0235 13.9007 34.1373 13.8364 34.2445C13.7737 34.35 13.6929 34.4407 13.594 34.515C13.495 34.5892 13.3845 34.642 13.2641 34.6733C13.1437 34.703 13.0217 34.7096 12.8996 34.6931C12.7759 34.6749 12.6621 34.6354 12.5549 34.5727C12.4477 34.51 12.357 34.4292 12.2828 34.3302C12.2069 34.2313 12.1541 34.1224 12.1244 34.0037C12.0931 33.8833 12.0865 33.7629 12.103 33.6408C12.1211 33.5188 12.1607 33.4033 12.225 33.2978C12.2877 33.1906 12.3685 33.1015 12.4675 33.0273C12.5665 32.9531 12.677 32.9003 12.7974 32.869C12.9178 32.8393 13.0398 32.8327 13.1619 32.8492Z" fill="#16BDB7"/>
<path d="M11.9494 34.5447C11.9544 34.6668 11.9346 34.7822 11.8917 34.896C11.8488 35.0098 11.7861 35.1105 11.7037 35.1979C11.6212 35.2869 11.5239 35.3545 11.4134 35.4057C11.3029 35.4552 11.1858 35.4815 11.0654 35.4865C10.9434 35.4898 10.8263 35.4717 10.7125 35.4288C10.5986 35.3859 10.4964 35.3232 10.4073 35.2407C10.3199 35.1583 10.249 35.0626 10.1995 34.9538C10.1484 34.8433 10.122 34.7278 10.1171 34.6074C10.1138 34.487 10.1335 34.3699 10.1764 34.2561C10.2177 34.144 10.282 34.0434 10.3644 33.9543C10.4469 33.8669 10.5442 33.7976 10.6547 33.7465C10.7652 33.697 10.8807 33.6706 11.0027 33.6657C11.1248 33.6624 11.2419 33.6805 11.3557 33.7234C11.4695 33.7663 11.5701 33.8289 11.6592 33.9114C11.7482 33.9939 11.8175 34.0895 11.8686 34.2C11.9181 34.3089 11.9461 34.4243 11.9494 34.5447Z" fill="#16BDB7"/>
<path d="M11.6097 30.4099C11.7169 30.4445 11.8126 30.4989 11.8984 30.5715C11.9841 30.6457 12.0534 30.7315 12.1045 30.8321C12.1557 30.9327 12.1853 31.0383 12.1952 31.1504C12.2035 31.2626 12.1903 31.3714 12.1557 31.4786C12.1194 31.5842 12.0666 31.6815 11.9924 31.7656C11.9182 31.8514 11.8324 31.9206 11.7318 31.9701C11.6295 32.0213 11.524 32.0509 11.4102 32.0608C11.298 32.0691 11.1875 32.0559 11.0803 32.0213C10.9731 31.9866 10.8758 31.9322 10.79 31.8596C10.7043 31.7854 10.6367 31.6996 10.5855 31.599C10.5344 31.4984 10.5031 31.3929 10.4948 31.2807C10.4866 31.1686 10.4998 31.0597 10.5344 30.9525C10.569 30.8453 10.6235 30.7496 10.6977 30.6639C10.7702 30.5798 10.8577 30.5105 10.9583 30.461C11.0589 30.4099 11.1661 30.3802 11.2782 30.3703C11.392 30.3621 11.5009 30.3752 11.6097 30.4099Z" fill="#16BDB7"/>
<path d="M15.2034 32.0294C15.3222 32.0674 15.4294 32.1267 15.525 32.2076C15.6207 32.29 15.6966 32.3857 15.7527 32.4962C15.8104 32.6083 15.8434 32.7254 15.8533 32.8491C15.8632 32.9745 15.8483 33.0949 15.8087 33.2136C15.7708 33.3324 15.7098 33.4396 15.629 33.5336C15.5465 33.6293 15.4508 33.7051 15.3387 33.7612C15.2265 33.8173 15.1078 33.8503 14.9841 33.8602C14.8587 33.8701 14.7367 33.8552 14.6163 33.8173C14.4975 33.7777 14.3903 33.7183 14.2947 33.6375C14.2007 33.5567 14.1231 33.4594 14.0671 33.3489C14.011 33.2367 13.9764 33.1196 13.9665 32.9959C13.9582 32.8706 13.9714 32.7502 14.011 32.6314C14.0506 32.5127 14.1099 32.4055 14.1924 32.3115C14.2732 32.2158 14.3705 32.1416 14.481 32.0839C14.5932 32.0278 14.7119 31.9948 14.8373 31.9849C14.9626 31.975 15.0847 31.9899 15.2034 32.0294Z" fill="#16BDB7"/>
<path d="M8.13969 31.9024C8.14299 32.0079 8.12485 32.1102 8.08857 32.2091C8.05063 32.3081 7.99621 32.3972 7.92364 32.4747C7.84942 32.5522 7.7653 32.6116 7.66799 32.6561C7.57068 32.7006 7.47008 32.7237 7.36287 32.727C7.25567 32.7303 7.15341 32.7138 7.0528 32.6775C6.95385 32.6396 6.86478 32.5852 6.78727 32.5126C6.70975 32.44 6.64872 32.3559 6.60419 32.2603C6.55966 32.163 6.53657 32.0624 6.53327 31.9568C6.52832 31.8512 6.54647 31.7473 6.58275 31.6484C6.62069 31.5494 6.67511 31.462 6.74933 31.3845C6.8219 31.307 6.90601 31.246 7.00332 31.2031C7.10063 31.1585 7.20289 31.1354 7.30845 31.1321C7.41565 31.1272 7.51791 31.1453 7.61851 31.1816C7.71747 31.2196 7.80654 31.274 7.88405 31.3466C7.96157 31.4175 8.02259 31.5032 8.06713 31.5989C8.11166 31.6946 8.13475 31.7968 8.13969 31.9024Z" fill="#16BDB7"/>
<path d="M8.69059 28.0068C8.78625 28.0382 8.87201 28.086 8.94953 28.1503C9.0254 28.2163 9.08642 28.2921 9.1326 28.3812C9.17713 28.4703 9.20352 28.5659 9.21177 28.6649C9.22001 28.7655 9.20847 28.8628 9.17713 28.9568C9.14579 29.0525 9.09796 29.1382 9.03199 29.2141C8.96602 29.29 8.8885 29.351 8.79944 29.3955C8.70873 29.4417 8.61472 29.4681 8.51411 29.4747C8.4135 29.4829 8.31619 29.4714 8.22053 29.4401C8.12487 29.4087 8.03911 29.3609 7.96159 29.2966C7.88573 29.2306 7.8247 29.1547 7.77852 29.0657C7.73399 28.9766 7.70595 28.8809 7.69935 28.782C7.69111 28.6814 7.70265 28.5841 7.73399 28.4901C7.76533 28.3944 7.81316 28.3086 7.87913 28.2328C7.94345 28.1569 8.02097 28.0959 8.11168 28.0513C8.20074 28.0052 8.2964 27.9788 8.39701 27.9722C8.49762 27.9639 8.59493 27.9755 8.69059 28.0068Z" fill="#16BDB7"/>
<path d="M11.7351 25.8741C11.7978 25.945 11.8456 26.0242 11.877 26.1116C11.9083 26.2007 11.9215 26.2914 11.9165 26.3854C11.9116 26.4794 11.8885 26.5685 11.8473 26.6543C11.806 26.7384 11.7516 26.8126 11.6807 26.8753C11.6098 26.9379 11.5306 26.9841 11.4415 27.0154C11.3525 27.0468 11.2601 27.06 11.1661 27.055C11.0721 27.0501 10.983 27.027 10.8973 26.9874C10.8115 26.9462 10.7373 26.8917 10.6746 26.8208C10.6119 26.7516 10.5641 26.6724 10.5328 26.5833C10.5014 26.4959 10.4883 26.4036 10.4932 26.3095C10.4981 26.2155 10.5212 26.1265 10.5608 26.0424C10.6021 25.9582 10.6581 25.884 10.7274 25.8214C10.7983 25.7587 10.8775 25.7108 10.9665 25.6795C11.0556 25.6482 11.148 25.635 11.242 25.6399C11.3376 25.6449 11.4267 25.668 11.5125 25.7092C11.5966 25.7488 11.6708 25.8049 11.7351 25.8741Z" fill="#16BDB7"/>
<path d="M14.1134 26.0112C14.1497 26.1019 14.148 26.1926 14.1084 26.2817C14.0688 26.3724 14.0029 26.4351 13.9105 26.4697C13.8181 26.506 13.7274 26.5043 13.6384 26.4647C13.5477 26.4252 13.485 26.3592 13.4487 26.2685C13.4124 26.1778 13.4141 26.087 13.4553 25.998C13.4949 25.9073 13.5592 25.8446 13.6516 25.81C13.7439 25.7737 13.8346 25.7753 13.9254 25.8149C14.0144 25.8545 14.0787 25.9205 14.1134 26.0112Z" fill="#16BDB7"/>
<path d="M10.6052 27.9804C10.6959 28.0282 10.7734 28.0926 10.8394 28.1717C10.9037 28.2509 10.9515 28.3383 10.9812 28.4356C11.0125 28.5346 11.0224 28.6335 11.0125 28.7358C11.0027 28.838 10.973 28.9337 10.9251 29.0244C10.8757 29.1135 10.813 29.191 10.7322 29.257C10.653 29.3213 10.5639 29.3691 10.4666 29.3988C10.3677 29.4285 10.2671 29.4384 10.1648 29.4285C10.0625 29.4186 9.96524 29.3889 9.87453 29.3411C9.78382 29.2933 9.7063 29.2289 9.64033 29.1514C9.576 29.0722 9.52817 28.9832 9.49849 28.8859C9.4688 28.7869 9.4589 28.688 9.4688 28.5857C9.47869 28.4851 9.50673 28.3878 9.55621 28.2987C9.60404 28.208 9.66836 28.1305 9.74753 28.0662C9.8267 28.0002 9.91576 27.954 10.0147 27.9227C10.112 27.893 10.2126 27.8831 10.3149 27.893C10.4171 27.9029 10.5145 27.9326 10.6052 27.9804Z" fill="#16BDB7"/>
<path d="M16.6449 31.5759C16.696 31.604 16.7389 31.6386 16.7752 31.6848C16.8115 31.7293 16.8362 31.7788 16.8527 31.8332C16.8692 31.8893 16.8741 31.9454 16.8676 32.0014C16.861 32.0592 16.8445 32.112 16.8164 32.1631C16.7884 32.2142 16.7521 32.2571 16.7076 32.2934C16.663 32.328 16.6119 32.3544 16.5575 32.3709C16.5014 32.3874 16.4453 32.3923 16.3876 32.3857C16.3299 32.3791 16.2771 32.3626 16.226 32.3346C16.1748 32.3082 16.132 32.2719 16.0957 32.2274C16.0594 32.1829 16.0347 32.1317 16.0182 32.0773C16.0017 32.0229 15.9967 31.9652 16.0033 31.9091C16.0099 31.8514 16.0264 31.7986 16.0544 31.7475C16.0825 31.698 16.1188 31.6534 16.1633 31.6188C16.2078 31.5825 16.259 31.5561 16.3134 31.5396C16.3695 31.5232 16.4255 31.5182 16.4833 31.5248C16.5393 31.5314 16.5938 31.5479 16.6449 31.5759Z" fill="#16BDB7"/>
<path d="M8.504 22.9533C8.56997 23.0045 8.6244 23.0655 8.66398 23.1381C8.70522 23.2106 8.73161 23.2881 8.7415 23.369C8.7514 23.4514 8.7448 23.5322 8.72336 23.6131C8.70027 23.6922 8.66398 23.7648 8.61286 23.8308C8.56173 23.8951 8.49905 23.9479 8.42648 23.9891C8.35392 24.0303 8.2764 24.0551 8.19393 24.065C8.11147 24.0749 8.029 24.0683 7.94984 24.0468C7.86902 24.0237 7.79645 23.9874 7.73048 23.9363C7.66451 23.8852 7.61173 23.8242 7.5705 23.7516C7.52926 23.679 7.50452 23.6032 7.49298 23.5207C7.48308 23.4382 7.48968 23.3574 7.51277 23.2766C7.53421 23.1974 7.5705 23.1249 7.62327 23.0605C7.6744 22.9946 7.73543 22.9418 7.808 22.9006C7.88056 22.861 7.95808 22.8346 8.0422 22.8247C8.12466 22.8148 8.20548 22.8214 8.28629 22.8428C8.36546 22.8659 8.43968 22.9022 8.504 22.9533Z" fill="#16BDB7"/>
<path d="M12.4279 27.9161C12.5087 27.9804 12.5747 28.0579 12.6258 28.147C12.6769 28.2377 12.7099 28.3334 12.7215 28.4356C12.7346 28.5379 12.7264 28.6385 12.6984 28.7391C12.6703 28.8381 12.6258 28.9288 12.5615 29.0096C12.4971 29.0904 12.4196 29.1564 12.3289 29.2075C12.2382 29.2586 12.1425 29.29 12.0386 29.3032C11.9364 29.3147 11.8341 29.3081 11.7352 29.2801C11.6346 29.252 11.5439 29.2059 11.4614 29.1432C11.3806 29.0789 11.3129 29.003 11.2618 28.9123C11.2107 28.8232 11.1794 28.7259 11.1678 28.6237C11.1546 28.5214 11.1629 28.4208 11.1893 28.3218C11.2173 28.2212 11.2635 28.1305 11.3278 28.0497C11.3921 27.9689 11.4696 27.9029 11.5603 27.8518C11.6494 27.8007 11.7467 27.7693 11.8506 27.7578C11.9529 27.7446 12.0551 27.7528 12.1541 27.7792C12.2547 27.8073 12.3454 27.8534 12.4279 27.9161Z" fill="#16BDB7"/>
<path d="M9.00878 20.8092C9.05991 20.8653 9.09784 20.9296 9.12258 21.0006C9.14732 21.0715 9.15887 21.144 9.15392 21.2199C9.15062 21.2958 9.13248 21.3667 9.09949 21.4343C9.0665 21.5036 9.02197 21.5613 8.9659 21.6124C8.90817 21.6619 8.8455 21.6999 8.77293 21.7263C8.70201 21.751 8.62779 21.7609 8.55192 21.7576C8.4777 21.7526 8.40513 21.7345 8.33586 21.7015C8.26824 21.6702 8.20887 21.6256 8.15774 21.5696C8.10661 21.5135 8.06868 21.4492 8.04394 21.3782C8.0192 21.3073 8.00765 21.2348 8.0126 21.1589C8.0159 21.0847 8.03404 21.0121 8.06703 20.9445C8.10001 20.8769 8.14454 20.8175 8.20062 20.7664C8.2567 20.7169 8.32102 20.6789 8.39359 20.6542C8.46451 20.6278 8.53873 20.6179 8.61295 20.6212C8.68881 20.6262 8.76138 20.6443 8.829 20.6773C8.89828 20.7086 8.95765 20.7532 9.00878 20.8092Z" fill="#16BDB7"/>
<path d="M10.0017 23.4712C10.0594 23.5355 10.1023 23.6064 10.1303 23.6856C10.1583 23.7664 10.1699 23.8489 10.1666 23.933C10.1616 24.0171 10.1402 24.0979 10.1039 24.1738C10.0676 24.2513 10.0165 24.3173 9.95383 24.3734C9.89116 24.4294 9.81859 24.4723 9.73777 24.5004C9.65861 24.5284 9.57614 24.5399 9.49038 24.5366C9.40461 24.5317 9.3238 24.5119 9.24793 24.474C9.17041 24.4377 9.10444 24.3882 9.04671 24.3255C8.99064 24.2629 8.94775 24.1903 8.91972 24.1111C8.89003 24.032 8.87848 23.9495 8.88343 23.8637C8.88838 23.7796 8.90817 23.6988 8.94446 23.6229C8.98239 23.5471 9.03187 23.4811 9.09454 23.4234C9.15887 23.3673 9.22979 23.3244 9.3106 23.2964C9.39142 23.2683 9.47388 23.2568 9.558 23.2617C9.64376 23.265 9.72458 23.2865 9.80209 23.3228C9.87796 23.359 9.94558 23.4085 10.0017 23.4712Z" fill="#16BDB7"/>
<path d="M10.0907 25.645C10.1649 25.7027 10.2243 25.772 10.2704 25.8528C10.3166 25.9336 10.3447 26.021 10.3562 26.1134C10.3678 26.2057 10.3612 26.2964 10.3364 26.3855C10.3117 26.4762 10.2688 26.557 10.2127 26.6296C10.155 26.7038 10.0841 26.7632 10.0033 26.8094C9.92079 26.8539 9.83503 26.8836 9.74102 26.8935C9.64866 26.905 9.5563 26.8984 9.46723 26.8737C9.37652 26.849 9.29406 26.8077 9.22149 26.75C9.14727 26.6923 9.08789 26.623 9.04171 26.5422C8.99553 26.4614 8.96749 26.374 8.95595 26.2816C8.9444 26.1892 8.951 26.0985 8.97574 26.0095C9.00048 25.9204 9.04336 25.8379 9.10109 25.7654C9.15881 25.6912 9.22809 25.6318 9.3089 25.5872C9.39137 25.5411 9.47713 25.513 9.57114 25.5015C9.6635 25.4899 9.75586 25.4965 9.84492 25.5213C9.93564 25.546 10.0181 25.5872 10.0907 25.645Z" fill="#16BDB7"/>
<path d="M13.5693 29.9959C13.6699 30.0486 13.7557 30.1196 13.8282 30.207C13.9008 30.2944 13.9536 30.3933 13.9882 30.5006C14.0212 30.6094 14.0328 30.7199 14.0212 30.8337C14.0097 30.9459 13.9767 31.0531 13.9239 31.1537C13.8695 31.2526 13.7985 31.3401 13.7111 31.411C13.6237 31.4835 13.5248 31.5363 13.4159 31.5693C13.3054 31.6023 13.1949 31.6138 13.0811 31.6023C12.9673 31.5907 12.8601 31.5594 12.7595 31.505C12.6589 31.4522 12.5715 31.3813 12.5005 31.2939C12.428 31.2065 12.3752 31.1091 12.3406 31.0003C12.3076 30.8914 12.296 30.7809 12.3076 30.6671C12.3191 30.555 12.3521 30.4478 12.4049 30.3488C12.4593 30.2482 12.5302 30.1624 12.6176 30.0899C12.7051 30.0173 12.804 29.9645 12.9129 29.9315C13.0234 29.8986 13.1339 29.8887 13.2477 29.8986C13.3615 29.9101 13.4687 29.9431 13.5693 29.9959Z" fill="#16BDB7"/>
<path d="M14.5684 24.4328C14.5717 24.5268 14.5387 24.6092 14.4728 24.6768C14.4085 24.7445 14.3276 24.7808 14.2336 24.7824C14.138 24.7841 14.0555 24.7527 13.9879 24.6884C13.9186 24.6224 13.884 24.5433 13.8807 24.4476C13.879 24.3536 13.9104 24.2728 13.9763 24.2051C14.0423 24.1359 14.1231 24.1012 14.2171 24.0996C14.3128 24.0963 14.3936 24.1293 14.4629 24.1936C14.5305 24.2596 14.5668 24.3387 14.5684 24.4328Z" fill="#16BDB7"/>
<path d="M16.1864 27.1953C16.2276 27.3025 16.226 27.408 16.1798 27.5119C16.1336 27.6158 16.0561 27.6884 15.9505 27.7296C15.8433 27.7709 15.7378 27.7692 15.6322 27.7231C15.5267 27.6785 15.4541 27.601 15.4129 27.4954C15.3716 27.3899 15.3733 27.2843 15.4195 27.1804C15.4656 27.0749 15.5415 27.0023 15.6487 26.9611C15.7559 26.9198 15.8615 26.9215 15.967 26.9677C16.0709 27.0139 16.1451 27.0897 16.1864 27.1953Z" fill="#16BDB7"/>
<path d="M16.3251 29.1729C16.363 29.2158 16.3911 29.2636 16.4092 29.3164C16.4274 29.3708 16.4356 29.4269 16.4323 29.483C16.4274 29.5391 16.4142 29.5935 16.3878 29.6446C16.363 29.6958 16.3284 29.7403 16.2855 29.7766C16.2426 29.8145 16.1948 29.8426 16.1404 29.8607C16.0859 29.8788 16.0315 29.8871 15.9738 29.8821C15.9161 29.8788 15.8633 29.864 15.8105 29.8393C15.7594 29.8145 15.7149 29.7815 15.6786 29.7386C15.6406 29.6958 15.6126 29.6479 15.5945 29.5935C15.5747 29.5391 15.5681 29.4847 15.5714 29.4286C15.5763 29.3708 15.5895 29.3181 15.6159 29.2669C15.6406 29.2158 15.6753 29.1713 15.7182 29.1334C15.761 29.0954 15.8089 29.069 15.8633 29.0492C15.9177 29.0311 15.9721 29.0245 16.0299 29.0278C16.0876 29.0311 16.1404 29.0459 16.1915 29.0707C16.2443 29.0954 16.2888 29.1301 16.3251 29.1729Z" fill="#16BDB7"/>
<path d="M15.1886 23.8985C15.2859 23.9117 15.3634 23.9595 15.4212 24.0387C15.4805 24.1162 15.502 24.2052 15.4871 24.3009C15.4723 24.3982 15.4261 24.4757 15.3469 24.5335C15.2678 24.5928 15.1787 24.6143 15.0814 24.5994C14.9841 24.5846 14.9066 24.5384 14.8472 24.4592C14.7895 24.3801 14.7664 24.2927 14.7812 24.1953C14.7961 24.098 14.8439 24.0205 14.9231 23.9628C15.0022 23.9051 15.0913 23.8836 15.1886 23.8985Z" fill="#16BDB7"/>
<path d="M14.9644 29.8886C15.0485 29.9579 15.0979 30.0453 15.1095 30.1542C15.1194 30.263 15.0913 30.3587 15.0221 30.4428C14.9528 30.5286 14.8654 30.5764 14.7565 30.5879C14.6477 30.5978 14.5504 30.5698 14.4663 30.5022C14.3805 30.4329 14.3327 30.3455 14.3211 30.2366C14.3096 30.1294 14.3376 30.0321 14.4069 29.948C14.4762 29.8639 14.5652 29.8161 14.6741 29.8045C14.7829 29.793 14.8786 29.821 14.9644 29.8886Z" fill="#16BDB7"/>
<path d="M15.0287 27.6127C15.0848 27.7051 15.0996 27.8024 15.0749 27.9079C15.0485 28.0118 14.9891 28.0927 14.8968 28.1471C14.8044 28.2032 14.7054 28.2196 14.5999 28.1933C14.496 28.1685 14.4152 28.1091 14.3591 28.0168C14.3014 27.9261 14.2865 27.8271 14.3129 27.7232C14.3376 27.6177 14.397 27.5385 14.4894 27.4824C14.5817 27.4263 14.6807 27.4115 14.7863 27.4362C14.8918 27.461 14.9726 27.5203 15.0287 27.6127Z" fill="#16BDB7"/>
<path d="M15.2184 25.8198C15.2382 25.9204 15.2201 26.0144 15.1623 26.1018C15.103 26.1876 15.0238 26.2404 14.9215 26.2602C14.8193 26.2816 14.7236 26.2618 14.6379 26.2057C14.5504 26.148 14.4977 26.0672 14.4762 25.9666C14.4564 25.8643 14.4746 25.7703 14.5323 25.6845C14.5917 25.5988 14.6708 25.5444 14.7731 25.5246C14.8754 25.5048 14.971 25.5229 15.0568 25.5806C15.1442 25.6384 15.197 25.7175 15.2184 25.8198Z" fill="#16BDB7"/>
<path d="M8.26992 11.5154C8.36888 11.5714 8.45299 11.644 8.52226 11.7347C8.59154 11.8254 8.64101 11.9244 8.6707 12.0349C8.70039 12.1437 8.70864 12.2542 8.69379 12.3664C8.67895 12.4802 8.64266 12.5858 8.58494 12.6831C8.52886 12.782 8.45464 12.8645 8.36393 12.9338C8.27322 13.003 8.17261 13.0525 8.06211 13.0822C7.95325 13.1119 7.8411 13.1185 7.7273 13.1036C7.61515 13.0888 7.50794 13.0525 7.41063 12.9964C7.31168 12.9404 7.22756 12.8661 7.15664 12.7771C7.08737 12.6864 7.03789 12.5858 7.0082 12.4769C6.98017 12.368 6.97192 12.2559 6.98676 12.1437C7.00161 12.0316 7.03789 11.926 7.09562 11.8271C7.15169 11.7298 7.22591 11.6457 7.31662 11.5764C7.40734 11.5071 7.50794 11.4593 7.6168 11.4296C7.7273 11.3999 7.83945 11.3933 7.95325 11.4082C8.06541 11.4213 8.17096 11.4576 8.26992 11.5154Z" fill="#16BDB7"/>
<path d="M10.2852 5.02034C10.3808 5.03683 10.4699 5.06982 10.5524 5.1226C10.6332 5.17373 10.7024 5.2397 10.7569 5.31887C10.8129 5.39803 10.8509 5.4838 10.8723 5.57781C10.8938 5.67182 10.8954 5.76748 10.8789 5.86149C10.8624 5.95715 10.8278 6.04456 10.775 6.12538C10.7239 6.20784 10.6579 6.27546 10.5787 6.33154C10.4979 6.38597 10.4122 6.4239 10.3165 6.44534C10.2225 6.46678 10.1268 6.46843 10.0312 6.45194C9.93716 6.43544 9.8481 6.40081 9.76564 6.34968C9.68482 6.2969 9.61555 6.23093 9.55947 6.15341C9.50505 6.07425 9.46711 5.98683 9.44567 5.89282C9.42423 5.79881 9.42258 5.7048 9.43907 5.60914C9.45557 5.51513 9.4902 5.42607 9.54298 5.34525C9.59411 5.26444 9.66008 5.19517 9.73925 5.14074C9.81841 5.08466 9.90583 5.04673 10.0015 5.02529C10.0955 5.0055 10.1912 5.0022 10.2852 5.02034Z" fill="#16BDB7"/>
<path d="M10.2986 6.93694C10.3926 6.96992 10.4767 7.02105 10.5509 7.08867C10.6251 7.1563 10.6829 7.23546 10.7257 7.32617C10.7686 7.41689 10.7917 7.51255 10.7967 7.61315C10.8016 7.71211 10.7851 7.80942 10.7521 7.90343C10.7175 7.99744 10.6664 8.08156 10.5971 8.15577C10.5295 8.22834 10.4503 8.28607 10.3596 8.32895C10.2672 8.37183 10.1716 8.39492 10.071 8.39987C9.97037 8.40317 9.87306 8.38833 9.77905 8.35369C9.68504 8.3207 9.59927 8.26958 9.52505 8.20195C9.45084 8.13433 9.39311 8.05517 9.35023 7.96446C9.30899 7.87374 9.28426 7.77808 9.28096 7.67913C9.27601 7.57852 9.29085 7.48121 9.32549 7.3872C9.36012 7.29319 9.41125 7.20907 9.47887 7.1365C9.54649 7.06229 9.62731 7.00456 9.71802 6.96168C9.80873 6.9188 9.90439 6.89571 10.005 6.89241C10.1056 6.88746 10.2029 6.9023 10.2986 6.93694Z" fill="#16BDB7"/>
<path d="M11.1529 3.65144C11.1529 3.74215 11.1348 3.82957 11.1002 3.91368C11.0655 3.9978 11.016 4.07202 10.9501 4.13799C10.8857 4.20231 10.8115 4.25179 10.7274 4.28642C10.6416 4.32106 10.5542 4.33755 10.4635 4.33755C10.3712 4.33755 10.2837 4.32106 10.198 4.28642C10.1139 4.25179 10.0396 4.20231 9.97533 4.13799C9.90935 4.07202 9.85987 3.9978 9.82524 3.91368C9.7906 3.82957 9.77246 3.74215 9.77246 3.65144C9.77246 3.56073 9.7906 3.47332 9.82524 3.3892C9.85987 3.30509 9.90935 3.23087 9.97533 3.16655C10.0396 3.10222 10.1139 3.05275 10.198 3.01646C10.2837 2.98183 10.3712 2.96533 10.4635 2.96533C10.5542 2.96533 10.6416 2.98183 10.7274 3.01646C10.8115 3.05275 10.8857 3.10222 10.9501 3.16655C11.016 3.23087 11.0655 3.30509 11.1002 3.3892C11.1348 3.47332 11.1529 3.56073 11.1529 3.65144Z" fill="#16BDB7"/>
<path d="M10.4272 8.75277C10.5162 8.8039 10.5921 8.86987 10.6548 8.95234C10.7174 9.03315 10.762 9.12221 10.7884 9.22117C10.8164 9.32013 10.823 9.42074 10.8082 9.52135C10.795 9.6236 10.7636 9.71761 10.7108 9.80668C10.6597 9.89574 10.5937 9.96996 10.5113 10.0326C10.4305 10.0953 10.3398 10.1398 10.2408 10.1662C10.1418 10.1926 10.0412 10.1992 9.93897 10.186C9.83671 10.1728 9.74105 10.1398 9.65199 10.0887C9.56293 10.0376 9.48706 9.97161 9.42439 9.89079C9.36171 9.80997 9.31718 9.71926 9.29079 9.6203C9.2644 9.52135 9.25781 9.42239 9.271 9.32013C9.2842 9.21952 9.31718 9.12386 9.36831 9.0348C9.41944 8.94739 9.48706 8.87152 9.56788 8.80885C9.65034 8.74782 9.7394 8.70329 9.84001 8.6769C9.93897 8.65051 10.0396 8.64392 10.1418 8.65711C10.2441 8.6703 10.3381 8.70164 10.4272 8.75277Z" fill="#16BDB7"/>
<path d="M12.8763 10.0013C12.9374 10.0739 12.9819 10.1547 13.0099 10.2438C13.038 10.3328 13.0495 10.4252 13.0413 10.5192C13.033 10.6116 13.0066 10.7006 12.9621 10.7847C12.9192 10.8672 12.8615 10.9398 12.7889 10.9991C12.7164 11.0602 12.6355 11.1047 12.5448 11.1327C12.4541 11.1608 12.3634 11.1707 12.2677 11.1624C12.1737 11.1542 12.0847 11.1278 12.0022 11.0849C11.9181 11.042 11.8455 10.9843 11.7845 10.9117C11.7235 10.8408 11.6789 10.76 11.6509 10.6693C11.6229 10.5802 11.613 10.4879 11.6212 10.3955C11.6295 10.3015 11.6542 10.2124 11.6987 10.13C11.7416 10.0458 11.7993 9.97492 11.8719 9.9139C11.9445 9.85287 12.0269 9.80999 12.116 9.7803C12.2067 9.75226 12.2991 9.74237 12.3931 9.75061C12.4871 9.75886 12.5762 9.78525 12.6603 9.82813C12.7444 9.87101 12.8153 9.92874 12.8763 10.0013Z" fill="#16BDB7"/>
<path d="M9.205 15.3039C9.24294 15.3468 9.27097 15.3946 9.29077 15.4474C9.30891 15.5018 9.31716 15.5563 9.31386 15.6123C9.31221 15.6701 9.29736 15.7229 9.27262 15.7756C9.24788 15.8268 9.2149 15.8713 9.17202 15.9092C9.13078 15.9472 9.0813 15.9752 9.02853 15.9933C8.9741 16.0131 8.91802 16.0214 8.86195 16.0181C8.80422 16.0148 8.74979 15.9999 8.69867 15.9768C8.64754 15.9521 8.60301 15.9175 8.56342 15.8762C8.52549 15.8334 8.49745 15.7855 8.47766 15.7327C8.45952 15.6783 8.45127 15.6239 8.45457 15.5662C8.45787 15.5101 8.47106 15.4557 8.4958 15.4045C8.52054 15.3534 8.55353 15.3089 8.59641 15.2709C8.63929 15.233 8.68712 15.205 8.74155 15.1852C8.79433 15.167 8.8504 15.1588 8.90648 15.1621C8.9642 15.1654 9.01863 15.1786 9.06976 15.2033C9.12089 15.2281 9.16707 15.261 9.205 15.3039Z" fill="#16BDB7"/>
<path d="M8.37219 25.3679C8.453 25.4108 8.52227 25.4669 8.58 25.5378C8.63772 25.6087 8.68061 25.6863 8.70699 25.7737C8.73338 25.8611 8.74328 25.9501 8.73338 26.0409C8.72514 26.1316 8.69875 26.2173 8.65587 26.2965C8.61298 26.3773 8.55691 26.4466 8.48599 26.5043C8.41507 26.562 8.3359 26.6033 8.24849 26.6313C8.16107 26.6577 8.07036 26.6659 7.97965 26.6577C7.88894 26.6478 7.80318 26.6231 7.72236 26.5802C7.64154 26.5373 7.57227 26.4796 7.5129 26.4103C7.45517 26.3394 7.41229 26.2602 7.3859 26.1744C7.35951 26.087 7.35127 25.998 7.35951 25.9073C7.36776 25.8165 7.39415 25.7308 7.43703 25.6516C7.47991 25.5708 7.53764 25.5015 7.60856 25.4438C7.67948 25.3861 7.75864 25.3432 7.84606 25.3168C7.93347 25.2904 8.02253 25.2822 8.11324 25.2904C8.20396 25.3003 8.29137 25.3251 8.37219 25.3679Z" fill="#16BDB7"/>
<path d="M11.3872 15.2116C11.4301 15.3171 11.4301 15.4227 11.3856 15.5266C11.3394 15.6322 11.2635 15.7064 11.158 15.7476C11.0524 15.7905 10.9452 15.7905 10.8396 15.7443C10.7357 15.6998 10.6615 15.6256 10.6186 15.52C10.5757 15.4144 10.5757 15.3089 10.6203 15.2033C10.6665 15.0994 10.7407 15.0252 10.8479 14.9823C10.9534 14.9394 11.0606 14.9411 11.1645 14.9856C11.2701 15.0302 11.3443 15.106 11.3872 15.2116Z" fill="#16BDB7"/>
<path d="M11.9446 16.2324C11.9562 16.2885 11.9562 16.3429 11.9463 16.399C11.9347 16.4551 11.9149 16.5062 11.8836 16.554C11.8523 16.6019 11.8127 16.6415 11.7665 16.6744C11.7187 16.7058 11.6675 16.7289 11.6115 16.7404C11.5554 16.752 11.4993 16.752 11.4432 16.7421C11.3872 16.7322 11.336 16.7107 11.2882 16.6794C11.2387 16.6497 11.1991 16.6101 11.1678 16.5639C11.1348 16.5161 11.1134 16.465 11.1002 16.4089C11.0886 16.3545 11.0886 16.2984 11.0985 16.2423C11.1101 16.1862 11.1299 16.1351 11.1612 16.0873C11.1925 16.0395 11.2321 15.9999 11.2783 15.9669C11.3261 15.9356 11.3773 15.9141 11.4333 15.9026C11.4894 15.8894 11.5455 15.8894 11.6016 15.8993C11.6577 15.9108 11.7088 15.9306 11.7566 15.9619C11.8044 15.9933 11.8457 16.0312 11.877 16.079C11.91 16.1252 11.9314 16.1763 11.9446 16.2324Z" fill="#16BDB7"/>
<path d="M6.92072 22.3299C6.99164 22.3678 7.05266 22.4173 7.10379 22.4783C7.15492 22.541 7.19285 22.6103 7.21594 22.6861C7.23903 22.762 7.24728 22.8395 7.23903 22.9187C7.23079 22.9995 7.2077 23.0737 7.17141 23.1447C7.13348 23.2139 7.08235 23.2749 7.02133 23.3261C6.95865 23.3772 6.88938 23.4135 6.81351 23.4366C6.736 23.4597 6.65848 23.4679 6.57766 23.4597C6.4985 23.4514 6.42263 23.43 6.35171 23.392C6.28079 23.3541 6.21976 23.3046 6.16864 23.2436C6.11751 23.1809 6.08122 23.1133 6.05648 23.0358C6.03339 22.9599 6.02515 22.8824 6.03339 22.8032C6.04164 22.7224 6.06473 22.6482 6.10266 22.5773C6.13895 22.508 6.19008 22.447 6.2511 22.3959C6.31377 22.3464 6.38304 22.3085 6.46056 22.2854C6.53643 22.2623 6.6156 22.254 6.69476 22.2623C6.77558 22.2705 6.8498 22.292 6.92072 22.3299Z" fill="#16BDB7"/>
<path d="M6.58101 15.6667C6.63213 15.6947 6.67667 15.731 6.71295 15.7739C6.74923 15.8184 6.77562 15.8679 6.79377 15.924C6.81026 15.9784 6.81521 16.0345 6.81026 16.0906C6.80366 16.1483 6.78882 16.2027 6.76078 16.2522C6.73439 16.3033 6.69811 16.3462 6.65357 16.3825C6.60904 16.4204 6.55956 16.4468 6.50349 16.4633C6.44906 16.4798 6.39134 16.4847 6.33526 16.4798C6.27753 16.4732 6.22311 16.4584 6.17198 16.4303C6.12085 16.4039 6.07797 16.3676 6.04003 16.3231C6.00375 16.2786 5.97736 16.2291 5.96087 16.1747C5.94272 16.1202 5.93778 16.0642 5.94272 16.0064C5.94932 15.9504 5.96582 15.8959 5.9922 15.8448C6.01859 15.7953 6.05488 15.7508 6.09941 15.7145C6.14394 15.6782 6.19342 15.6518 6.2495 15.6354C6.30392 15.6189 6.36165 15.6123 6.41772 15.6189C6.47545 15.6238 6.52988 15.6403 6.58101 15.6667Z" fill="#16BDB7"/>
<path d="M7.68759 20.0028C7.74531 20.0473 7.79149 20.1018 7.82778 20.1644C7.86406 20.2288 7.88715 20.2964 7.8954 20.369C7.90365 20.4399 7.8987 20.5108 7.87891 20.5817C7.85911 20.651 7.82778 20.7153 7.7816 20.7714C7.73707 20.8291 7.68264 20.8753 7.61996 20.9116C7.55564 20.9462 7.48802 20.9693 7.41545 20.9775C7.34288 20.9874 7.27031 20.9808 7.20104 20.9611C7.13012 20.9429 7.0658 20.9099 7.00807 20.8654C6.952 20.8209 6.90417 20.7664 6.86788 20.7038C6.83325 20.6394 6.81016 20.5718 6.80191 20.5009C6.79201 20.4283 6.79861 20.3574 6.8184 20.2865C6.83655 20.2172 6.86953 20.1545 6.91406 20.0968C6.96024 20.0391 7.01302 19.9929 7.07734 19.9566C7.14167 19.922 7.20929 19.8989 7.28186 19.8907C7.35443 19.8824 7.42535 19.8874 7.49627 19.9072C7.56719 19.9269 7.62986 19.9583 7.68759 20.0028Z" fill="#16BDB7"/>
<path d="M7.65965 6.4207C7.65965 6.5279 7.63985 6.62851 7.59862 6.72747C7.55739 6.82478 7.49966 6.91054 7.42379 6.98641C7.34958 7.06063 7.26216 7.11836 7.16485 7.15959C7.0659 7.20082 6.96364 7.22061 6.85643 7.22061C6.75088 7.22061 6.64862 7.20082 6.54966 7.15959C6.4507 7.11836 6.36494 7.06063 6.28907 6.98641C6.2132 6.91054 6.15548 6.82478 6.11425 6.72747C6.07466 6.62851 6.05322 6.5279 6.05322 6.4207C6.05322 6.31514 6.07466 6.21289 6.11425 6.11558C6.15548 6.01827 6.2132 5.93086 6.28907 5.85664C6.36494 5.78077 6.4507 5.72304 6.54966 5.68346C6.64862 5.64223 6.75088 5.62244 6.85643 5.62244C6.96364 5.62244 7.0659 5.64223 7.16485 5.68346C7.26216 5.72304 7.34958 5.78077 7.42379 5.85664C7.49966 5.93086 7.55739 6.01827 7.59862 6.11558C7.63985 6.21289 7.65965 6.31514 7.65965 6.4207Z" fill="#16BDB7"/>
<path d="M7.72732 9.63517C7.83288 9.67476 7.92854 9.73083 8.011 9.8067C8.09511 9.88257 8.15944 9.97163 8.20727 10.0739C8.2551 10.1761 8.28149 10.2834 8.28643 10.3955C8.29138 10.5077 8.27489 10.6165 8.23696 10.7221C8.19737 10.8276 8.13965 10.9216 8.06378 11.0041C7.98791 11.0882 7.8972 11.1525 7.79494 11.2004C7.69269 11.2482 7.58548 11.2746 7.47333 11.2779C7.35953 11.2828 7.25067 11.2663 7.14347 11.2284C7.03791 11.1905 6.94225 11.1327 6.85979 11.0569C6.77567 10.981 6.71135 10.8919 6.66352 10.7897C6.61569 10.6891 6.5893 10.5819 6.58435 10.4697C6.5794 10.3576 6.5959 10.2487 6.63383 10.1432C6.67341 10.0376 6.73114 9.94195 6.80701 9.85948C6.88288 9.77701 6.97359 9.71104 7.07585 9.66486C7.1781 9.61703 7.28531 9.59064 7.39911 9.5857C7.51126 9.58075 7.62012 9.59724 7.72732 9.63517Z" fill="#16BDB7"/>
<path d="M12.9886 8.38673C13.0611 8.44611 13.1189 8.51703 13.1617 8.59949C13.2046 8.68196 13.231 8.77102 13.2376 8.86338C13.2459 8.95574 13.236 9.04645 13.2079 9.13552C13.1799 9.22458 13.1354 9.30375 13.076 9.37467C13.015 9.44724 12.944 9.50331 12.8616 9.54619C12.7775 9.58908 12.69 9.61547 12.596 9.62371C12.5037 9.63196 12.413 9.62206 12.3222 9.59402C12.2332 9.56599 12.154 9.52145 12.0814 9.46208C12.0105 9.4027 11.9528 9.33014 11.9099 9.24767C11.8654 9.1652 11.8406 9.07779 11.8324 8.98543C11.8242 8.89307 11.8341 8.80236 11.8621 8.7133C11.8901 8.62423 11.9347 8.54507 11.994 8.4725C12.0551 8.40158 12.126 8.3455 12.2101 8.30262C12.2926 8.25809 12.38 8.23335 12.474 8.2251C12.5663 8.21685 12.6587 8.22675 12.7478 8.25479C12.8368 8.28283 12.9176 8.32736 12.9886 8.38673Z" fill="#16BDB7"/>
<path d="M7.23745 7.69396C7.34631 7.71375 7.44692 7.75168 7.54093 7.81106C7.63329 7.87043 7.71245 7.94465 7.77513 8.03536C7.83945 8.12443 7.88233 8.22339 7.90707 8.33059C7.93016 8.43779 7.93346 8.54665 7.91367 8.65385C7.89388 8.76271 7.85594 8.86332 7.79657 8.95568C7.73719 9.04969 7.66133 9.1272 7.57061 9.18988C7.4799 9.25255 7.38094 9.29708 7.27374 9.32017C7.16488 9.34326 7.05603 9.34656 6.94718 9.32677C6.83832 9.30863 6.73771 9.26904 6.64535 9.20967C6.55134 9.15029 6.47383 9.07608 6.4095 8.98701C6.34683 8.8963 6.3023 8.79734 6.27921 8.69014C6.25447 8.58293 6.25282 8.47573 6.27096 8.36687C6.29075 8.25802 6.33034 8.15741 6.38971 8.06505C6.44909 7.97269 6.5233 7.89517 6.61402 7.83085C6.70473 7.76818 6.80369 7.7253 6.91254 7.70056C7.01975 7.67747 7.1286 7.67582 7.23745 7.69396Z" fill="#16BDB7"/>
</svg>
