<svg width="28" height="27" viewBox="0 0 28 27" fill="none" xmlns="http://www.w3.org/2000/svg">
<path d="M0 3.5202C0 2.64476 0.315324 1.92254 0.945946 1.35354C1.57657 0.784503 2.39641 0.5 3.40541 0.5C4.39641 0.5 5.19819 0.780117 5.81081 1.3404C6.44143 1.91818 6.75676 2.67103 6.75676 3.59899C6.75676 4.43939 6.45046 5.13971 5.83784 5.7C5.20722 6.27778 4.37838 6.56667 3.35135 6.56667H3.32432C2.33332 6.56667 1.53154 6.27778 0.918919 5.7C0.306297 5.12222 0 4.39561 0 3.5202ZM0.351351 26.5V8.95657H6.35135V26.5H0.351351ZM9.67568 26.5H15.6757V16.704C15.6757 16.0912 15.7478 15.6185 15.8919 15.2859C16.1441 14.6906 16.527 14.1872 17.0405 13.7758C17.5541 13.3643 18.1982 13.1586 18.973 13.1586C20.991 13.1586 22 14.4805 22 17.1242V26.5H28V16.4414C28 13.8502 27.3694 11.8848 26.1081 10.5455C24.8468 9.20606 23.1802 8.53636 21.1081 8.53636C18.7838 8.53636 16.973 9.50808 15.6757 11.4515V11.504H15.6486L15.6757 11.4515V8.95657H9.67568C9.7117 9.51683 9.72973 11.2589 9.72973 14.1828C9.72973 17.1067 9.7117 21.2124 9.67568 26.5Z" fill="#16BDB7"/>
</svg>
