<svg width="26" height="27" viewBox="0 0 26 27" fill="none" xmlns="http://www.w3.org/2000/svg">
<path d="M19.942 4.998C19.6335 4.998 19.3319 5.08949 19.0753 5.26091C18.8188 5.43232 18.6188 5.67596 18.5007 5.96101C18.3827 6.24607 18.3518 6.55973 18.412 6.86234C18.4722 7.16495 18.6207 7.44292 18.8389 7.66109C19.0571 7.87926 19.335 8.02783 19.6377 8.08802C19.9403 8.14822 20.2539 8.11732 20.539 7.99925C20.824 7.88118 21.0677 7.68123 21.2391 7.42469C21.4105 7.16815 21.502 6.86654 21.502 6.558C21.502 6.14426 21.3376 5.74747 21.0451 5.45491C20.7525 5.16236 20.3557 4.998 19.942 4.998ZM25.922 8.144C25.8967 7.06539 25.6947 5.99822 25.324 4.985C24.9935 4.11807 24.479 3.33306 23.816 2.684C23.1723 2.01765 22.3854 1.50643 21.515 1.189C20.5045 0.807009 19.4361 0.600373 18.356 0.578C16.978 0.5 16.536 0.5 13 0.5C9.464 0.5 9.022 0.5 7.644 0.578C6.5639 0.600373 5.49555 0.807009 4.485 1.189C3.61618 1.50964 2.83001 2.02043 2.184 2.684C1.51765 3.32773 1.00643 4.11457 0.689 4.985C0.307009 5.99555 0.100373 7.0639 0.0779999 8.144C-7.26432e-08 9.522 0 9.964 0 13.5C0 17.036 -7.26432e-08 17.478 0.0779999 18.856C0.100373 19.9361 0.307009 21.0045 0.689 22.015C1.00643 22.8854 1.51765 23.6723 2.184 24.316C2.83001 24.9796 3.61618 25.4904 4.485 25.811C5.49555 26.193 6.5639 26.3996 7.644 26.422C9.022 26.5 9.464 26.5 13 26.5C16.536 26.5 16.978 26.5 18.356 26.422C19.4361 26.3996 20.5045 26.193 21.515 25.811C22.3854 25.4936 23.1723 24.9823 23.816 24.316C24.4819 23.6694 24.9968 22.8837 25.324 22.015C25.6947 21.0018 25.8967 19.9346 25.922 18.856C25.922 17.478 26 17.036 26 13.5C26 9.964 26 9.522 25.922 8.144ZM23.582 18.7C23.5725 19.5252 23.4231 20.3428 23.14 21.118C22.9324 21.6838 22.599 22.195 22.165 22.613C21.7433 23.0427 21.2332 23.3754 20.67 23.588C19.8948 23.8711 19.0772 24.0205 18.252 24.03C16.952 24.095 16.471 24.108 13.052 24.108C9.633 24.108 9.152 24.108 7.852 24.03C6.99516 24.046 6.14197 23.9141 5.33 23.64C4.79152 23.4165 4.30476 23.0846 3.9 22.665C3.46851 22.2474 3.1393 21.7357 2.938 21.17C2.62061 20.3837 2.44458 19.5475 2.418 18.7C2.418 17.4 2.34 16.919 2.34 13.5C2.34 10.081 2.34 9.6 2.418 8.3C2.42383 7.45637 2.57784 6.62033 2.873 5.83C3.10186 5.28128 3.45314 4.79216 3.9 4.4C4.29496 3.95302 4.78307 3.59802 5.33 3.36C6.12242 3.07406 6.9576 2.9246 7.8 2.918C9.1 2.918 9.581 2.84 13 2.84C16.419 2.84 16.9 2.84 18.2 2.918C19.0252 2.92746 19.8428 3.07692 20.618 3.36C21.2088 3.57925 21.739 3.9357 22.165 4.4C22.591 4.79933 22.9239 5.28755 23.14 5.83C23.4289 6.62161 23.5785 7.45731 23.582 8.3C23.647 9.6 23.66 10.081 23.66 13.5C23.66 16.919 23.647 17.4 23.582 18.7ZM13 6.831C11.6816 6.83357 10.3935 7.22688 9.29845 7.96124C8.20345 8.6956 7.35069 9.73806 6.84792 10.9569C6.34516 12.1757 6.21494 13.5162 6.47373 14.809C6.73252 16.1018 7.36871 17.2889 8.3019 18.2203C9.23509 19.1516 10.4234 19.7855 11.7167 20.0418C13.01 20.2981 14.3503 20.1652 15.5681 19.6601C16.786 19.155 17.8267 18.3002 18.559 17.2037C19.2912 16.1073 19.682 14.8184 19.682 13.5C19.6837 12.6226 19.512 11.7536 19.1766 10.9428C18.8413 10.1321 18.3489 9.39565 17.7279 8.77587C17.1069 8.15608 16.3695 7.66518 15.5581 7.33141C14.7467 6.99763 13.8774 6.82757 13 6.831ZM13 17.829C12.1438 17.829 11.3068 17.5751 10.5949 17.0994C9.88304 16.6238 9.32818 15.9477 9.00052 15.1566C8.67287 14.3656 8.58714 13.4952 8.75418 12.6555C8.92122 11.8157 9.33351 11.0444 9.93893 10.4389C10.5444 9.83351 11.3157 9.42122 12.1555 9.25418C12.9952 9.08714 13.8656 9.17287 14.6566 9.50052C15.4477 9.82818 16.1238 10.383 16.5994 11.0949C17.0751 11.8068 17.329 12.6438 17.329 13.5C17.329 14.0685 17.217 14.6314 16.9995 15.1566C16.7819 15.6819 16.463 16.1591 16.0611 16.5611C15.6591 16.963 15.1819 17.2819 14.6566 17.4995C14.1314 17.717 13.5685 17.829 13 17.829Z" fill="#16BDB7"/>
</svg>
