<svg width="23" height="24" viewBox="0 0 23 24" fill="none" xmlns="http://www.w3.org/2000/svg">
<path fill-rule="evenodd" clip-rule="evenodd" d="M11.5 0.25C5.1537 0.25 0 5.4037 0 11.75C0 18.0963 5.1537 23.25 11.5 23.25C11.9515 23.25 12.3953 23.2176 12.834 23.1665L12.8476 23.1801L12.863 23.1631C18.567 22.4876 23 17.6346 23 11.75C23 5.86626 18.567 1.01667 12.8647 0.339444C12.8502 0.327519 12.8374 0.313889 12.8221 0.301963V0.296852L12.7965 0.32837C12.3697 0.279815 11.9379 0.25 11.5 0.25ZM11.0741 1.12315V5.36111H7.37704C8.15819 3.70596 9.22896 2.27059 10.5084 1.15211C10.695 1.13507 10.885 1.13081 11.0741 1.12315ZM11.9259 1.12315C12.1159 1.13167 12.3067 1.13422 12.4933 1.15211C13.7753 2.27059 14.8486 3.70341 15.6315 5.36111H11.9259V1.12315ZM9.00919 1.40596C7.9322 2.56957 7.05955 3.90677 6.42807 5.36111H2.99426C4.47829 3.38299 6.60484 1.9843 9.00919 1.40596ZM13.9891 1.40596C16.3941 1.98387 18.5222 3.3826 20.0066 5.36111H16.577C15.9439 3.90628 15.0683 2.56904 13.9891 1.40596ZM2.41585 6.21296H6.08733C5.48871 7.85251 5.16295 9.57912 5.12304 11.3241H0.873148C0.941591 9.51656 1.4733 7.75679 2.41585 6.21296ZM7.01756 6.21296H11.0741V11.3241H5.97489C6.02164 9.57259 6.37452 7.8428 7.01756 6.21296ZM11.9259 6.21296H15.9893C16.6324 7.84277 16.9853 9.57258 17.0319 11.3241H11.9259V6.21296ZM16.9178 6.21296H20.5841C21.5267 7.75679 22.0576 9.51656 22.126 11.3241H17.8838C17.8431 9.57897 17.5164 7.85236 16.9169 6.21296H16.9178ZM0.872296 12.1759H5.12218C5.16204 13.9209 5.4878 15.6475 6.08648 17.287H2.41415C1.47207 15.743 0.941522 13.9833 0.873148 12.1759H0.872296ZM5.97404 12.1759H11.0741V17.287H7.01756C6.37453 15.6572 6.02166 13.9274 5.97489 12.1759H5.97404ZM11.9251 12.1759H17.0098C16.9195 13.78 16.4816 15.5433 15.7167 17.287H11.9259L11.9251 12.1759ZM17.8625 12.1759H22.126C22.0576 13.9833 21.5271 15.743 20.585 17.287H16.6418C17.3599 15.5578 17.779 13.8081 17.8625 12.1759ZM2.99426 18.1389H6.42978C7.06127 19.5932 7.93392 20.9304 9.01089 22.094C6.6055 21.5165 4.47703 20.1177 2.99256 18.1389H2.99426ZM7.37789 18.1389H11.0749V22.3769C10.8867 22.3683 10.6967 22.3649 10.511 22.3479C9.22981 21.2294 8.15989 19.7957 7.37789 18.1389ZM11.9268 18.1389H15.3027C14.5428 19.6662 13.579 21.0833 12.4379 22.3513C12.2692 22.3666 12.0971 22.37 11.9268 22.3769V18.1389ZM16.261 18.1389H20.0074C18.4679 20.1966 16.2347 21.6265 13.7216 22.1639C14.7261 20.929 15.5782 19.5776 16.2593 18.1389H16.261Z" fill="white"/>
</svg>
